<svg width="32" height="32" viewBox="0 0 32 32" fill="none" xmlns="http://www.w3.org/2000/svg">
<g clip-path="url(#clip0_7150_6142)">
<path fill-rule="evenodd" clip-rule="evenodd" d="M27.903 3.20649C27.9071 3.14896 27.8924 3.09145 27.8559 3.04682C27.6126 2.74967 27.0088 2.28164 26.2449 2.32259C26.1825 2.32593 26.1251 2.35608 26.0832 2.40246L25.9943 2.50104C25.8563 2.65404 25.768 2.84534 25.741 3.04962L25.6656 3.62184C25.6312 3.88261 25.2538 3.88261 25.2194 3.62184L25.144 3.04962C25.117 2.84534 25.0287 2.65404 24.8907 2.50104L24.8018 2.40246C24.7599 2.35608 24.7024 2.32593 24.6401 2.32259C23.8762 2.28164 23.2723 2.74967 23.0291 3.04682C22.9926 3.09145 22.9779 3.14896 22.982 3.20649L22.9908 3.32984C23.0043 3.51857 23.0701 3.69982 23.1809 3.85322L23.5821 4.40877C23.7508 4.64241 23.4556 4.92899 23.2271 4.75334L22.8004 4.42535C22.637 4.29977 22.4394 4.22673 22.2336 4.21589L22.1011 4.20891C22.0387 4.20563 21.9767 4.22489 21.9302 4.26658C21.3605 4.77712 21.2636 5.53495 21.3014 5.9171C21.307 5.97449 21.3372 6.02561 21.3807 6.06344L21.4741 6.14453C21.6169 6.26862 21.7916 6.35042 21.9784 6.38076L22.4658 6.45994C22.7457 6.5054 22.7457 6.908 22.4658 6.95347L21.9784 7.03265C21.7916 7.06299 21.6169 7.14479 21.4741 7.26887L21.3807 7.34997C21.3372 7.38779 21.307 7.43891 21.3014 7.49631C21.2636 7.87845 21.3605 8.63628 21.9302 9.14683C21.9767 9.18851 22.0387 9.20778 22.1011 9.20449L22.2336 9.19751C22.4394 9.18667 22.637 9.11364 22.8004 8.98806L23.2271 8.66006C23.4556 8.48441 23.7508 8.771 23.5821 9.00464L23.1809 9.56019C23.0701 9.71359 23.0043 9.89483 22.9908 10.0836L22.982 10.2069C22.9779 10.2644 22.9926 10.322 23.0291 10.3666C23.2723 10.6637 23.8762 11.1318 24.6401 11.0908C24.7024 11.0875 24.7599 11.0573 24.8018 11.0109L24.8907 10.9124C25.0287 10.7594 25.117 10.5681 25.144 10.3638L25.1946 9.97949C25.2329 9.68975 25.6521 9.68975 25.6903 9.97949L25.741 10.3638C25.768 10.5681 25.8563 10.7594 25.9943 10.9124L26.0832 11.0109C26.1251 11.0573 26.1825 11.0875 26.2449 11.0908C27.0088 11.1318 27.6126 10.6637 27.8559 10.3666C27.8924 10.322 27.9071 10.2644 27.903 10.2069L27.8942 10.0836C27.8807 9.89483 27.8149 9.71359 27.7041 9.56019L27.3029 9.00464C27.1341 8.771 27.4294 8.48441 27.6579 8.66006L28.0846 8.98806C28.2479 9.11364 28.4456 9.18667 28.6513 9.19751L28.7839 9.20449C28.8463 9.20778 28.9083 9.18851 28.9548 9.14683C29.5244 8.63628 29.6213 7.87845 29.5836 7.49631C29.578 7.43891 29.5478 7.38779 29.5042 7.34997L29.4109 7.26887C29.268 7.14479 29.0934 7.06299 28.9066 7.03265L28.4192 6.95347C28.1393 6.908 28.1393 6.5054 28.4192 6.45994L28.9066 6.38076C29.0934 6.35042 29.268 6.26862 29.4109 6.14453L29.5042 6.06344C29.5478 6.02561 29.578 5.97449 29.5836 5.9171C29.6213 5.53495 29.5244 4.77712 28.9548 4.26658C28.9083 4.22489 28.8463 4.20563 28.7839 4.20891L28.6513 4.21589C28.4456 4.22673 28.2479 4.29977 28.0846 4.42535L27.6579 4.75334C27.4294 4.92899 27.1341 4.64241 27.3029 4.40877L27.7041 3.85322C27.8149 3.69982 27.8807 3.51857 27.8942 3.32984L27.903 3.20649Z" fill="url(#paint0_linear_7150_6142)"/>
<path fill-rule="evenodd" clip-rule="evenodd" d="M27.903 3.20649C27.9071 3.14896 27.8924 3.09145 27.8559 3.04682C27.6126 2.74967 27.0088 2.28164 26.2449 2.32259C26.1825 2.32593 26.1251 2.35608 26.0832 2.40246L25.9943 2.50104C25.8563 2.65404 25.768 2.84534 25.741 3.04962L25.6656 3.62184C25.6312 3.88261 25.2538 3.88261 25.2194 3.62184L25.144 3.04962C25.117 2.84534 25.0287 2.65404 24.8907 2.50104L24.8018 2.40246C24.7599 2.35608 24.7024 2.32593 24.6401 2.32259C23.8762 2.28164 23.2723 2.74967 23.0291 3.04682C22.9926 3.09145 22.9779 3.14896 22.982 3.20649L22.9908 3.32984C23.0043 3.51857 23.0701 3.69982 23.1809 3.85322L23.5821 4.40877C23.7508 4.64241 23.4556 4.92899 23.2271 4.75334L22.8004 4.42535C22.637 4.29977 22.4394 4.22673 22.2336 4.21589L22.1011 4.20891C22.0387 4.20563 21.9767 4.22489 21.9302 4.26658C21.3605 4.77712 21.2636 5.53495 21.3014 5.9171C21.307 5.97449 21.3372 6.02561 21.3807 6.06344L21.4741 6.14453C21.6169 6.26862 21.7916 6.35042 21.9784 6.38076L22.4658 6.45994C22.7457 6.5054 22.7457 6.908 22.4658 6.95347L21.9784 7.03265C21.7916 7.06299 21.6169 7.14479 21.4741 7.26887L21.3807 7.34997C21.3372 7.38779 21.307 7.43891 21.3014 7.49631C21.2636 7.87845 21.3605 8.63628 21.9302 9.14683C21.9767 9.18851 22.0387 9.20778 22.1011 9.20449L22.2336 9.19751C22.4394 9.18667 22.637 9.11364 22.8004 8.98806L23.2271 8.66006C23.4556 8.48441 23.7508 8.771 23.5821 9.00464L23.1809 9.56019C23.0701 9.71359 23.0043 9.89483 22.9908 10.0836L22.982 10.2069C22.9779 10.2644 22.9926 10.322 23.0291 10.3666C23.2723 10.6637 23.8762 11.1318 24.6401 11.0908C24.7024 11.0875 24.7599 11.0573 24.8018 11.0109L24.8907 10.9124C25.0287 10.7594 25.117 10.5681 25.144 10.3638L25.1946 9.97949C25.2329 9.68975 25.6521 9.68975 25.6903 9.97949L25.741 10.3638C25.768 10.5681 25.8563 10.7594 25.9943 10.9124L26.0832 11.0109C26.1251 11.0573 26.1825 11.0875 26.2449 11.0908C27.0088 11.1318 27.6126 10.6637 27.8559 10.3666C27.8924 10.322 27.9071 10.2644 27.903 10.2069L27.8942 10.0836C27.8807 9.89483 27.8149 9.71359 27.7041 9.56019L27.3029 9.00464C27.1341 8.771 27.4294 8.48441 27.6579 8.66006L28.0846 8.98806C28.2479 9.11364 28.4456 9.18667 28.6513 9.19751L28.7839 9.20449C28.8463 9.20778 28.9083 9.18851 28.9548 9.14683C29.5244 8.63628 29.6213 7.87845 29.5836 7.49631C29.578 7.43891 29.5478 7.38779 29.5042 7.34997L29.4109 7.26887C29.268 7.14479 29.0934 7.06299 28.9066 7.03265L28.4192 6.95347C28.1393 6.908 28.1393 6.5054 28.4192 6.45994L28.9066 6.38076C29.0934 6.35042 29.268 6.26862 29.4109 6.14453L29.5042 6.06344C29.5478 6.02561 29.578 5.97449 29.5836 5.9171C29.6213 5.53495 29.5244 4.77712 28.9548 4.26658C28.9083 4.22489 28.8463 4.20563 28.7839 4.20891L28.6513 4.21589C28.4456 4.22673 28.2479 4.29977 28.0846 4.42535L27.6579 4.75334C27.4294 4.92899 27.1341 4.64241 27.3029 4.40877L27.7041 3.85322C27.8149 3.69982 27.8807 3.51857 27.8942 3.32984L27.903 3.20649Z" fill="url(#paint1_linear_7150_6142)"/>
<g filter="url(#filter0_f_7150_6142)">
<path d="M25.1562 6.8125L21.875 4.6875L21.5312 5.9375L22.0156 6.17188L25.1562 6.8125Z" fill="#D3390D"/>
</g>
<g filter="url(#filter1_f_7150_6142)">
<path d="M25.6406 7.5L23.7812 9.5L24.7344 10.3281L25.6406 7.5Z" fill="#D3390D"/>
</g>
<g filter="url(#filter2_f_7150_6142)">
<path d="M25.4844 6.45312L24.6875 2.87499L23.9844 3.12499L25.4844 6.45312Z" fill="#FEBB0C" fill-opacity="0.5"/>
</g>
<g filter="url(#filter3_f_7150_6142)">
<path d="M29.0469 8.54693L25.6966 7.03086L27.5469 6.93755L29.3289 7.39542L29.0469 8.54693Z" fill="#FEBB0C" fill-opacity="0.5"/>
</g>
<g filter="url(#filter4_f_7150_6142)">
<path d="M25.8437 7.40614L23.9219 2.71864L23.2344 3.46864L25.8437 7.40614Z" fill="url(#paint2_linear_7150_6142)"/>
</g>
<g filter="url(#filter5_f_7150_6142)">
<path d="M25.0625 7.28124L26.8281 3.21874L26.0156 2.79686L25.0625 7.28124Z" fill="url(#paint3_linear_7150_6142)" fill-opacity="0.6"/>
</g>
<g filter="url(#filter6_f_7150_6142)">
<path d="M24.9687 7.14057L28.7656 8.99994L29.1094 8.28119L24.9687 7.14057Z" fill="url(#paint4_linear_7150_6142)" fill-opacity="0.6"/>
</g>
<g filter="url(#filter7_f_7150_6142)">
<path d="M24.5899 6.8978L28.957 6.15665L28.2969 5.67185L24.5899 6.8978Z" fill="url(#paint5_linear_7150_6142)" fill-opacity="0.3"/>
</g>
<g filter="url(#filter8_f_7150_6142)">
<path d="M26.2812 10.7812L27.2031 10.5L25.3594 7.26562L24.9844 8L26.2812 10.7812Z" fill="url(#paint6_linear_7150_6142)"/>
</g>
<path d="M24.9219 7.20215L22.375 10.0537" stroke="url(#paint7_radial_7150_6142)" stroke-width="1.8" stroke-linecap="round"/>
<path d="M24.9219 7.20215L22.375 10.0537" stroke="url(#paint8_linear_7150_6142)" stroke-width="1.8" stroke-linecap="round"/>
<path d="M15.3281 30.125C8.59716 30.125 3.14063 24.6685 3.14063 17.9375C3.14063 11.2065 8.59716 5.75 15.3281 5.75C22.0591 5.75 27.5156 11.2065 27.5156 17.9375C27.5156 24.6685 22.0591 30.125 15.3281 30.125Z" fill="url(#paint9_radial_7150_6142)"/>
<path d="M15.3281 30.125C8.59716 30.125 3.14063 24.6685 3.14063 17.9375C3.14063 11.2065 8.59716 5.75 15.3281 5.75C22.0591 5.75 27.5156 11.2065 27.5156 17.9375C27.5156 24.6685 22.0591 30.125 15.3281 30.125Z" fill="url(#paint10_radial_7150_6142)"/>
<path d="M15.3281 30.125C8.59716 30.125 3.14063 24.6685 3.14063 17.9375C3.14063 11.2065 8.59716 5.75 15.3281 5.75C22.0591 5.75 27.5156 11.2065 27.5156 17.9375C27.5156 24.6685 22.0591 30.125 15.3281 30.125Z" fill="url(#paint11_radial_7150_6142)"/>
<g filter="url(#filter9_f_7150_6142)">
<ellipse cx="19.4148" cy="16.797" rx="5.03185" ry="6.70422" transform="rotate(49.8461 19.4148 16.797)" fill="url(#paint12_radial_7150_6142)"/>
</g>
<g filter="url(#filter10_f_7150_6142)">
<path d="M28.875 4.42188L29.375 5.83594C29.1172 5.83594 28.6797 5.80469 28.4844 5.375C28.3062 4.98306 28.7266 4.51562 28.875 4.42188Z" fill="#FFD25C"/>
</g>
<g filter="url(#filter11_f_7150_6142)">
<path d="M26.286 2.54166L27.6566 3.1509C27.4793 3.3381 27.1558 3.63429 26.7095 3.48065C26.3024 3.34051 26.252 2.7139 26.286 2.54166Z" fill="url(#paint13_linear_7150_6142)"/>
</g>
<g filter="url(#filter12_f_7150_6142)">
<path d="M27.1953 4.89844L25.9375 6.26562" stroke="url(#paint14_linear_7150_6142)" stroke-width="0.1" stroke-linecap="round"/>
</g>
<g filter="url(#filter13_f_7150_6142)">
<path d="M27.875 7.09374L26.268 6.93022" stroke="url(#paint15_linear_7150_6142)" stroke-width="0.1" stroke-linecap="round"/>
</g>
</g>
<defs>
<filter id="filter0_f_7150_6142" x="21.1312" y="4.2875" width="4.425" height="2.925" filterUnits="userSpaceOnUse" color-interpolation-filters="sRGB">
<feFlood flood-opacity="0" result="BackgroundImageFix"/>
<feBlend mode="normal" in="SourceGraphic" in2="BackgroundImageFix" result="shape"/>
<feGaussianBlur stdDeviation="0.2" result="effect1_foregroundBlur_7150_6142"/>
</filter>
<filter id="filter1_f_7150_6142" x="23.3812" y="7.1" width="2.65938" height="3.62813" filterUnits="userSpaceOnUse" color-interpolation-filters="sRGB">
<feFlood flood-opacity="0" result="BackgroundImageFix"/>
<feBlend mode="normal" in="SourceGraphic" in2="BackgroundImageFix" result="shape"/>
<feGaussianBlur stdDeviation="0.2" result="effect1_foregroundBlur_7150_6142"/>
</filter>
<filter id="filter2_f_7150_6142" x="23.5844" y="2.475" width="2.30002" height="4.37813" filterUnits="userSpaceOnUse" color-interpolation-filters="sRGB">
<feFlood flood-opacity="0" result="BackgroundImageFix"/>
<feBlend mode="normal" in="SourceGraphic" in2="BackgroundImageFix" result="shape"/>
<feGaussianBlur stdDeviation="0.2" result="effect1_foregroundBlur_7150_6142"/>
</filter>
<filter id="filter3_f_7150_6142" x="25.2966" y="6.5375" width="4.43231" height="2.40938" filterUnits="userSpaceOnUse" color-interpolation-filters="sRGB">
<feFlood flood-opacity="0" result="BackgroundImageFix"/>
<feBlend mode="normal" in="SourceGraphic" in2="BackgroundImageFix" result="shape"/>
<feGaussianBlur stdDeviation="0.2" result="effect1_foregroundBlur_7150_6142"/>
</filter>
<filter id="filter4_f_7150_6142" x="22.8344" y="2.31875" width="3.40938" height="5.4875" filterUnits="userSpaceOnUse" color-interpolation-filters="sRGB">
<feFlood flood-opacity="0" result="BackgroundImageFix"/>
<feBlend mode="normal" in="SourceGraphic" in2="BackgroundImageFix" result="shape"/>
<feGaussianBlur stdDeviation="0.2" result="effect1_foregroundBlur_7150_6142"/>
</filter>
<filter id="filter5_f_7150_6142" x="24.6625" y="2.39687" width="2.56566" height="5.28438" filterUnits="userSpaceOnUse" color-interpolation-filters="sRGB">
<feFlood flood-opacity="0" result="BackgroundImageFix"/>
<feBlend mode="normal" in="SourceGraphic" in2="BackgroundImageFix" result="shape"/>
<feGaussianBlur stdDeviation="0.2" result="effect1_foregroundBlur_7150_6142"/>
</filter>
<filter id="filter6_f_7150_6142" x="24.5687" y="6.74062" width="4.94063" height="2.65938" filterUnits="userSpaceOnUse" color-interpolation-filters="sRGB">
<feFlood flood-opacity="0" result="BackgroundImageFix"/>
<feBlend mode="normal" in="SourceGraphic" in2="BackgroundImageFix" result="shape"/>
<feGaussianBlur stdDeviation="0.2" result="effect1_foregroundBlur_7150_6142"/>
</filter>
<filter id="filter7_f_7150_6142" x="24.1899" y="5.27187" width="5.16716" height="2.02583" filterUnits="userSpaceOnUse" color-interpolation-filters="sRGB">
<feFlood flood-opacity="0" result="BackgroundImageFix"/>
<feBlend mode="normal" in="SourceGraphic" in2="BackgroundImageFix" result="shape"/>
<feGaussianBlur stdDeviation="0.2" result="effect1_foregroundBlur_7150_6142"/>
</filter>
<filter id="filter8_f_7150_6142" x="24.5844" y="6.86562" width="3.01875" height="4.31563" filterUnits="userSpaceOnUse" color-interpolation-filters="sRGB">
<feFlood flood-opacity="0" result="BackgroundImageFix"/>
<feBlend mode="normal" in="SourceGraphic" in2="BackgroundImageFix" result="shape"/>
<feGaussianBlur stdDeviation="0.2" result="effect1_foregroundBlur_7150_6142"/>
</filter>
<filter id="filter9_f_7150_6142" x="9.34893" y="7.01074" width="20.1317" height="19.5725" filterUnits="userSpaceOnUse" color-interpolation-filters="sRGB">
<feFlood flood-opacity="0" result="BackgroundImageFix"/>
<feBlend mode="normal" in="SourceGraphic" in2="BackgroundImageFix" result="shape"/>
<feGaussianBlur stdDeviation="2" result="effect1_foregroundBlur_7150_6142"/>
</filter>
<filter id="filter10_f_7150_6142" x="27.9411" y="3.92188" width="1.93387" height="2.41406" filterUnits="userSpaceOnUse" color-interpolation-filters="sRGB">
<feFlood flood-opacity="0" result="BackgroundImageFix"/>
<feBlend mode="normal" in="SourceGraphic" in2="BackgroundImageFix" result="shape"/>
<feGaussianBlur stdDeviation="0.25" result="effect1_foregroundBlur_7150_6142"/>
</filter>
<filter id="filter11_f_7150_6142" x="25.7773" y="2.04175" width="2.37927" height="1.98169" filterUnits="userSpaceOnUse" color-interpolation-filters="sRGB">
<feFlood flood-opacity="0" result="BackgroundImageFix"/>
<feBlend mode="normal" in="SourceGraphic" in2="BackgroundImageFix" result="shape"/>
<feGaussianBlur stdDeviation="0.25" result="effect1_foregroundBlur_7150_6142"/>
</filter>
<filter id="filter12_f_7150_6142" x="25.7875" y="4.74839" width="1.55782" height="1.66729" filterUnits="userSpaceOnUse" color-interpolation-filters="sRGB">
<feFlood flood-opacity="0" result="BackgroundImageFix"/>
<feBlend mode="normal" in="SourceGraphic" in2="BackgroundImageFix" result="shape"/>
<feGaussianBlur stdDeviation="0.05" result="effect1_foregroundBlur_7150_6142"/>
</filter>
<filter id="filter13_f_7150_6142" x="26.118" y="6.78013" width="1.907" height="0.463672" filterUnits="userSpaceOnUse" color-interpolation-filters="sRGB">
<feFlood flood-opacity="0" result="BackgroundImageFix"/>
<feBlend mode="normal" in="SourceGraphic" in2="BackgroundImageFix" result="shape"/>
<feGaussianBlur stdDeviation="0.05" result="effect1_foregroundBlur_7150_6142"/>
</filter>
<linearGradient id="paint0_linear_7150_6142" x1="29.1875" y1="4.81246" x2="21.875" y2="8.99996" gradientUnits="userSpaceOnUse">
<stop stop-color="#FFC709"/>
<stop offset="0.7556" stop-color="#EE4C27"/>
</linearGradient>
<linearGradient id="paint1_linear_7150_6142" x1="24.1875" y1="11.4375" x2="26.9375" y2="8.99996" gradientUnits="userSpaceOnUse">
<stop stop-color="#D3390D"/>
<stop offset="1" stop-color="#D3390D" stop-opacity="0"/>
</linearGradient>
<linearGradient id="paint2_linear_7150_6142" x1="22.5047" y1="4.20354" x2="25.3297" y2="4.30014" gradientUnits="userSpaceOnUse">
<stop stop-color="#D3390D"/>
<stop offset="1" stop-color="#D3390D" stop-opacity="0"/>
</linearGradient>
<linearGradient id="paint3_linear_7150_6142" x1="25.3965" y1="2.85818" x2="26.8637" y2="5.27426" gradientUnits="userSpaceOnUse">
<stop stop-color="#D3390D"/>
<stop offset="1" stop-color="#D3390D" stop-opacity="0"/>
</linearGradient>
<linearGradient id="paint4_linear_7150_6142" x1="28.8118" y1="7.37975" x2="26.2901" y2="8.65691" gradientUnits="userSpaceOnUse">
<stop stop-color="#D3390D"/>
<stop offset="1" stop-color="#D3390D" stop-opacity="0"/>
</linearGradient>
<linearGradient id="paint5_linear_7150_6142" x1="28.3048" y1="4.58873" x2="27.0831" y2="7.1378" gradientUnits="userSpaceOnUse">
<stop stop-color="#D3390D"/>
<stop offset="1" stop-color="#D3390D" stop-opacity="0"/>
</linearGradient>
<linearGradient id="paint6_linear_7150_6142" x1="27.2031" y1="11.0937" x2="25.6875" y2="8.40625" gradientUnits="userSpaceOnUse">
<stop stop-color="#D3390D"/>
<stop offset="1" stop-color="#D3390D" stop-opacity="0"/>
</linearGradient>
<radialGradient id="paint7_radial_7150_6142" cx="0" cy="0" r="1" gradientUnits="userSpaceOnUse" gradientTransform="translate(25.75 6.67187) rotate(136.679) scale(3.39336 2.12789)">
<stop stop-color="#E1DFE1"/>
<stop offset="0.394388" stop-color="#C1BEC5"/>
</radialGradient>
<linearGradient id="paint8_linear_7150_6142" x1="23.5469" y1="7.35937" x2="23.7969" y2="7.5625" gradientUnits="userSpaceOnUse">
<stop stop-color="#A3A1A7"/>
<stop offset="1" stop-color="#B8B6BD" stop-opacity="0"/>
</linearGradient>
<radialGradient id="paint9_radial_7150_6142" cx="0" cy="0" r="1" gradientUnits="userSpaceOnUse" gradientTransform="translate(18.375 28.5) rotate(-119.386) scale(21.0166 34.5675)">
<stop offset="0.00558659" stop-color="#5C0F71"/>
<stop offset="1" stop-color="#2E255B"/>
</radialGradient>
<radialGradient id="paint10_radial_7150_6142" cx="0" cy="0" r="1" gradientUnits="userSpaceOnUse" gradientTransform="translate(20.75 23.8125) rotate(-131.465) scale(22.9362 26.3218)">
<stop offset="0.71875" stop-color="#29233A" stop-opacity="0"/>
<stop offset="1" stop-color="#29233A"/>
</radialGradient>
<radialGradient id="paint11_radial_7150_6142" cx="0" cy="0" r="1" gradientUnits="userSpaceOnUse" gradientTransform="translate(13.375 12.9375) rotate(67.5499) scale(19.476 16.5325)">
<stop offset="0.809845" stop-color="#662B81" stop-opacity="0"/>
<stop offset="1" stop-color="#662B81"/>
</radialGradient>
<radialGradient id="paint12_radial_7150_6142" cx="0" cy="0" r="1" gradientUnits="userSpaceOnUse" gradientTransform="translate(19.5392 11.5185) rotate(92.1485) scale(14.4112 6.98413)">
<stop stop-color="#66558E"/>
<stop offset="0.727773" stop-color="#66558E" stop-opacity="0"/>
</radialGradient>
<linearGradient id="paint13_linear_7150_6142" x1="27.6566" y1="3.17177" x2="26.1016" y2="2.67177" gradientUnits="userSpaceOnUse">
<stop stop-color="#FFD25C"/>
<stop offset="1" stop-color="#FFD25C" stop-opacity="0"/>
</linearGradient>
<linearGradient id="paint14_linear_7150_6142" x1="27.1953" y1="4.89844" x2="26.4844" y2="5.91406" gradientUnits="userSpaceOnUse">
<stop stop-color="#FEBB0C"/>
<stop offset="1" stop-color="#FEBB0C" stop-opacity="0"/>
</linearGradient>
<linearGradient id="paint15_linear_7150_6142" x1="28.1226" y1="7.03851" x2="26.8864" y2="7.13104" gradientUnits="userSpaceOnUse">
<stop stop-color="#FEBB0C"/>
<stop offset="1" stop-color="#FEBB0C" stop-opacity="0"/>
</linearGradient>
<clipPath id="clip0_7150_6142">
<rect width="32" height="32" fill="white"/>
</clipPath>
</defs>
</svg>
