<svg width="32" height="32" viewBox="0 0 32 32" fill="none" xmlns="http://www.w3.org/2000/svg">
<g clip-path="url(#clip0_28327_3476)">
<g filter="url(#filter0_i_28327_3476)">
<path d="M28.9482 20.4492V26.1641C28.9482 26.8544 28.3885 27.4141 27.6982 27.4141H25.1982C24.5078 27.4141 23.9482 26.8544 23.9482 26.1641V22.9453C23.9482 21.6119 22.9043 20.5223 21.5891 20.4492H28.9482Z" fill="#7F7590"/>
<path d="M28.9482 20.4492V26.1641C28.9482 26.8544 28.3885 27.4141 27.6982 27.4141H25.1982C24.5078 27.4141 23.9482 26.8544 23.9482 26.1641V22.9453C23.9482 21.6119 22.9043 20.5223 21.5891 20.4492H28.9482Z" fill="url(#paint0_linear_28327_3476)"/>
<path d="M28.9482 20.4492V26.1641C28.9482 26.8544 28.3885 27.4141 27.6982 27.4141H25.1982C24.5078 27.4141 23.9482 26.8544 23.9482 26.1641V22.9453C23.9482 21.6119 22.9043 20.5223 21.5891 20.4492H28.9482Z" fill="url(#paint1_linear_28327_3476)"/>
</g>
<rect x="14.0106" y="18.8906" width="4.98438" height="8.5625" rx="1" fill="url(#paint2_radial_28327_3476)"/>
<rect x="14.0106" y="18.8906" width="4.98438" height="8.5625" rx="1" fill="url(#paint3_linear_28327_3476)"/>
<rect x="14.0106" y="18.8906" width="4.98438" height="8.5625" rx="1" fill="url(#paint4_linear_28327_3476)"/>
<rect x="14.0106" y="18.8906" width="4.98438" height="8.5625" rx="1" fill="url(#paint5_linear_28327_3476)"/>
<path d="M2.02063 9.76172C2.02063 6.86222 4.37113 4.51172 7.27063 4.51172H20.9794C25.95 4.51172 29.9794 8.54116 29.9794 13.5117V26.1641C29.9794 26.8544 29.4198 27.4141 28.7294 27.4141H26.2294C25.5391 27.4141 24.9794 26.8544 24.9794 26.1641V22.9453C24.9794 21.5646 23.8601 20.4453 22.4794 20.4453H17.9455C17.1192 20.4453 16.3462 20.8536 15.8805 21.5361L12.4968 26.4945C12.1242 27.0406 11.5059 27.3672 10.8448 27.3672H8.03805C7.21185 27.3672 6.74206 26.4221 7.24086 25.7635L9.53121 22.7392C10.2012 21.6676 10.1299 20.2785 9.33086 19.2779L8.85506 18.6821C8.38067 18.0881 7.66176 17.7422 6.90155 17.7422H2.02063V9.76172Z" fill="#B0ACBC"/>
<path d="M2.02063 9.76172C2.02063 6.86222 4.37113 4.51172 7.27063 4.51172H20.9794C25.95 4.51172 29.9794 8.54116 29.9794 13.5117V26.1641C29.9794 26.8544 29.4198 27.4141 28.7294 27.4141H26.2294C25.5391 27.4141 24.9794 26.8544 24.9794 26.1641V22.9453C24.9794 21.5646 23.8601 20.4453 22.4794 20.4453H17.9455C17.1192 20.4453 16.3462 20.8536 15.8805 21.5361L12.4968 26.4945C12.1242 27.0406 11.5059 27.3672 10.8448 27.3672H8.03805C7.21185 27.3672 6.74206 26.4221 7.24086 25.7635L9.53121 22.7392C10.2012 21.6676 10.1299 20.2785 9.33086 19.2779L8.85506 18.6821C8.38067 18.0881 7.66176 17.7422 6.90155 17.7422H2.02063V9.76172Z" fill="url(#paint6_linear_28327_3476)"/>
<path d="M2.02063 9.76172C2.02063 6.86222 4.37113 4.51172 7.27063 4.51172H20.9794C25.95 4.51172 29.9794 8.54116 29.9794 13.5117V26.1641C29.9794 26.8544 29.4198 27.4141 28.7294 27.4141H26.2294C25.5391 27.4141 24.9794 26.8544 24.9794 26.1641V22.9453C24.9794 21.5646 23.8601 20.4453 22.4794 20.4453H17.9455C17.1192 20.4453 16.3462 20.8536 15.8805 21.5361L12.4968 26.4945C12.1242 27.0406 11.5059 27.3672 10.8448 27.3672H8.03805C7.21185 27.3672 6.74206 26.4221 7.24086 25.7635L9.53121 22.7392C10.2012 21.6676 10.1299 20.2785 9.33086 19.2779L8.85506 18.6821C8.38067 18.0881 7.66176 17.7422 6.90155 17.7422H2.02063V9.76172Z" fill="url(#paint7_linear_28327_3476)"/>
<path d="M2.02063 9.76172C2.02063 6.86222 4.37113 4.51172 7.27063 4.51172H20.9794C25.95 4.51172 29.9794 8.54116 29.9794 13.5117V26.1641C29.9794 26.8544 29.4198 27.4141 28.7294 27.4141H26.2294C25.5391 27.4141 24.9794 26.8544 24.9794 26.1641V22.9453C24.9794 21.5646 23.8601 20.4453 22.4794 20.4453H17.9455C17.1192 20.4453 16.3462 20.8536 15.8805 21.5361L12.4968 26.4945C12.1242 27.0406 11.5059 27.3672 10.8448 27.3672H8.03805C7.21185 27.3672 6.74206 26.4221 7.24086 25.7635L9.53121 22.7392C10.2012 21.6676 10.1299 20.2785 9.33086 19.2779L8.85506 18.6821C8.38067 18.0881 7.66176 17.7422 6.90155 17.7422H2.02063V9.76172Z" fill="url(#paint8_linear_28327_3476)"/>
<path d="M2.02063 9.76172C2.02063 6.86222 4.37113 4.51172 7.27063 4.51172H20.9794C25.95 4.51172 29.9794 8.54116 29.9794 13.5117V26.1641C29.9794 26.8544 29.4198 27.4141 28.7294 27.4141H26.2294C25.5391 27.4141 24.9794 26.8544 24.9794 26.1641V22.9453C24.9794 21.5646 23.8601 20.4453 22.4794 20.4453H17.9455C17.1192 20.4453 16.3462 20.8536 15.8805 21.5361L12.4968 26.4945C12.1242 27.0406 11.5059 27.3672 10.8448 27.3672H8.03805C7.21185 27.3672 6.74206 26.4221 7.24086 25.7635L9.53121 22.7392C10.2012 21.6676 10.1299 20.2785 9.33086 19.2779L8.85506 18.6821C8.38067 18.0881 7.66176 17.7422 6.90155 17.7422H2.02063V9.76172Z" fill="url(#paint9_radial_28327_3476)"/>
<path d="M2.02063 9.76172C2.02063 6.86222 4.37113 4.51172 7.27063 4.51172H20.9794C25.95 4.51172 29.9794 8.54116 29.9794 13.5117V26.1641C29.9794 26.8544 29.4198 27.4141 28.7294 27.4141H26.2294C25.5391 27.4141 24.9794 26.8544 24.9794 26.1641V22.9453C24.9794 21.5646 23.8601 20.4453 22.4794 20.4453H17.9455C17.1192 20.4453 16.3462 20.8536 15.8805 21.5361L12.4968 26.4945C12.1242 27.0406 11.5059 27.3672 10.8448 27.3672H8.03805C7.21185 27.3672 6.74206 26.4221 7.24086 25.7635L9.53121 22.7392C10.2012 21.6676 10.1299 20.2785 9.33086 19.2779L8.85506 18.6821C8.38067 18.0881 7.66176 17.7422 6.90155 17.7422H2.02063V9.76172Z" fill="url(#paint10_linear_28327_3476)"/>
<path d="M2.02063 9.76172C2.02063 6.86222 4.37113 4.51172 7.27063 4.51172H20.9794C25.95 4.51172 29.9794 8.54116 29.9794 13.5117V26.1641C29.9794 26.8544 29.4198 27.4141 28.7294 27.4141H26.2294C25.5391 27.4141 24.9794 26.8544 24.9794 26.1641V22.9453C24.9794 21.5646 23.8601 20.4453 22.4794 20.4453H17.9455C17.1192 20.4453 16.3462 20.8536 15.8805 21.5361L12.4968 26.4945C12.1242 27.0406 11.5059 27.3672 10.8448 27.3672H8.03805C7.21185 27.3672 6.74206 26.4221 7.24086 25.7635L9.53121 22.7392C10.2012 21.6676 10.1299 20.2785 9.33086 19.2779L8.85506 18.6821C8.38067 18.0881 7.66176 17.7422 6.90155 17.7422H2.02063V9.76172Z" fill="url(#paint11_radial_28327_3476)"/>
<path d="M2.02063 9.76172C2.02063 6.86222 4.37113 4.51172 7.27063 4.51172H20.9794C25.95 4.51172 29.9794 8.54116 29.9794 13.5117V26.1641C29.9794 26.8544 29.4198 27.4141 28.7294 27.4141H26.2294C25.5391 27.4141 24.9794 26.8544 24.9794 26.1641V22.9453C24.9794 21.5646 23.8601 20.4453 22.4794 20.4453H17.9455C17.1192 20.4453 16.3462 20.8536 15.8805 21.5361L12.4968 26.4945C12.1242 27.0406 11.5059 27.3672 10.8448 27.3672H8.03805C7.21185 27.3672 6.74206 26.4221 7.24086 25.7635L9.53121 22.7392C10.2012 21.6676 10.1299 20.2785 9.33086 19.2779L8.85506 18.6821C8.38067 18.0881 7.66176 17.7422 6.90155 17.7422H2.02063V9.76172Z" fill="url(#paint12_radial_28327_3476)"/>
<path d="M2.02063 9.76172C2.02063 6.86222 4.37113 4.51172 7.27063 4.51172H20.9794C25.95 4.51172 29.9794 8.54116 29.9794 13.5117V26.1641C29.9794 26.8544 29.4198 27.4141 28.7294 27.4141H26.2294C25.5391 27.4141 24.9794 26.8544 24.9794 26.1641V22.9453C24.9794 21.5646 23.8601 20.4453 22.4794 20.4453H17.9455C17.1192 20.4453 16.3462 20.8536 15.8805 21.5361L12.4968 26.4945C12.1242 27.0406 11.5059 27.3672 10.8448 27.3672H8.03805C7.21185 27.3672 6.74206 26.4221 7.24086 25.7635L9.53121 22.7392C10.2012 21.6676 10.1299 20.2785 9.33086 19.2779L8.85506 18.6821C8.38067 18.0881 7.66176 17.7422 6.90155 17.7422H2.02063V9.76172Z" fill="url(#paint13_radial_28327_3476)"/>
<path d="M2.02063 9.76172C2.02063 6.86222 4.37113 4.51172 7.27063 4.51172H20.9794C25.95 4.51172 29.9794 8.54116 29.9794 13.5117V26.1641C29.9794 26.8544 29.4198 27.4141 28.7294 27.4141H26.2294C25.5391 27.4141 24.9794 26.8544 24.9794 26.1641V22.9453C24.9794 21.5646 23.8601 20.4453 22.4794 20.4453H17.9455C17.1192 20.4453 16.3462 20.8536 15.8805 21.5361L12.4968 26.4945C12.1242 27.0406 11.5059 27.3672 10.8448 27.3672H8.03805C7.21185 27.3672 6.74206 26.4221 7.24086 25.7635L9.53121 22.7392C10.2012 21.6676 10.1299 20.2785 9.33086 19.2779L8.85506 18.6821C8.38067 18.0881 7.66176 17.7422 6.90155 17.7422H2.02063V9.76172Z" fill="url(#paint14_radial_28327_3476)"/>
<path d="M2.02063 9.76172C2.02063 6.86222 4.37113 4.51172 7.27063 4.51172H20.9794C25.95 4.51172 29.9794 8.54116 29.9794 13.5117V26.1641C29.9794 26.8544 29.4198 27.4141 28.7294 27.4141H26.2294C25.5391 27.4141 24.9794 26.8544 24.9794 26.1641V22.9453C24.9794 21.5646 23.8601 20.4453 22.4794 20.4453H17.9455C17.1192 20.4453 16.3462 20.8536 15.8805 21.5361L12.4968 26.4945C12.1242 27.0406 11.5059 27.3672 10.8448 27.3672H8.03805C7.21185 27.3672 6.74206 26.4221 7.24086 25.7635L9.53121 22.7392C10.2012 21.6676 10.1299 20.2785 9.33086 19.2779L8.85506 18.6821C8.38067 18.0881 7.66176 17.7422 6.90155 17.7422H2.02063V9.76172Z" fill="url(#paint15_radial_28327_3476)"/>
<path d="M2.02063 9.76172C2.02063 6.86222 4.37113 4.51172 7.27063 4.51172H20.9794C25.95 4.51172 29.9794 8.54116 29.9794 13.5117V26.1641C29.9794 26.8544 29.4198 27.4141 28.7294 27.4141H26.2294C25.5391 27.4141 24.9794 26.8544 24.9794 26.1641V22.9453C24.9794 21.5646 23.8601 20.4453 22.4794 20.4453H17.9455C17.1192 20.4453 16.3462 20.8536 15.8805 21.5361L12.4968 26.4945C12.1242 27.0406 11.5059 27.3672 10.8448 27.3672H8.03805C7.21185 27.3672 6.74206 26.4221 7.24086 25.7635L9.53121 22.7392C10.2012 21.6676 10.1299 20.2785 9.33086 19.2779L8.85506 18.6821C8.38067 18.0881 7.66176 17.7422 6.90155 17.7422H2.02063V9.76172Z" fill="url(#paint16_linear_28327_3476)"/>
<path d="M2.02063 9.76172C2.02063 6.86222 4.37113 4.51172 7.27063 4.51172H20.9794C25.95 4.51172 29.9794 8.54116 29.9794 13.5117V26.1641C29.9794 26.8544 29.4198 27.4141 28.7294 27.4141H26.2294C25.5391 27.4141 24.9794 26.8544 24.9794 26.1641V22.9453C24.9794 21.5646 23.8601 20.4453 22.4794 20.4453H17.9455C17.1192 20.4453 16.3462 20.8536 15.8805 21.5361L12.4968 26.4945C12.1242 27.0406 11.5059 27.3672 10.8448 27.3672H8.03805C7.21185 27.3672 6.74206 26.4221 7.24086 25.7635L9.53121 22.7392C10.2012 21.6676 10.1299 20.2785 9.33086 19.2779L8.85506 18.6821C8.38067 18.0881 7.66176 17.7422 6.90155 17.7422H2.02063V9.76172Z" fill="url(#paint17_radial_28327_3476)"/>
<path d="M2.02063 9.76172C2.02063 6.86222 4.37113 4.51172 7.27063 4.51172H20.9794C25.95 4.51172 29.9794 8.54116 29.9794 13.5117V26.1641C29.9794 26.8544 29.4198 27.4141 28.7294 27.4141H26.2294C25.5391 27.4141 24.9794 26.8544 24.9794 26.1641V22.9453C24.9794 21.5646 23.8601 20.4453 22.4794 20.4453H17.9455C17.1192 20.4453 16.3462 20.8536 15.8805 21.5361L12.4968 26.4945C12.1242 27.0406 11.5059 27.3672 10.8448 27.3672H8.03805C7.21185 27.3672 6.74206 26.4221 7.24086 25.7635L9.53121 22.7392C10.2012 21.6676 10.1299 20.2785 9.33086 19.2779L8.85506 18.6821C8.38067 18.0881 7.66176 17.7422 6.90155 17.7422H2.02063V9.76172Z" fill="url(#paint18_radial_28327_3476)"/>
<path d="M2.02063 9.76172C2.02063 6.86222 4.37113 4.51172 7.27063 4.51172H20.9794C25.95 4.51172 29.9794 8.54116 29.9794 13.5117V26.1641C29.9794 26.8544 29.4198 27.4141 28.7294 27.4141H26.2294C25.5391 27.4141 24.9794 26.8544 24.9794 26.1641V22.9453C24.9794 21.5646 23.8601 20.4453 22.4794 20.4453H17.9455C17.1192 20.4453 16.3462 20.8536 15.8805 21.5361L12.4968 26.4945C12.1242 27.0406 11.5059 27.3672 10.8448 27.3672H8.03805C7.21185 27.3672 6.74206 26.4221 7.24086 25.7635L9.53121 22.7392C10.2012 21.6676 10.1299 20.2785 9.33086 19.2779L8.85506 18.6821C8.38067 18.0881 7.66176 17.7422 6.90155 17.7422H2.02063V9.76172Z" fill="url(#paint19_radial_28327_3476)"/>
<path d="M2.02063 9.76172C2.02063 6.86222 4.37113 4.51172 7.27063 4.51172H20.9794C25.95 4.51172 29.9794 8.54116 29.9794 13.5117V26.1641C29.9794 26.8544 29.4198 27.4141 28.7294 27.4141H26.2294C25.5391 27.4141 24.9794 26.8544 24.9794 26.1641V22.9453C24.9794 21.5646 23.8601 20.4453 22.4794 20.4453H17.9455C17.1192 20.4453 16.3462 20.8536 15.8805 21.5361L12.4968 26.4945C12.1242 27.0406 11.5059 27.3672 10.8448 27.3672H8.03805C7.21185 27.3672 6.74206 26.4221 7.24086 25.7635L9.53121 22.7392C10.2012 21.6676 10.1299 20.2785 9.33086 19.2779L8.85506 18.6821C8.38067 18.0881 7.66176 17.7422 6.90155 17.7422H2.02063V9.76172Z" fill="url(#paint20_radial_28327_3476)"/>
<path d="M2.02063 9.76172C2.02063 6.86222 4.37113 4.51172 7.27063 4.51172H20.9794C25.95 4.51172 29.9794 8.54116 29.9794 13.5117V26.1641C29.9794 26.8544 29.4198 27.4141 28.7294 27.4141H26.2294C25.5391 27.4141 24.9794 26.8544 24.9794 26.1641V22.9453C24.9794 21.5646 23.8601 20.4453 22.4794 20.4453H17.9455C17.1192 20.4453 16.3462 20.8536 15.8805 21.5361L12.4968 26.4945C12.1242 27.0406 11.5059 27.3672 10.8448 27.3672H8.03805C7.21185 27.3672 6.74206 26.4221 7.24086 25.7635L9.53121 22.7392C10.2012 21.6676 10.1299 20.2785 9.33086 19.2779L8.85506 18.6821C8.38067 18.0881 7.66176 17.7422 6.90155 17.7422H2.02063V9.76172Z" fill="url(#paint21_radial_28327_3476)"/>
<path d="M2.02063 9.76172C2.02063 6.86222 4.37113 4.51172 7.27063 4.51172H20.9794C25.95 4.51172 29.9794 8.54116 29.9794 13.5117V26.1641C29.9794 26.8544 29.4198 27.4141 28.7294 27.4141H26.2294C25.5391 27.4141 24.9794 26.8544 24.9794 26.1641V22.9453C24.9794 21.5646 23.8601 20.4453 22.4794 20.4453H17.9455C17.1192 20.4453 16.3462 20.8536 15.8805 21.5361L12.4968 26.4945C12.1242 27.0406 11.5059 27.3672 10.8448 27.3672H8.03805C7.21185 27.3672 6.74206 26.4221 7.24086 25.7635L9.53121 22.7392C10.2012 21.6676 10.1299 20.2785 9.33086 19.2779L8.85506 18.6821C8.38067 18.0881 7.66176 17.7422 6.90155 17.7422H2.02063V9.76172Z" fill="url(#paint22_radial_28327_3476)"/>
<g filter="url(#filter1_f_28327_3476)">
<path d="M4.0575 14.6406V17.7656L5.495 17.6094L4.0575 14.6406Z" fill="url(#paint23_linear_28327_3476)"/>
</g>
<rect x="6.02625" y="10.5156" width="1.00781" height="1.99219" rx="0.503906" fill="url(#paint24_linear_28327_3476)"/>
<rect x="6.02625" y="10.5156" width="1.00781" height="1.99219" rx="0.503906" fill="url(#paint25_linear_28327_3476)"/>
<rect x="6.02625" y="10.5156" width="1.00781" height="1.99219" rx="0.503906" fill="url(#paint26_linear_28327_3476)"/>
<rect x="6.02625" y="10.5156" width="1.00781" height="1.99219" rx="0.503906" fill="url(#paint27_radial_28327_3476)"/>
<g filter="url(#filter2_f_28327_3476)">
<path d="M10.0575 5.6497C10.0575 5.5174 10.1647 5.41016 10.297 5.41016H10.7462C15.2226 5.7807 18.4265 8.67018 18.6361 13.0456C18.6361 13.5727 18.2088 14 17.6817 14H11.2552C10.5937 14 10.0575 13.4638 10.0575 12.8023V5.6497Z" fill="#796C8C"/>
</g>
<g filter="url(#filter3_f_28327_3476)">
<path d="M14.1981 6.80469H20.9403C23.2736 6.82552 27.9403 8.26719 27.9403 13.8672C27.9403 19.4672 27.9403 24.0573 27.9403 25.8281" stroke="url(#paint28_linear_28327_3476)" stroke-width="1.5" stroke-linecap="square"/>
</g>
<path d="M10.0575 4.80078C10.0575 4.66271 10.1694 4.55078 10.3075 4.55078H10.7762C15.4481 4.9375 18.7919 7.95312 19.0106 12.5195C19.0106 13.0697 18.5647 13.5156 18.0145 13.5156H11.3075C10.6171 13.5156 10.0575 12.956 10.0575 12.2656V4.80078Z" fill="url(#paint29_linear_28327_3476)"/>
<path d="M10.0575 4.80078C10.0575 4.66271 10.1694 4.55078 10.3075 4.55078H10.7762C15.4481 4.9375 18.7919 7.95312 19.0106 12.5195C19.0106 13.0697 18.5647 13.5156 18.0145 13.5156H11.3075C10.6171 13.5156 10.0575 12.956 10.0575 12.2656V4.80078Z" fill="url(#paint30_linear_28327_3476)"/>
<path d="M10.0575 4.80078C10.0575 4.66271 10.1694 4.55078 10.3075 4.55078H10.7762C15.4481 4.9375 18.7919 7.95312 19.0106 12.5195C19.0106 13.0697 18.5647 13.5156 18.0145 13.5156H11.3075C10.6171 13.5156 10.0575 12.956 10.0575 12.2656V4.80078Z" fill="url(#paint31_linear_28327_3476)"/>
<path fill-rule="evenodd" clip-rule="evenodd" d="M3.52063 15.7344C4.34906 15.7344 5.02063 16.4059 5.02063 17.2344V20.9844C5.02063 21.2605 5.24449 21.4844 5.52063 21.4844C6.34906 21.4844 7.02063 22.1559 7.02063 22.9844C7.02063 23.8128 6.34906 24.4844 5.52063 24.4844H5.02063C3.36378 24.4844 2.02063 23.1412 2.02063 21.4844V17.2344C2.02063 16.4059 2.6922 15.7344 3.52063 15.7344Z" fill="url(#paint32_linear_28327_3476)"/>
<path fill-rule="evenodd" clip-rule="evenodd" d="M3.52063 15.7344C4.34906 15.7344 5.02063 16.4059 5.02063 17.2344V20.9844C5.02063 21.2605 5.24449 21.4844 5.52063 21.4844C6.34906 21.4844 7.02063 22.1559 7.02063 22.9844C7.02063 23.8128 6.34906 24.4844 5.52063 24.4844H5.02063C3.36378 24.4844 2.02063 23.1412 2.02063 21.4844V17.2344C2.02063 16.4059 2.6922 15.7344 3.52063 15.7344Z" fill="url(#paint33_linear_28327_3476)"/>
<path fill-rule="evenodd" clip-rule="evenodd" d="M3.52063 15.7344C4.34906 15.7344 5.02063 16.4059 5.02063 17.2344V20.9844C5.02063 21.2605 5.24449 21.4844 5.52063 21.4844C6.34906 21.4844 7.02063 22.1559 7.02063 22.9844C7.02063 23.8128 6.34906 24.4844 5.52063 24.4844H5.02063C3.36378 24.4844 2.02063 23.1412 2.02063 21.4844V17.2344C2.02063 16.4059 2.6922 15.7344 3.52063 15.7344Z" fill="url(#paint34_radial_28327_3476)"/>
<path fill-rule="evenodd" clip-rule="evenodd" d="M3.52063 15.7344C4.34906 15.7344 5.02063 16.4059 5.02063 17.2344V20.9844C5.02063 21.2605 5.24449 21.4844 5.52063 21.4844C6.34906 21.4844 7.02063 22.1559 7.02063 22.9844C7.02063 23.8128 6.34906 24.4844 5.52063 24.4844H5.02063C3.36378 24.4844 2.02063 23.1412 2.02063 21.4844V17.2344C2.02063 16.4059 2.6922 15.7344 3.52063 15.7344Z" fill="url(#paint35_radial_28327_3476)" fill-opacity="0.3"/>
<path fill-rule="evenodd" clip-rule="evenodd" d="M3.52063 15.7344C4.34906 15.7344 5.02063 16.4059 5.02063 17.2344V20.9844C5.02063 21.2605 5.24449 21.4844 5.52063 21.4844C6.34906 21.4844 7.02063 22.1559 7.02063 22.9844C7.02063 23.8128 6.34906 24.4844 5.52063 24.4844H5.02063C3.36378 24.4844 2.02063 23.1412 2.02063 21.4844V17.2344C2.02063 16.4059 2.6922 15.7344 3.52063 15.7344Z" fill="url(#paint36_radial_28327_3476)"/>
<path fill-rule="evenodd" clip-rule="evenodd" d="M3.52063 15.7344C4.34906 15.7344 5.02063 16.4059 5.02063 17.2344V20.9844C5.02063 21.2605 5.24449 21.4844 5.52063 21.4844C6.34906 21.4844 7.02063 22.1559 7.02063 22.9844C7.02063 23.8128 6.34906 24.4844 5.52063 24.4844H5.02063C3.36378 24.4844 2.02063 23.1412 2.02063 21.4844V17.2344C2.02063 16.4059 2.6922 15.7344 3.52063 15.7344Z" fill="url(#paint37_radial_28327_3476)"/>
<path fill-rule="evenodd" clip-rule="evenodd" d="M3.52063 15.7344C4.34906 15.7344 5.02063 16.4059 5.02063 17.2344V20.9844C5.02063 21.2605 5.24449 21.4844 5.52063 21.4844C6.34906 21.4844 7.02063 22.1559 7.02063 22.9844C7.02063 23.8128 6.34906 24.4844 5.52063 24.4844H5.02063C3.36378 24.4844 2.02063 23.1412 2.02063 21.4844V17.2344C2.02063 16.4059 2.6922 15.7344 3.52063 15.7344Z" fill="url(#paint38_radial_28327_3476)"/>
<path fill-rule="evenodd" clip-rule="evenodd" d="M3.52063 15.7344C4.34906 15.7344 5.02063 16.4059 5.02063 17.2344V20.9844C5.02063 21.2605 5.24449 21.4844 5.52063 21.4844C6.34906 21.4844 7.02063 22.1559 7.02063 22.9844C7.02063 23.8128 6.34906 24.4844 5.52063 24.4844H5.02063C3.36378 24.4844 2.02063 23.1412 2.02063 21.4844V17.2344C2.02063 16.4059 2.6922 15.7344 3.52063 15.7344Z" fill="url(#paint39_radial_28327_3476)"/>
<g filter="url(#filter4_f_28327_3476)">
<path d="M6.91296 13.4594C6.1074 13.4594 5.45437 14.1124 5.45437 14.918V16.0436C5.45437 16.3785 5.72587 16.65 6.06078 16.65H7.76514C8.10006 16.65 8.37156 16.3785 8.37156 16.0436V14.918C8.37156 14.1124 7.71852 13.4594 6.91296 13.4594Z" stroke="url(#paint40_linear_28327_3476)" stroke-width="0.3"/>
<path d="M6.91296 13.4594C6.1074 13.4594 5.45437 14.1124 5.45437 14.918V16.0436C5.45437 16.3785 5.72587 16.65 6.06078 16.65H7.76514C8.10006 16.65 8.37156 16.3785 8.37156 16.0436V14.918C8.37156 14.1124 7.71852 13.4594 6.91296 13.4594Z" stroke="url(#paint41_linear_28327_3476)" stroke-width="0.3"/>
</g>
<path fill-rule="evenodd" clip-rule="evenodd" d="M7.08554 14.7357C7.63709 14.7642 8.06116 15.2343 8.03273 15.7859C7.95681 17.2588 7.25024 18.2372 6.38277 18.8141C5.56362 19.3589 4.64294 19.5235 4.04968 19.5235C3.4974 19.5235 3.04968 19.0757 3.04968 18.5235C3.04968 17.9712 3.4974 17.5235 4.04968 17.5235C4.33924 17.5235 4.85215 17.4302 5.27519 17.1488C5.64991 16.8996 5.99412 16.4834 6.03538 15.6829C6.06381 15.1314 6.53398 14.7073 7.08554 14.7357Z" fill="url(#paint42_linear_28327_3476)"/>
<path fill-rule="evenodd" clip-rule="evenodd" d="M7.08554 14.7357C7.63709 14.7642 8.06116 15.2343 8.03273 15.7859C7.95681 17.2588 7.25024 18.2372 6.38277 18.8141C5.56362 19.3589 4.64294 19.5235 4.04968 19.5235C3.4974 19.5235 3.04968 19.0757 3.04968 18.5235C3.04968 17.9712 3.4974 17.5235 4.04968 17.5235C4.33924 17.5235 4.85215 17.4302 5.27519 17.1488C5.64991 16.8996 5.99412 16.4834 6.03538 15.6829C6.06381 15.1314 6.53398 14.7073 7.08554 14.7357Z" fill="url(#paint43_linear_28327_3476)"/>
<path fill-rule="evenodd" clip-rule="evenodd" d="M7.08554 14.7357C7.63709 14.7642 8.06116 15.2343 8.03273 15.7859C7.95681 17.2588 7.25024 18.2372 6.38277 18.8141C5.56362 19.3589 4.64294 19.5235 4.04968 19.5235C3.4974 19.5235 3.04968 19.0757 3.04968 18.5235C3.04968 17.9712 3.4974 17.5235 4.04968 17.5235C4.33924 17.5235 4.85215 17.4302 5.27519 17.1488C5.64991 16.8996 5.99412 16.4834 6.03538 15.6829C6.06381 15.1314 6.53398 14.7073 7.08554 14.7357Z" fill="url(#paint44_radial_28327_3476)"/>
<g filter="url(#filter5_f_28327_3476)">
<path d="M11.5731 5.39062C13.719 5.66146 18.0606 7.46562 18.2606 12.5156" stroke="url(#paint45_linear_28327_3476)" stroke-width="0.5" stroke-linecap="round"/>
</g>
<g filter="url(#filter6_f_28327_3476)">
<path d="M10.5106 5.07812V12.5156" stroke="url(#paint46_linear_28327_3476)" stroke-width="0.25" stroke-linecap="round"/>
</g>
<g filter="url(#filter7_f_28327_3476)">
<path d="M3.94812 18.9531V21.3281C3.94812 22.1566 4.61969 22.8281 5.44812 22.8281H5.85437" stroke="url(#paint47_linear_28327_3476)" stroke-opacity="0.75" stroke-width="0.75" stroke-linecap="round"/>
</g>
<g filter="url(#filter8_f_28327_3476)">
<path d="M3.94812 18.4219C4.9325 18.4219 6.54187 17.6625 6.72937 16" stroke="#EDE7F5" stroke-width="0.4" stroke-linecap="round"/>
</g>
<path d="M5.60437 14.918C5.60437 14.1953 6.19025 13.6094 6.91296 13.6094C7.63568 13.6094 8.22156 14.1953 8.22156 14.918V16.0436C8.22156 16.2957 8.01721 16.5 7.76514 16.5H6.06078C5.80871 16.5 5.60437 16.2957 5.60437 16.0436V14.918Z" fill="#ACAAB5"/>
<path d="M5.60437 14.918C5.60437 14.1953 6.19025 13.6094 6.91296 13.6094C7.63568 13.6094 8.22156 14.1953 8.22156 14.918V16.0436C8.22156 16.2957 8.01721 16.5 7.76514 16.5H6.06078C5.80871 16.5 5.60437 16.2957 5.60437 16.0436V14.918Z" fill="url(#paint48_linear_28327_3476)"/>
<path d="M5.60437 14.918C5.60437 14.1953 6.19025 13.6094 6.91296 13.6094C7.63568 13.6094 8.22156 14.1953 8.22156 14.918V16.0436C8.22156 16.2957 8.01721 16.5 7.76514 16.5H6.06078C5.80871 16.5 5.60437 16.2957 5.60437 16.0436V14.918Z" fill="url(#paint49_linear_28327_3476)"/>
<path d="M5.60437 14.918C5.60437 14.1953 6.19025 13.6094 6.91296 13.6094C7.63568 13.6094 8.22156 14.1953 8.22156 14.918V16.0436C8.22156 16.2957 8.01721 16.5 7.76514 16.5H6.06078C5.80871 16.5 5.60437 16.2957 5.60437 16.0436V14.918Z" fill="url(#paint50_radial_28327_3476)"/>
<path d="M5.60437 14.918C5.60437 14.1953 6.19025 13.6094 6.91296 13.6094C7.63568 13.6094 8.22156 14.1953 8.22156 14.918V16.0436C8.22156 16.2957 8.01721 16.5 7.76514 16.5H6.06078C5.80871 16.5 5.60437 16.2957 5.60437 16.0436V14.918Z" fill="url(#paint51_linear_28327_3476)"/>
<path d="M5.60437 14.918C5.60437 14.1953 6.19025 13.6094 6.91296 13.6094C7.63568 13.6094 8.22156 14.1953 8.22156 14.918V16.0436C8.22156 16.2957 8.01721 16.5 7.76514 16.5H6.06078C5.80871 16.5 5.60437 16.2957 5.60437 16.0436V14.918Z" fill="url(#paint52_linear_28327_3476)" fill-opacity="0.5"/>
<g filter="url(#filter9_f_28327_3476)">
<path d="M7.0813 14.5311C7.0813 14.4017 7.18615 14.2969 7.31549 14.2969C7.44483 14.2969 7.54968 14.4017 7.54968 14.5311V16H7.0813V14.5311Z" fill="#B8B4C2"/>
</g>
<g filter="url(#filter10_f_28327_3476)">
<rect x="6.4989" y="10.7852" width="0.207031" height="1.32422" rx="0.103516" fill="#87747C"/>
</g>
<g filter="url(#filter11_f_28327_3476)">
<rect x="16.6591" y="21.2656" width="1.28906" height="5.40625" fill="url(#paint53_linear_28327_3476)"/>
</g>
<g filter="url(#filter12_f_28327_3476)">
<path d="M12.4169 21.0156L8.91687 26.2031H11.1356L15.2294 20.2969L12.4169 21.0156Z" fill="url(#paint54_linear_28327_3476)"/>
</g>
</g>
<defs>
<filter id="filter0_i_28327_3476" x="21.5891" y="20.3492" width="7.45907" height="7.06484" filterUnits="userSpaceOnUse" color-interpolation-filters="sRGB">
<feFlood flood-opacity="0" result="BackgroundImageFix"/>
<feBlend mode="normal" in="SourceGraphic" in2="BackgroundImageFix" result="shape"/>
<feColorMatrix in="SourceAlpha" type="matrix" values="0 0 0 0 0 0 0 0 0 0 0 0 0 0 0 0 0 0 127 0" result="hardAlpha"/>
<feOffset dx="0.1" dy="-0.1"/>
<feGaussianBlur stdDeviation="0.25"/>
<feComposite in2="hardAlpha" operator="arithmetic" k2="-1" k3="1"/>
<feColorMatrix type="matrix" values="0 0 0 0 0.631373 0 0 0 0 0.607843 0 0 0 0 0.67451 0 0 0 1 0"/>
<feBlend mode="normal" in2="shape" result="effect1_innerShadow_28327_3476"/>
</filter>
<filter id="filter1_f_28327_3476" x="3.0575" y="13.6406" width="3.4375" height="5.125" filterUnits="userSpaceOnUse" color-interpolation-filters="sRGB">
<feFlood flood-opacity="0" result="BackgroundImageFix"/>
<feBlend mode="normal" in="SourceGraphic" in2="BackgroundImageFix" result="shape"/>
<feGaussianBlur stdDeviation="0.5" result="effect1_foregroundBlur_28327_3476"/>
</filter>
<filter id="filter2_f_28327_3476" x="8.8575" y="4.21016" width="10.9786" height="10.9898" filterUnits="userSpaceOnUse" color-interpolation-filters="sRGB">
<feFlood flood-opacity="0" result="BackgroundImageFix"/>
<feBlend mode="normal" in="SourceGraphic" in2="BackgroundImageFix" result="shape"/>
<feGaussianBlur stdDeviation="0.6" result="effect1_foregroundBlur_28327_3476"/>
</filter>
<filter id="filter3_f_28327_3476" x="11.4481" y="4.05469" width="19.2422" height="24.5234" filterUnits="userSpaceOnUse" color-interpolation-filters="sRGB">
<feFlood flood-opacity="0" result="BackgroundImageFix"/>
<feBlend mode="normal" in="SourceGraphic" in2="BackgroundImageFix" result="shape"/>
<feGaussianBlur stdDeviation="1" result="effect1_foregroundBlur_28327_3476"/>
</filter>
<filter id="filter4_f_28327_3476" x="4.90438" y="12.9094" width="4.01716" height="4.2906" filterUnits="userSpaceOnUse" color-interpolation-filters="sRGB">
<feFlood flood-opacity="0" result="BackgroundImageFix"/>
<feBlend mode="normal" in="SourceGraphic" in2="BackgroundImageFix" result="shape"/>
<feGaussianBlur stdDeviation="0.2" result="effect1_foregroundBlur_28327_3476"/>
</filter>
<filter id="filter5_f_28327_3476" x="10.5731" y="4.39062" width="8.6875" height="9.125" filterUnits="userSpaceOnUse" color-interpolation-filters="sRGB">
<feFlood flood-opacity="0" result="BackgroundImageFix"/>
<feBlend mode="normal" in="SourceGraphic" in2="BackgroundImageFix" result="shape"/>
<feGaussianBlur stdDeviation="0.375" result="effect1_foregroundBlur_28327_3476"/>
</filter>
<filter id="filter6_f_28327_3476" x="9.88562" y="4.45312" width="1.25" height="8.6875" filterUnits="userSpaceOnUse" color-interpolation-filters="sRGB">
<feFlood flood-opacity="0" result="BackgroundImageFix"/>
<feBlend mode="normal" in="SourceGraphic" in2="BackgroundImageFix" result="shape"/>
<feGaussianBlur stdDeviation="0.25" result="effect1_foregroundBlur_28327_3476"/>
</filter>
<filter id="filter7_f_28327_3476" x="2.77312" y="17.7781" width="4.25625" height="6.225" filterUnits="userSpaceOnUse" color-interpolation-filters="sRGB">
<feFlood flood-opacity="0" result="BackgroundImageFix"/>
<feBlend mode="normal" in="SourceGraphic" in2="BackgroundImageFix" result="shape"/>
<feGaussianBlur stdDeviation="0.4" result="effect1_foregroundBlur_28327_3476"/>
</filter>
<filter id="filter8_f_28327_3476" x="3.14811" y="15.2" width="4.38127" height="4.0219" filterUnits="userSpaceOnUse" color-interpolation-filters="sRGB">
<feFlood flood-opacity="0" result="BackgroundImageFix"/>
<feBlend mode="normal" in="SourceGraphic" in2="BackgroundImageFix" result="shape"/>
<feGaussianBlur stdDeviation="0.3" result="effect1_foregroundBlur_28327_3476"/>
</filter>
<filter id="filter9_f_28327_3476" x="6.4813" y="13.6969" width="1.66838" height="2.90313" filterUnits="userSpaceOnUse" color-interpolation-filters="sRGB">
<feFlood flood-opacity="0" result="BackgroundImageFix"/>
<feBlend mode="normal" in="SourceGraphic" in2="BackgroundImageFix" result="shape"/>
<feGaussianBlur stdDeviation="0.3" result="effect1_foregroundBlur_28327_3476"/>
</filter>
<filter id="filter10_f_28327_3476" x="5.9989" y="10.2852" width="1.20703" height="2.32422" filterUnits="userSpaceOnUse" color-interpolation-filters="sRGB">
<feFlood flood-opacity="0" result="BackgroundImageFix"/>
<feBlend mode="normal" in="SourceGraphic" in2="BackgroundImageFix" result="shape"/>
<feGaussianBlur stdDeviation="0.25" result="effect1_foregroundBlur_28327_3476"/>
</filter>
<filter id="filter11_f_28327_3476" x="15.8591" y="20.4656" width="2.88906" height="7.00625" filterUnits="userSpaceOnUse" color-interpolation-filters="sRGB">
<feFlood flood-opacity="0" result="BackgroundImageFix"/>
<feBlend mode="normal" in="SourceGraphic" in2="BackgroundImageFix" result="shape"/>
<feGaussianBlur stdDeviation="0.4" result="effect1_foregroundBlur_28327_3476"/>
</filter>
<filter id="filter12_f_28327_3476" x="7.91687" y="19.2969" width="8.3125" height="7.90625" filterUnits="userSpaceOnUse" color-interpolation-filters="sRGB">
<feFlood flood-opacity="0" result="BackgroundImageFix"/>
<feBlend mode="normal" in="SourceGraphic" in2="BackgroundImageFix" result="shape"/>
<feGaussianBlur stdDeviation="0.5" result="effect1_foregroundBlur_28327_3476"/>
</filter>
<linearGradient id="paint0_linear_28327_3476" x1="25.507" y1="28.2266" x2="25.507" y2="25.4766" gradientUnits="userSpaceOnUse">
<stop stop-color="#7249A0"/>
<stop offset="0.659091" stop-color="#7F56AE" stop-opacity="0"/>
</linearGradient>
<linearGradient id="paint1_linear_28327_3476" x1="25.2686" y1="21.3594" x2="25.2686" y2="24.4219" gradientUnits="userSpaceOnUse">
<stop stop-color="#685A7B"/>
<stop offset="1" stop-color="#786A8C" stop-opacity="0"/>
</linearGradient>
<radialGradient id="paint2_radial_28327_3476" cx="0" cy="0" r="1" gradientUnits="userSpaceOnUse" gradientTransform="translate(15.6981 25.7656) rotate(68.9273) scale(7.30074 8.43237)">
<stop stop-color="#9F99AC"/>
<stop offset="1" stop-color="#685A7C"/>
</radialGradient>
<linearGradient id="paint3_linear_28327_3476" x1="16.6642" y1="28.5781" x2="16.6642" y2="26.463" gradientUnits="userSpaceOnUse">
<stop stop-color="#7249A0"/>
<stop offset="1" stop-color="#7F56AE" stop-opacity="0"/>
</linearGradient>
<linearGradient id="paint4_linear_28327_3476" x1="18.5731" y1="19.7344" x2="17.2919" y2="23.1719" gradientUnits="userSpaceOnUse">
<stop offset="0.152856" stop-color="#6B5B7F"/>
<stop offset="1" stop-color="#6B5B7F" stop-opacity="0"/>
</linearGradient>
<linearGradient id="paint5_linear_28327_3476" x1="13.3856" y1="27.4531" x2="15.2606" y2="27.4531" gradientUnits="userSpaceOnUse">
<stop stop-color="#BCBAC3"/>
<stop offset="1" stop-color="#BCBAC3" stop-opacity="0"/>
</linearGradient>
<linearGradient id="paint6_linear_28327_3476" x1="31.3857" y1="20.6016" x2="27.6357" y2="20.6016" gradientUnits="userSpaceOnUse">
<stop stop-color="#ACADAF"/>
<stop offset="1" stop-color="#ACADAF" stop-opacity="0"/>
</linearGradient>
<linearGradient id="paint7_linear_28327_3476" x1="22.1982" y1="3.66406" x2="22.1982" y2="7.44531" gradientUnits="userSpaceOnUse">
<stop stop-color="#ACADAF"/>
<stop offset="1" stop-color="#ACADAF" stop-opacity="0"/>
</linearGradient>
<linearGradient id="paint8_linear_28327_3476" x1="25.8232" y1="5.10156" x2="24.3232" y2="8.13281" gradientUnits="userSpaceOnUse">
<stop stop-color="#ACADAF"/>
<stop offset="1" stop-color="#ACADAF" stop-opacity="0"/>
</linearGradient>
<radialGradient id="paint9_radial_28327_3476" cx="0" cy="0" r="1" gradientUnits="userSpaceOnUse" gradientTransform="translate(11.3232 6.50781) rotate(-153.48) scale(4.47039 3.26038)">
<stop stop-color="#ACADAF"/>
<stop offset="1" stop-color="#ACADAF" stop-opacity="0"/>
</radialGradient>
<linearGradient id="paint10_linear_28327_3476" x1="0.823181" y1="11.5391" x2="3.13568" y2="11.5391" gradientUnits="userSpaceOnUse">
<stop stop-color="#CBCCCF"/>
<stop offset="1" stop-color="#CBCCCF" stop-opacity="0"/>
</linearGradient>
<radialGradient id="paint11_radial_28327_3476" cx="0" cy="0" r="1" gradientUnits="userSpaceOnUse" gradientTransform="translate(1.79193 6.32031) rotate(41.8396) scale(3.60731 4.63728)">
<stop stop-color="#CBCCCF"/>
<stop offset="0.810456" stop-color="#CBCCCF" stop-opacity="0"/>
</radialGradient>
<radialGradient id="paint12_radial_28327_3476" cx="0" cy="0" r="1" gradientUnits="userSpaceOnUse" gradientTransform="translate(6.16693 19.8203) rotate(-54.4862) scale(4.35747 2.61012)">
<stop stop-color="#7F56AE"/>
<stop offset="1" stop-color="#7F56AE" stop-opacity="0"/>
</radialGradient>
<radialGradient id="paint13_radial_28327_3476" cx="0" cy="0" r="1" gradientUnits="userSpaceOnUse" gradientTransform="translate(12.7607 11.2891) rotate(142.082) scale(7.60557 6.58426)">
<stop stop-color="#918B9E"/>
<stop offset="1" stop-color="#918B9E" stop-opacity="0"/>
</radialGradient>
<radialGradient id="paint14_radial_28327_3476" cx="0" cy="0" r="1" gradientUnits="userSpaceOnUse" gradientTransform="translate(7.07318 18.7266) rotate(-62.549) scale(5.42311 3.69847)">
<stop stop-color="#918B9E"/>
<stop offset="1" stop-color="#918B9E" stop-opacity="0"/>
</radialGradient>
<radialGradient id="paint15_radial_28327_3476" cx="0" cy="0" r="1" gradientUnits="userSpaceOnUse" gradientTransform="translate(6.76068 19.8906) rotate(-36.8016) scale(6.55665 4.47152)">
<stop stop-color="#918B9E"/>
<stop offset="1" stop-color="#918B9E" stop-opacity="0"/>
</radialGradient>
<linearGradient id="paint16_linear_28327_3476" x1="16.9055" y1="28.5781" x2="16.9055" y2="24.7656" gradientUnits="userSpaceOnUse">
<stop stop-color="#7249A0"/>
<stop offset="0.573771" stop-color="#7F56AE" stop-opacity="0"/>
</linearGradient>
<radialGradient id="paint17_radial_28327_3476" cx="0" cy="0" r="1" gradientUnits="userSpaceOnUse" gradientTransform="translate(17.8857 27.4141) rotate(-125.725) scale(6.95764 9.37374)">
<stop stop-color="#7249A0"/>
<stop offset="1" stop-color="#7F56AE" stop-opacity="0"/>
</radialGradient>
<radialGradient id="paint18_radial_28327_3476" cx="0" cy="0" r="1" gradientUnits="userSpaceOnUse" gradientTransform="translate(20.6357 22.5156) rotate(-90) scale(5.5 6.375)">
<stop stop-color="#918B9E"/>
<stop offset="1" stop-color="#918B9E" stop-opacity="0"/>
</radialGradient>
<radialGradient id="paint19_radial_28327_3476" cx="0" cy="0" r="1" gradientUnits="userSpaceOnUse" gradientTransform="translate(15.6669 25.6406) rotate(-142.079) scale(3.40682 8.9662)">
<stop offset="0.337839" stop-color="#918B9E"/>
<stop offset="1" stop-color="#918B9E" stop-opacity="0"/>
</radialGradient>
<radialGradient id="paint20_radial_28327_3476" cx="0" cy="0" r="1" gradientUnits="userSpaceOnUse" gradientTransform="translate(20.3857 23.2656) rotate(-134.663) scale(6.23902 4.17505)">
<stop offset="0.12" stop-color="#7249A0"/>
<stop offset="0.885837" stop-color="#7F56AE" stop-opacity="0"/>
</radialGradient>
<radialGradient id="paint21_radial_28327_3476" cx="0" cy="0" r="1" gradientUnits="userSpaceOnUse" gradientTransform="translate(20.9169 21.9844) rotate(-90) scale(2.84375 4.46875)">
<stop offset="0.12" stop-color="#7249A0"/>
<stop offset="1" stop-color="#7F56AE" stop-opacity="0"/>
</radialGradient>
<radialGradient id="paint22_radial_28327_3476" cx="0" cy="0" r="1" gradientUnits="userSpaceOnUse" gradientTransform="translate(6.07318 26.75) rotate(-33.3741) scale(2.35751 1.64758)">
<stop stop-color="#C9C7D0"/>
<stop offset="0.780628" stop-color="#C9C7D0" stop-opacity="0"/>
</radialGradient>
<linearGradient id="paint23_linear_28327_3476" x1="4.54187" y1="17.4844" x2="6.49058" y2="16.0951" gradientUnits="userSpaceOnUse">
<stop stop-color="#AEACB7"/>
<stop offset="1" stop-color="#C0B8D0" stop-opacity="0"/>
</linearGradient>
<linearGradient id="paint24_linear_28327_3476" x1="7.03406" y1="11.5117" x2="6.45068" y2="11.5117" gradientUnits="userSpaceOnUse">
<stop offset="0.225" stop-color="#594C4F"/>
<stop offset="1" stop-color="#392833"/>
</linearGradient>
<linearGradient id="paint25_linear_28327_3476" x1="7.19153" y1="12.5368" x2="7.19153" y2="11.601" gradientUnits="userSpaceOnUse">
<stop stop-color="#552D52"/>
<stop offset="1" stop-color="#552D52" stop-opacity="0"/>
</linearGradient>
<linearGradient id="paint26_linear_28327_3476" x1="5.69285" y1="11.9813" x2="6.38725" y2="11.9813" gradientUnits="userSpaceOnUse">
<stop stop-color="#594C4F"/>
<stop offset="1" stop-color="#594C4F" stop-opacity="0"/>
</linearGradient>
<radialGradient id="paint27_radial_28327_3476" cx="0" cy="0" r="1" gradientUnits="userSpaceOnUse" gradientTransform="translate(6.72625 11.631) rotate(-109.696) scale(1.15346 1.13149)">
<stop offset="0.813951" stop-color="#594C4F" stop-opacity="0"/>
<stop offset="1" stop-color="#594C4F"/>
</radialGradient>
<linearGradient id="paint28_linear_28327_3476" x1="26.3231" y1="27.8281" x2="10.3856" y2="0.703125" gradientUnits="userSpaceOnUse">
<stop stop-color="#CDCCD5"/>
<stop offset="1" stop-color="#CDCCD5" stop-opacity="0"/>
</linearGradient>
<linearGradient id="paint29_linear_28327_3476" x1="14.5341" y1="5.35938" x2="14.5341" y2="13.5156" gradientUnits="userSpaceOnUse">
<stop stop-color="#E5E0EA"/>
<stop offset="1" stop-color="#DACEE6"/>
</linearGradient>
<linearGradient id="paint30_linear_28327_3476" x1="14.5341" y1="18.5156" x2="14.5341" y2="12.0781" gradientUnits="userSpaceOnUse">
<stop stop-color="#BA9CDC"/>
<stop offset="1" stop-color="#BA9CDC" stop-opacity="0"/>
</linearGradient>
<linearGradient id="paint31_linear_28327_3476" x1="9.62" y1="10.2969" x2="10.4091" y2="10.2969" gradientUnits="userSpaceOnUse">
<stop stop-color="#B3AEBB"/>
<stop offset="1" stop-color="#B3AEBB" stop-opacity="0"/>
</linearGradient>
<linearGradient id="paint32_linear_28327_3476" x1="5.35443" y1="24.4844" x2="5.35443" y2="15.8906" gradientUnits="userSpaceOnUse">
<stop stop-color="#A79FB8"/>
<stop offset="1" stop-color="#B0ACBC"/>
</linearGradient>
<linearGradient id="paint33_linear_28327_3476" x1="1.10443" y1="18.4192" x2="3.10443" y2="18.4192" gradientUnits="userSpaceOnUse">
<stop stop-color="#CBCCCF"/>
<stop offset="1" stop-color="#CBCCCF" stop-opacity="0"/>
</linearGradient>
<radialGradient id="paint34_radial_28327_3476" cx="0" cy="0" r="1" gradientUnits="userSpaceOnUse" gradientTransform="translate(5.33881 27.4688) rotate(-98.4123) scale(4.48576 4.34702)">
<stop stop-color="#7F56AE"/>
<stop offset="1" stop-color="#7F56AE" stop-opacity="0"/>
</radialGradient>
<radialGradient id="paint35_radial_28327_3476" cx="0" cy="0" r="1" gradientUnits="userSpaceOnUse" gradientTransform="translate(4.08881 19.0469) rotate(142.125) scale(1.06891 1.21829)">
<stop stop-color="#7F56AE"/>
<stop offset="1" stop-color="#7F56AE" stop-opacity="0"/>
</radialGradient>
<radialGradient id="paint36_radial_28327_3476" cx="0" cy="0" r="1" gradientUnits="userSpaceOnUse" gradientTransform="translate(5.88568 20.7031) rotate(150.866) scale(2.18236 2.43429)">
<stop stop-color="#85828E"/>
<stop offset="0.958797" stop-color="#85828E" stop-opacity="0"/>
</radialGradient>
<radialGradient id="paint37_radial_28327_3476" cx="0" cy="0" r="1" gradientUnits="userSpaceOnUse" gradientTransform="translate(7.47943 22.9844) rotate(180) scale(1.75 1.95202)">
<stop stop-color="#85828E"/>
<stop offset="1" stop-color="#85828E" stop-opacity="0"/>
</radialGradient>
<radialGradient id="paint38_radial_28327_3476" cx="0" cy="0" r="1" gradientUnits="userSpaceOnUse" gradientTransform="translate(5.88568 18.6406) rotate(146.143) scale(2.97286 1.84224)">
<stop stop-color="#85828E"/>
<stop offset="1" stop-color="#85828E" stop-opacity="0"/>
</radialGradient>
<radialGradient id="paint39_radial_28327_3476" cx="0" cy="0" r="1" gradientUnits="userSpaceOnUse" gradientTransform="translate(5.69818 18.3906) rotate(-157.557) scale(3.11059 1.03352)">
<stop offset="0.34568" stop-color="#6E6380"/>
<stop offset="0.983208" stop-color="#6E6380" stop-opacity="0"/>
</radialGradient>
<linearGradient id="paint40_linear_28327_3476" x1="8.6825" y1="14.125" x2="6.91296" y2="14.9688" gradientUnits="userSpaceOnUse">
<stop stop-color="#C7C1D7"/>
<stop offset="1" stop-color="#B9B4C5" stop-opacity="0"/>
</linearGradient>
<linearGradient id="paint41_linear_28327_3476" x1="5.21375" y1="14.4687" x2="6.01062" y2="14.8594" gradientUnits="userSpaceOnUse">
<stop stop-color="#C7C1D7"/>
<stop offset="1" stop-color="#B9B4C5" stop-opacity="0"/>
</linearGradient>
<linearGradient id="paint42_linear_28327_3476" x1="5.15125" y1="17.3125" x2="6.47937" y2="19.4063" gradientUnits="userSpaceOnUse">
<stop stop-color="#D5D0DB"/>
<stop offset="1" stop-color="#CABADB"/>
</linearGradient>
<linearGradient id="paint43_linear_28327_3476" x1="2.91687" y1="18.8516" x2="3.47156" y2="18.8516" gradientUnits="userSpaceOnUse">
<stop stop-color="#E8E4ED"/>
<stop offset="1" stop-color="#E8E4ED" stop-opacity="0"/>
</linearGradient>
<radialGradient id="paint44_radial_28327_3476" cx="0" cy="0" r="1" gradientUnits="userSpaceOnUse" gradientTransform="translate(5.13562 16.9531) rotate(54.7667) scale(2.73549 4.24782)">
<stop offset="0.717292" stop-color="#B9A9CB" stop-opacity="0"/>
<stop offset="0.961599" stop-color="#B9A9CB"/>
</radialGradient>
<linearGradient id="paint45_linear_28327_3476" x1="18.7294" y1="12.9219" x2="11.3231" y2="5.01563" gradientUnits="userSpaceOnUse">
<stop stop-color="#F9F5FF"/>
<stop offset="1" stop-color="#F9F5FF" stop-opacity="0"/>
</linearGradient>
<linearGradient id="paint46_linear_28327_3476" x1="10.4732" y1="11.5781" x2="8.61301" y2="11.0328" gradientUnits="userSpaceOnUse">
<stop stop-color="#F9F5FF" stop-opacity="0"/>
<stop offset="1" stop-color="#F9F5FF"/>
</linearGradient>
<linearGradient id="paint47_linear_28327_3476" x1="5.13287" y1="23.0975" x2="4.0972" y2="19.4673" gradientUnits="userSpaceOnUse">
<stop stop-color="#CDCCD5"/>
<stop offset="1" stop-color="#CDCCD5" stop-opacity="0"/>
</linearGradient>
<linearGradient id="paint48_linear_28327_3476" x1="6.91296" y1="16.5" x2="6.91296" y2="16.0781" gradientUnits="userSpaceOnUse">
<stop stop-color="#887D99"/>
<stop offset="1" stop-color="#887D99" stop-opacity="0"/>
</linearGradient>
<linearGradient id="paint49_linear_28327_3476" x1="8.54187" y1="16.5" x2="7.32312" y2="16.5" gradientUnits="userSpaceOnUse">
<stop stop-color="#8A8696"/>
<stop offset="1" stop-color="#928E9E" stop-opacity="0"/>
</linearGradient>
<radialGradient id="paint50_radial_28327_3476" cx="0" cy="0" r="1" gradientUnits="userSpaceOnUse" gradientTransform="translate(6.91296 15.6484) rotate(-79.5044) scale(1.9943 1.60843)">
<stop offset="0.713262" stop-color="#A9A7B3" stop-opacity="0"/>
<stop offset="1" stop-color="#A9A7B3"/>
</radialGradient>
<linearGradient id="paint51_linear_28327_3476" x1="5.35437" y1="16.3906" x2="6.47937" y2="16.3906" gradientUnits="userSpaceOnUse">
<stop stop-color="#BAB9C2"/>
<stop offset="1" stop-color="#ACABB3" stop-opacity="0"/>
</linearGradient>
<linearGradient id="paint52_linear_28327_3476" x1="6.91296" y1="13.4844" x2="6.91296" y2="14.6094" gradientUnits="userSpaceOnUse">
<stop stop-color="#9A97A7"/>
<stop offset="1" stop-color="#A9A7B2" stop-opacity="0"/>
</linearGradient>
<linearGradient id="paint53_linear_28327_3476" x1="17.9481" y1="26.6719" x2="17.9481" y2="20.8594" gradientUnits="userSpaceOnUse">
<stop stop-color="#A99FBA"/>
<stop offset="1" stop-color="#A99FBA" stop-opacity="0"/>
</linearGradient>
<linearGradient id="paint54_linear_28327_3476" x1="10.1981" y1="26.2031" x2="14.3231" y2="19.8594" gradientUnits="userSpaceOnUse">
<stop stop-color="#C0B8D0"/>
<stop offset="1" stop-color="#C0B8D0" stop-opacity="0"/>
</linearGradient>
<clipPath id="clip0_28327_3476">
<rect width="32" height="32" fill="white"/>
</clipPath>
</defs>
</svg>
