<svg width="32" height="32" viewBox="0 0 32 32" fill="none" xmlns="http://www.w3.org/2000/svg">
<g clip-path="url(#clip0_7161_6142)">
<path d="M29.5987 16.5156C27.88 12.6875 23.3143 8 16.1456 8C8.95699 8 4.39853 12.2013 2.4581 16.2656C1.9878 17.2507 2.07461 18.7798 2.5831 19.6406C4.3956 23.3906 8.93006 27.625 16.0987 27.625C17.0595 27.625 18.0332 27.5189 18.9084 27.3682C19.3632 27.2899 19.8337 27.3494 20.2405 27.5673C21.4063 28.1919 22.5778 28.8692 24.072 29.7073C24.5306 29.9646 24.9255 29.6807 24.8956 29.1562L24.6695 25.7402C24.6352 25.2217 24.8737 24.7247 25.2893 24.4128C27.3928 22.8339 28.1774 21.806 29.3644 19.8906C29.8928 19.0397 30.0206 17.5625 29.5987 16.5156Z" fill="url(#paint0_radial_7161_6142)"/>
<path d="M29.5987 16.5156C27.88 12.6875 23.3143 8 16.1456 8C8.95699 8 4.39853 12.2013 2.4581 16.2656C1.9878 17.2507 2.07461 18.7798 2.5831 19.6406C4.3956 23.3906 8.93006 27.625 16.0987 27.625C17.0595 27.625 18.0332 27.5189 18.9084 27.3682C19.3632 27.2899 19.8337 27.3494 20.2405 27.5673C21.4063 28.1919 22.5778 28.8692 24.072 29.7073C24.5306 29.9646 24.9255 29.6807 24.8956 29.1562L24.6695 25.7402C24.6352 25.2217 24.8737 24.7247 25.2893 24.4128C27.3928 22.8339 28.1774 21.806 29.3644 19.8906C29.8928 19.0397 30.0206 17.5625 29.5987 16.5156Z" fill="url(#paint1_radial_7161_6142)"/>
<path d="M29.5987 16.5156C27.88 12.6875 23.3143 8 16.1456 8C8.95699 8 4.39853 12.2013 2.4581 16.2656C1.9878 17.2507 2.07461 18.7798 2.5831 19.6406C4.3956 23.3906 8.93006 27.625 16.0987 27.625C17.0595 27.625 18.0332 27.5189 18.9084 27.3682C19.3632 27.2899 19.8337 27.3494 20.2405 27.5673C21.4063 28.1919 22.5778 28.8692 24.072 29.7073C24.5306 29.9646 24.9255 29.6807 24.8956 29.1562L24.6695 25.7402C24.6352 25.2217 24.8737 24.7247 25.2893 24.4128C27.3928 22.8339 28.1774 21.806 29.3644 19.8906C29.8928 19.0397 30.0206 17.5625 29.5987 16.5156Z" fill="url(#paint2_radial_7161_6142)"/>
<circle cx="16" cy="17.7969" r="6.64062" fill="url(#paint3_linear_7161_6142)"/>
<g filter="url(#filter0_f_7161_6142)">
<circle cx="15.3125" cy="18.9019" r="3.83061" fill="#C9C5CC"/>
</g>
<circle cx="16" cy="17.7969" r="3.83061" fill="url(#paint4_radial_7161_6142)"/>
<circle cx="16" cy="17.7969" r="3.83061" fill="url(#paint5_radial_7161_6142)" fill-opacity="0.4"/>
<g filter="url(#filter1_f_7161_6142)">
<ellipse cx="23.8168" cy="16.7031" rx="5.29624" ry="3.48438" fill="url(#paint6_radial_7161_6142)"/>
</g>
<g filter="url(#filter2_f_7161_6142)">
<path d="M22.6768 26.4375L24.4268 29.0156L24.1768 24.9375L22.6768 26.4375Z" fill="url(#paint7_linear_7161_6142)"/>
</g>
<g filter="url(#filter3_f_7161_6142)">
<path d="M20.4249 27.125C20.8832 26.9102 22.3069 26.1969 24.3351 25.0625" stroke="url(#paint8_linear_7161_6142)" stroke-width="0.25" stroke-linecap="round"/>
</g>
<g filter="url(#filter4_f_7161_6142)">
<path d="M8.05185 25.125C12.0518 27.6875 18.0143 27.6857 20.6143 26.5857" stroke="url(#paint9_linear_7161_6142)" stroke-width="0.2"/>
</g>
<g filter="url(#filter5_f_7161_6142)">
<path d="M24.9737 24.2656C24.8487 24.4062 24.3956 24.8047 23.9737 25.0625" stroke="#9D86A5" stroke-opacity="0.5" stroke-width="0.2"/>
</g>
</g>
<defs>
<filter id="filter0_f_7161_6142" x="10.4819" y="14.0713" width="9.66122" height="9.66113" filterUnits="userSpaceOnUse" color-interpolation-filters="sRGB">
<feFlood flood-opacity="0" result="BackgroundImageFix"/>
<feBlend mode="normal" in="SourceGraphic" in2="BackgroundImageFix" result="shape"/>
<feGaussianBlur stdDeviation="0.5" result="effect1_foregroundBlur_7161_6142"/>
</filter>
<filter id="filter1_f_7161_6142" x="15.5206" y="10.2188" width="16.5925" height="12.9688" filterUnits="userSpaceOnUse" color-interpolation-filters="sRGB">
<feFlood flood-opacity="0" result="BackgroundImageFix"/>
<feBlend mode="normal" in="SourceGraphic" in2="BackgroundImageFix" result="shape"/>
<feGaussianBlur stdDeviation="1.5" result="effect1_foregroundBlur_7161_6142"/>
</filter>
<filter id="filter2_f_7161_6142" x="21.6768" y="23.9375" width="3.75" height="6.07812" filterUnits="userSpaceOnUse" color-interpolation-filters="sRGB">
<feFlood flood-opacity="0" result="BackgroundImageFix"/>
<feBlend mode="normal" in="SourceGraphic" in2="BackgroundImageFix" result="shape"/>
<feGaussianBlur stdDeviation="0.5" result="effect1_foregroundBlur_7161_6142"/>
</filter>
<filter id="filter3_f_7161_6142" x="19.7999" y="24.4375" width="5.16021" height="3.3125" filterUnits="userSpaceOnUse" color-interpolation-filters="sRGB">
<feFlood flood-opacity="0" result="BackgroundImageFix"/>
<feBlend mode="normal" in="SourceGraphic" in2="BackgroundImageFix" result="shape"/>
<feGaussianBlur stdDeviation="0.25" result="effect1_foregroundBlur_7161_6142"/>
</filter>
<filter id="filter4_f_7161_6142" x="7.49791" y="24.5408" width="13.6554" height="3.34399" filterUnits="userSpaceOnUse" color-interpolation-filters="sRGB">
<feFlood flood-opacity="0" result="BackgroundImageFix"/>
<feBlend mode="normal" in="SourceGraphic" in2="BackgroundImageFix" result="shape"/>
<feGaussianBlur stdDeviation="0.25" result="effect1_foregroundBlur_7161_6142"/>
</filter>
<filter id="filter5_f_7161_6142" x="23.4216" y="23.6992" width="2.12688" height="1.94873" filterUnits="userSpaceOnUse" color-interpolation-filters="sRGB">
<feFlood flood-opacity="0" result="BackgroundImageFix"/>
<feBlend mode="normal" in="SourceGraphic" in2="BackgroundImageFix" result="shape"/>
<feGaussianBlur stdDeviation="0.25" result="effect1_foregroundBlur_7161_6142"/>
</filter>
<radialGradient id="paint0_radial_7161_6142" cx="0" cy="0" r="1" gradientUnits="userSpaceOnUse" gradientTransform="translate(9.1456 9.75) rotate(56.8886) scale(17.1619 32.1981)">
<stop stop-color="#3B3444"/>
<stop offset="1" stop-color="#573561"/>
</radialGradient>
<radialGradient id="paint1_radial_7161_6142" cx="0" cy="0" r="1" gradientUnits="userSpaceOnUse" gradientTransform="translate(31.8956 20.6875) rotate(180) scale(8.6875 14.6875)">
<stop stop-color="#3B3444"/>
<stop offset="1" stop-color="#3D3446" stop-opacity="0"/>
</radialGradient>
<radialGradient id="paint2_radial_7161_6142" cx="0" cy="0" r="1" gradientUnits="userSpaceOnUse" gradientTransform="translate(16 22.3125) rotate(-90) scale(15.375 16.4794)">
<stop offset="0.886179" stop-color="#72667B" stop-opacity="0"/>
<stop offset="1" stop-color="#72667B"/>
</radialGradient>
<linearGradient id="paint3_linear_7161_6142" x1="11.2081" y1="11.8125" x2="18.0206" y2="25.0625" gradientUnits="userSpaceOnUse">
<stop stop-color="#DCDBDF"/>
<stop offset="1" stop-color="#D4D0D7"/>
</linearGradient>
<radialGradient id="paint4_radial_7161_6142" cx="0" cy="0" r="1" gradientUnits="userSpaceOnUse" gradientTransform="translate(12.5206 13.9663) rotate(58.8583) scale(8.21803 14.0051)">
<stop stop-color="#3B3444"/>
<stop offset="1" stop-color="#573561"/>
</radialGradient>
<radialGradient id="paint5_radial_7161_6142" cx="0" cy="0" r="1" gradientUnits="userSpaceOnUse" gradientTransform="translate(21.7706 12.9375) rotate(136.052) scale(8.01506 5.71056)">
<stop stop-color="#DAD8DD"/>
<stop offset="1" stop-color="#DAD8DD" stop-opacity="0"/>
</radialGradient>
<radialGradient id="paint6_radial_7161_6142" cx="0" cy="0" r="1" gradientUnits="userSpaceOnUse" gradientTransform="translate(24.3147 15.7363) rotate(180) scale(6.79584 3.20501)">
<stop stop-color="#DAD8DD" stop-opacity="0.5"/>
<stop offset="1" stop-color="#DAD8DD" stop-opacity="0"/>
</radialGradient>
<linearGradient id="paint7_linear_7161_6142" x1="23.3331" y1="26.0313" x2="24.6143" y2="30.2187" gradientUnits="userSpaceOnUse">
<stop stop-color="#6D5B76"/>
<stop offset="1" stop-color="#6D5B76" stop-opacity="0"/>
</linearGradient>
<linearGradient id="paint8_linear_7161_6142" x1="24.5499" y1="25.5352" x2="20.8546" y2="27.8555" gradientUnits="userSpaceOnUse">
<stop stop-color="#312343" stop-opacity="0"/>
<stop offset="0.291667" stop-color="#312343"/>
<stop offset="0.739583" stop-color="#312343"/>
<stop offset="1" stop-color="#312343" stop-opacity="0"/>
</linearGradient>
<linearGradient id="paint9_linear_7161_6142" x1="19.5987" y1="27.2343" x2="11.1768" y2="27.6406" gradientUnits="userSpaceOnUse">
<stop stop-color="#865994"/>
<stop offset="1" stop-color="#865994" stop-opacity="0"/>
</linearGradient>
<clipPath id="clip0_7161_6142">
<rect width="32" height="32" fill="white"/>
</clipPath>
</defs>
</svg>
