<svg width="32" height="32" viewBox="0 0 32 32" fill="none" xmlns="http://www.w3.org/2000/svg">
<path d="M15.2171 30.0577C15.5282 30.232 15.8985 30.2418 16.2199 30.0871C20.1594 28.1921 26.544 23.1895 29.2264 16.9004C32.6535 8.86524 24.3487 2.53281 18.2581 6.92224C17.6148 7.38584 16.8672 7.97968 16.3467 8.51768C16.1195 8.75247 15.7172 8.77103 15.4747 8.55215C14.7879 7.93223 13.7201 7.16242 12.9941 6.66344C7.84597 3.12483 -0.942792 7.67943 2.71621 16.7684C4.32602 21.7537 11.3944 27.9168 15.2171 30.0577Z" fill="url(#paint0_radial_7000_4934)"/>
<path d="M15.2171 30.0577C15.5282 30.232 15.8985 30.2418 16.2199 30.0871C20.1594 28.1921 26.544 23.1895 29.2264 16.9004C32.6535 8.86524 24.3487 2.53281 18.2581 6.92224C17.6148 7.38584 16.8672 7.97968 16.3467 8.51768C16.1195 8.75247 15.7172 8.77103 15.4747 8.55215C14.7879 7.93223 13.7201 7.16242 12.9941 6.66344C7.84597 3.12483 -0.942792 7.67943 2.71621 16.7684C4.32602 21.7537 11.3944 27.9168 15.2171 30.0577Z" fill="url(#paint1_radial_7000_4934)"/>
<path d="M15.2171 30.0577C15.5282 30.232 15.8985 30.2418 16.2199 30.0871C20.1594 28.1921 26.544 23.1895 29.2264 16.9004C32.6535 8.86524 24.3487 2.53281 18.2581 6.92224C17.6148 7.38584 16.8672 7.97968 16.3467 8.51768C16.1195 8.75247 15.7172 8.77103 15.4747 8.55215C14.7879 7.93223 13.7201 7.16242 12.9941 6.66344C7.84597 3.12483 -0.942792 7.67943 2.71621 16.7684C4.32602 21.7537 11.3944 27.9168 15.2171 30.0577Z" fill="url(#paint2_radial_7000_4934)"/>
<path d="M15.3781 8.47774L15.8532 8.89486C16.289 9.27751 16.9587 9.20918 17.3706 8.80099C18.6442 7.53908 20.8591 6.06428 23.7938 5.59167C21.9902 5.27544 20.0304 5.64485 18.2581 6.92212C17.6148 7.38572 16.8672 7.97956 16.3467 8.51756C16.1195 8.75235 15.7173 8.77091 15.4747 8.55203C15.4433 8.52367 15.4111 8.49499 15.3781 8.46604L15.3781 8.47774Z" fill="url(#paint3_radial_7000_4934)"/>
<g filter="url(#filter0_f_7000_4934)">
<path d="M21.2258 14.1173L24.2087 6.35252C27.5968 6.91721 31.3116 11.348 28.707 16.3631C27.92 17.8784 26.0028 18.2263 24.4366 17.546L21.6737 16.3459L21.2258 14.1173Z" fill="url(#paint4_radial_7000_4934)"/>
</g>
<g filter="url(#filter1_f_7000_4934)">
<path d="M15.8156 12.009L14.3505 17.8333L5.57236 7.09122C12.1974 4.34119 15.8501 9.78212 15.8156 12.009Z" fill="url(#paint5_radial_7000_4934)" fill-opacity="0.6"/>
</g>
<g filter="url(#filter2_f_7000_4934)">
<path d="M16.0031 10.1027V16.884C17.8469 18.8631 20.9505 19.2167 23.0031 16.509C25.9406 12.634 25.9094 8.2902 21.7219 7.25896C18.8956 6.56293 16.7011 9.05062 16.0031 10.1027Z" fill="#FF8CF4" fill-opacity="0.6"/>
</g>
<g filter="url(#filter3_f_7000_4934)">
<path d="M4.30629 11.9777C4.94885 9.29573 8.15003 9.22772 8.74379 9.97772L13.7531 23.8215C5.12814 20.384 3.58753 14.9777 4.30629 11.9777Z" fill="#E65C9C" fill-opacity="0.6"/>
</g>
<path d="M15.3582 27.6275C15.6956 27.8244 16.109 27.8179 16.4482 27.6239C19.4472 25.9085 24.3085 22.2653 26.4017 17.3578C29.1239 10.9751 22.5271 5.945 17.6891 9.43171C17.2092 9.77752 16.6741 10.304 16.2763 10.7613C16.0619 11.0078 15.6623 11.0274 15.4256 10.8023C14.87 10.2741 14.0562 9.60313 13.5077 9.22614C9.4183 6.41527 2.43702 10.0332 5.34351 17.2529C6.50607 20.717 12.2555 25.817 15.3582 27.6275Z" fill="url(#paint6_radial_7000_4934)"/>
<path d="M15.3582 27.6275C15.6956 27.8244 16.109 27.8179 16.4482 27.6239C19.4472 25.9085 24.3085 22.2653 26.4017 17.3578C29.1239 10.9751 22.5271 5.945 17.6891 9.43171C17.2092 9.77752 16.6741 10.304 16.2763 10.7613C16.0619 11.0078 15.6623 11.0274 15.4256 10.8023C14.87 10.2741 14.0562 9.60313 13.5077 9.22614C9.4183 6.41527 2.43702 10.0332 5.34351 17.2529C6.50607 20.717 12.2555 25.817 15.3582 27.6275Z" fill="url(#paint7_radial_7000_4934)"/>
<path d="M15.3582 27.6275C15.6956 27.8244 16.109 27.8179 16.4482 27.6239C19.4472 25.9085 24.3085 22.2653 26.4017 17.3578C29.1239 10.9751 22.5271 5.945 17.6891 9.43171C17.2092 9.77752 16.6741 10.304 16.2763 10.7613C16.0619 11.0078 15.6623 11.0274 15.4256 10.8023C14.87 10.2741 14.0562 9.60313 13.5077 9.22614C9.4183 6.41527 2.43702 10.0332 5.34351 17.2529C6.50607 20.717 12.2555 25.817 15.3582 27.6275Z" fill="url(#paint8_radial_7000_4934)"/>
<path d="M15.3582 27.6275C15.6956 27.8244 16.109 27.8179 16.4482 27.6239C19.4472 25.9085 24.3085 22.2653 26.4017 17.3578C29.1239 10.9751 22.5271 5.945 17.6891 9.43171C17.2092 9.77752 16.6741 10.304 16.2763 10.7613C16.0619 11.0078 15.6623 11.0274 15.4256 10.8023C14.87 10.2741 14.0562 9.60313 13.5077 9.22614C9.4183 6.41527 2.43702 10.0332 5.34351 17.2529C6.50607 20.717 12.2555 25.817 15.3582 27.6275Z" fill="url(#paint9_radial_7000_4934)"/>
<path d="M15.3582 27.6275C15.6956 27.8244 16.109 27.8179 16.4482 27.6239C19.4472 25.9085 24.3085 22.2653 26.4017 17.3578C29.1239 10.9751 22.5271 5.945 17.6891 9.43171C17.2092 9.77752 16.6741 10.304 16.2763 10.7613C16.0619 11.0078 15.6623 11.0274 15.4256 10.8023C14.87 10.2741 14.0562 9.60313 13.5077 9.22614C9.4183 6.41527 2.43702 10.0332 5.34351 17.2529C6.50607 20.717 12.2555 25.817 15.3582 27.6275Z" fill="url(#paint10_radial_7000_4934)"/>
<path d="M15.3456 10.7269C16.0409 11.446 17.2493 11.3365 17.9886 10.6626C19.0192 9.723 20.5198 8.77024 22.3895 8.43656C20.8754 8.08565 19.1968 8.34508 17.6891 9.43171C17.2092 9.77752 16.6741 10.304 16.2763 10.7613C16.0619 11.0078 15.6623 11.0274 15.4256 10.8023C15.3994 10.7774 15.3728 10.7523 15.3456 10.7269Z" fill="url(#paint11_radial_7000_4934)"/>
<g filter="url(#filter4_f_7000_4934)">
<path d="M20.203 14.9813L23.4179 10.4456C24.635 10.8668 26.1565 12.6368 25.581 15.2391C25.1759 17.0708 22.9806 17.5846 21.2599 16.8372L20.5105 16.5117L20.203 14.9813Z" fill="url(#paint12_radial_7000_4934)"/>
</g>
<g filter="url(#filter5_f_7000_4934)">
<path d="M15.7905 13.5612L15.8198 19.381L9.61398 11.2136C12.4087 8.46935 15.8179 11.7923 15.7905 13.5612Z" fill="url(#paint13_radial_7000_4934)" fill-opacity="0.6"/>
</g>
<g filter="url(#filter6_f_7000_4934)">
<path d="M8.12814 15.384C8.77071 12.702 11.9719 12.634 12.5656 13.384L16.0031 23.7902C11.0344 21.4777 7.40939 18.384 8.12814 15.384Z" fill="#C82873" fill-opacity="0.6"/>
</g>
<g filter="url(#filter7_f_7000_4934)">
<path d="M21.7559 14.0726C19.2536 10.7865 16.2581 12.7461 15.8469 13.4697L15.8469 22.6525C19.2881 20.4216 23.535 16.4091 21.7559 14.0726Z" fill="#FA3CC0"/>
</g>
<path d="M15.3976 24.6302C15.624 24.7648 15.9042 24.7596 16.1325 24.6281C18.0342 23.5323 21.2156 21.2644 22.5347 18.1611C24.4346 14.1903 20.1006 10.9245 17.0638 13.1491C16.7388 13.3871 16.3002 13.7354 16.012 14.03C15.897 14.1476 15.6949 14.1543 15.5823 14.0343C15.2418 13.6713 14.7052 13.1567 14.343 12.9054C11.7943 11.1372 7.1104 13.17 9.05065 17.9961C9.7636 20.1776 13.441 23.4674 15.3976 24.6302Z" fill="url(#paint14_radial_7000_4934)"/>
<path d="M15.3976 24.6302C15.624 24.7648 15.9042 24.7596 16.1325 24.6281C18.0342 23.5323 21.2156 21.2644 22.5347 18.1611C24.4346 14.1903 20.1006 10.9245 17.0638 13.1491C16.7388 13.3871 16.3002 13.7354 16.012 14.03C15.897 14.1476 15.6949 14.1543 15.5823 14.0343C15.2418 13.6713 14.7052 13.1567 14.343 12.9054C11.7943 11.1372 7.1104 13.17 9.05065 17.9961C9.7636 20.1776 13.441 23.4674 15.3976 24.6302Z" fill="url(#paint15_radial_7000_4934)"/>
<path d="M15.3976 24.6302C15.624 24.7648 15.9042 24.7596 16.1325 24.6281C18.0342 23.5323 21.2156 21.2644 22.5347 18.1611C24.4346 14.1903 20.1006 10.9245 17.0638 13.1491C16.7388 13.3871 16.3002 13.7354 16.012 14.03C15.897 14.1476 15.6949 14.1543 15.5823 14.0343C15.2418 13.6713 14.7052 13.1567 14.343 12.9054C11.7943 11.1372 7.1104 13.17 9.05065 17.9961C9.7636 20.1776 13.441 23.4674 15.3976 24.6302Z" fill="url(#paint16_radial_7000_4934)"/>
<path d="M15.3976 24.6302C15.624 24.7648 15.9042 24.7596 16.1325 24.6281C18.0342 23.5323 21.2156 21.2644 22.5347 18.1611C24.4346 14.1903 20.1006 10.9245 17.0638 13.1491C16.7388 13.3871 16.3002 13.7354 16.012 14.03C15.897 14.1476 15.6949 14.1543 15.5823 14.0343C15.2418 13.6713 14.7052 13.1567 14.343 12.9054C11.7943 11.1372 7.1104 13.17 9.05065 17.9961C9.7636 20.1776 13.441 23.4674 15.3976 24.6302Z" fill="url(#paint17_radial_7000_4934)"/>
<path d="M15.3976 24.6302C15.624 24.7648 15.9042 24.7596 16.1325 24.6281C18.0342 23.5323 21.2156 21.2644 22.5347 18.1611C24.4346 14.1903 20.1006 10.9245 17.0638 13.1491C16.7388 13.3871 16.3002 13.7354 16.012 14.03C15.897 14.1476 15.6949 14.1543 15.5823 14.0343C15.2418 13.6713 14.7052 13.1567 14.343 12.9054C11.7943 11.1372 7.1104 13.17 9.05065 17.9961C9.7636 20.1776 13.441 23.4674 15.3976 24.6302Z" fill="url(#paint18_radial_7000_4934)"/>
<path d="M19.6218 12.4493C18.6942 12.7426 17.8875 13.3643 17.2938 13.9748C16.8597 14.4212 16.1249 14.5013 15.6721 14.0972C15.7833 14.1453 15.9235 14.1205 16.0121 14.0299C16.3002 13.7353 16.7388 13.387 17.0638 13.149C17.8719 12.557 18.7719 12.3538 19.6218 12.4493Z" fill="url(#paint19_radial_7000_4934)"/>
<g filter="url(#filter8_f_7000_4934)">
<ellipse cx="0.691795" cy="0.431329" rx="0.691795" ry="0.431329" transform="matrix(-0.923789 -0.382901 -0.387038 0.922064 21.0345 13.1815)" fill="url(#paint20_linear_7000_4934)"/>
</g>
<g filter="url(#filter9_f_7000_4934)">
<path d="M18.4953 16.6184L21.6613 14.28C22.1801 14.9481 22.3703 15.5559 22.1828 16.6184L18.6828 17.5872L18.4953 16.6184Z" fill="url(#paint21_linear_7000_4934)"/>
</g>
<g filter="url(#filter10_f_7000_4934)">
<path d="M15.2745 15.8746L15.5109 19.7459L11.9853 14.7578C13.7419 13.0101 15.2972 14.7536 15.2745 15.8746Z" fill="url(#paint22_linear_7000_4934)"/>
</g>
<g filter="url(#filter11_f_7000_4934)">
<path d="M21.5036 17.5553C21.0912 18.4186 19.5864 20.6723 16.8661 22.7815" stroke="url(#paint23_linear_7000_4934)" stroke-width="0.25" stroke-linecap="round"/>
</g>
<defs>
<filter id="filter0_f_7000_4934" x="19.2258" y="4.35254" width="12.3567" height="15.5262" filterUnits="userSpaceOnUse" color-interpolation-filters="sRGB">
<feFlood flood-opacity="0" result="BackgroundImageFix"/>
<feBlend mode="normal" in="SourceGraphic" in2="BackgroundImageFix" result="shape"/>
<feGaussianBlur stdDeviation="1" result="effect1_foregroundBlur_7000_4934"/>
</filter>
<filter id="filter1_f_7000_4934" x="4.57236" y="5.33228" width="12.2435" height="13.501" filterUnits="userSpaceOnUse" color-interpolation-filters="sRGB">
<feFlood flood-opacity="0" result="BackgroundImageFix"/>
<feBlend mode="normal" in="SourceGraphic" in2="BackgroundImageFix" result="shape"/>
<feGaussianBlur stdDeviation="0.5" result="effect1_foregroundBlur_7000_4934"/>
</filter>
<filter id="filter2_f_7000_4934" x="15.0031" y="6.13794" width="11.054" height="13.3162" filterUnits="userSpaceOnUse" color-interpolation-filters="sRGB">
<feFlood flood-opacity="0" result="BackgroundImageFix"/>
<feBlend mode="normal" in="SourceGraphic" in2="BackgroundImageFix" result="shape"/>
<feGaussianBlur stdDeviation="0.5" result="effect1_foregroundBlur_7000_4934"/>
</filter>
<filter id="filter3_f_7000_4934" x="3.15048" y="8.56689" width="11.6027" height="16.2545" filterUnits="userSpaceOnUse" color-interpolation-filters="sRGB">
<feFlood flood-opacity="0" result="BackgroundImageFix"/>
<feBlend mode="normal" in="SourceGraphic" in2="BackgroundImageFix" result="shape"/>
<feGaussianBlur stdDeviation="0.5" result="effect1_foregroundBlur_7000_4934"/>
</filter>
<filter id="filter4_f_7000_4934" x="18.203" y="8.44556" width="9.50357" height="10.7224" filterUnits="userSpaceOnUse" color-interpolation-filters="sRGB">
<feFlood flood-opacity="0" result="BackgroundImageFix"/>
<feBlend mode="normal" in="SourceGraphic" in2="BackgroundImageFix" result="shape"/>
<feGaussianBlur stdDeviation="1" result="effect1_foregroundBlur_7000_4934"/>
</filter>
<filter id="filter5_f_7000_4934" x="8.61398" y="9.1676" width="8.20587" height="11.2134" filterUnits="userSpaceOnUse" color-interpolation-filters="sRGB">
<feFlood flood-opacity="0" result="BackgroundImageFix"/>
<feBlend mode="normal" in="SourceGraphic" in2="BackgroundImageFix" result="shape"/>
<feGaussianBlur stdDeviation="0.5" result="effect1_foregroundBlur_7000_4934"/>
</filter>
<filter id="filter6_f_7000_4934" x="7.03717" y="11.9731" width="9.96597" height="12.8171" filterUnits="userSpaceOnUse" color-interpolation-filters="sRGB">
<feFlood flood-opacity="0" result="BackgroundImageFix"/>
<feBlend mode="normal" in="SourceGraphic" in2="BackgroundImageFix" result="shape"/>
<feGaussianBlur stdDeviation="0.5" result="effect1_foregroundBlur_7000_4934"/>
</filter>
<filter id="filter7_f_7000_4934" x="13.8469" y="10.2278" width="10.3283" height="14.4248" filterUnits="userSpaceOnUse" color-interpolation-filters="sRGB">
<feFlood flood-opacity="0" result="BackgroundImageFix"/>
<feBlend mode="normal" in="SourceGraphic" in2="BackgroundImageFix" result="shape"/>
<feGaussianBlur stdDeviation="1" result="effect1_foregroundBlur_7000_4934"/>
</filter>
<filter id="filter8_f_7000_4934" x="19.0679" y="12.3364" width="2.32136" height="1.95581" filterUnits="userSpaceOnUse" color-interpolation-filters="sRGB">
<feFlood flood-opacity="0" result="BackgroundImageFix"/>
<feBlend mode="normal" in="SourceGraphic" in2="BackgroundImageFix" result="shape"/>
<feGaussianBlur stdDeviation="0.25" result="effect1_foregroundBlur_7000_4934"/>
</filter>
<filter id="filter9_f_7000_4934" x="17.4953" y="13.28" width="5.75808" height="5.30713" filterUnits="userSpaceOnUse" color-interpolation-filters="sRGB">
<feFlood flood-opacity="0" result="BackgroundImageFix"/>
<feBlend mode="normal" in="SourceGraphic" in2="BackgroundImageFix" result="shape"/>
<feGaussianBlur stdDeviation="0.5" result="effect1_foregroundBlur_7000_4934"/>
</filter>
<filter id="filter10_f_7000_4934" x="10.9853" y="13.0162" width="5.52556" height="7.72961" filterUnits="userSpaceOnUse" color-interpolation-filters="sRGB">
<feFlood flood-opacity="0" result="BackgroundImageFix"/>
<feBlend mode="normal" in="SourceGraphic" in2="BackgroundImageFix" result="shape"/>
<feGaussianBlur stdDeviation="0.5" result="effect1_foregroundBlur_7000_4934"/>
</filter>
<filter id="filter11_f_7000_4934" x="16.2411" y="16.9303" width="5.88758" height="6.4762" filterUnits="userSpaceOnUse" color-interpolation-filters="sRGB">
<feFlood flood-opacity="0" result="BackgroundImageFix"/>
<feBlend mode="normal" in="SourceGraphic" in2="BackgroundImageFix" result="shape"/>
<feGaussianBlur stdDeviation="0.25" result="effect1_foregroundBlur_7000_4934"/>
</filter>
<radialGradient id="paint0_radial_7000_4934" cx="0" cy="0" r="1" gradientUnits="userSpaceOnUse" gradientTransform="translate(21.9406 32.4466) rotate(-116.141) scale(30.2157 75.1198)">
<stop offset="0.270833" stop-color="#FFBBE4"/>
<stop offset="1" stop-color="#FF99FF"/>
</radialGradient>
<radialGradient id="paint1_radial_7000_4934" cx="0" cy="0" r="1" gradientUnits="userSpaceOnUse" gradientTransform="translate(21.6281 24.2591) rotate(-140.628) scale(27.4887 22.3522)">
<stop offset="0.758617" stop-color="#CB90C8" stop-opacity="0"/>
<stop offset="0.896933" stop-color="#CB90C8"/>
</radialGradient>
<radialGradient id="paint2_radial_7000_4934" cx="0" cy="0" r="1" gradientUnits="userSpaceOnUse" gradientTransform="translate(16.9406 9.94663) rotate(91.567) scale(20.5702 23.7027)">
<stop offset="0.758617" stop-color="#FFA5D9" stop-opacity="0"/>
<stop offset="0.896933" stop-color="#FFA5D9"/>
</radialGradient>
<radialGradient id="paint3_radial_7000_4934" cx="0" cy="0" r="1" gradientUnits="userSpaceOnUse" gradientTransform="translate(19.2219 8.85274) rotate(-36.0851) scale(6.84439 2.36878)">
<stop offset="0.640979" stop-color="#CB90C8" stop-opacity="0"/>
<stop offset="1" stop-color="#CB90C8"/>
</radialGradient>
<radialGradient id="paint4_radial_7000_4934" cx="0" cy="0" r="1" gradientUnits="userSpaceOnUse" gradientTransform="translate(29.6291 6.79912) rotate(126.416) scale(12.0091 6.04378)">
<stop stop-color="#FFD9F0"/>
<stop offset="1" stop-color="#FFD9F0" stop-opacity="0"/>
</radialGradient>
<radialGradient id="paint5_radial_7000_4934" cx="0" cy="0" r="1" gradientUnits="userSpaceOnUse" gradientTransform="translate(14.8836 5.86128) rotate(127.093) scale(10.163 6.56508)">
<stop stop-color="#FFD9F0"/>
<stop offset="1" stop-color="#FFD9F0" stop-opacity="0"/>
</radialGradient>
<radialGradient id="paint6_radial_7000_4934" cx="0" cy="0" r="1" gradientUnits="userSpaceOnUse" gradientTransform="translate(16.5335 30.9801) rotate(-97.9806) scale(26.5718 66.0607)">
<stop offset="0.29664" stop-color="#FF7EB4"/>
<stop offset="0.791667" stop-color="#FF70D7"/>
<stop offset="1" stop-color="#FF71E8"/>
</radialGradient>
<radialGradient id="paint7_radial_7000_4934" cx="0" cy="0" r="1" gradientUnits="userSpaceOnUse" gradientTransform="translate(14.9734 11.8329) rotate(87.134) scale(22.1416 19.0023)">
<stop offset="0.634872" stop-color="#FFBFCE" stop-opacity="0"/>
<stop offset="0.833898" stop-color="#FFBFCE"/>
</radialGradient>
<radialGradient id="paint8_radial_7000_4934" cx="0" cy="0" r="1" gradientUnits="userSpaceOnUse" gradientTransform="translate(12.6685 15.1549) rotate(43.1963) scale(15.4424 36.9901)">
<stop offset="0.766579" stop-color="#FFA9BD" stop-opacity="0"/>
<stop offset="0.933184" stop-color="#FFA9BD"/>
</radialGradient>
<radialGradient id="paint9_radial_7000_4934" cx="0" cy="0" r="1" gradientUnits="userSpaceOnUse" gradientTransform="translate(16.3733 18.8749) rotate(-19.5409) scale(17.3473 25.4165)">
<stop offset="0.649211" stop-color="#FFA9BD" stop-opacity="0"/>
<stop offset="0.909941" stop-color="#FFA9BD"/>
</radialGradient>
<radialGradient id="paint10_radial_7000_4934" cx="0" cy="0" r="1" gradientUnits="userSpaceOnUse" gradientTransform="translate(17.8809 19.7916) rotate(-144.432) scale(16.9744 15.6883)">
<stop offset="0.786458" stop-color="#D5246B" stop-opacity="0"/>
<stop offset="1" stop-color="#D5246B"/>
</radialGradient>
<radialGradient id="paint11_radial_7000_4934" cx="0" cy="0" r="1" gradientUnits="userSpaceOnUse" gradientTransform="translate(19.1906 12.134) rotate(-43.7636) scale(6.14442 3.15053)">
<stop offset="0.786458" stop-color="#D66DC4" stop-opacity="0"/>
<stop offset="1" stop-color="#DA68C7"/>
</radialGradient>
<radialGradient id="paint12_radial_7000_4934" cx="0" cy="0" r="1" gradientUnits="userSpaceOnUse" gradientTransform="translate(25.9736 9.95587) rotate(126.416) scale(8.24671 4.15031)">
<stop stop-color="#FFBEE5"/>
<stop offset="1" stop-color="#FFBEE5" stop-opacity="0"/>
</radialGradient>
<radialGradient id="paint13_radial_7000_4934" cx="0" cy="0" r="1" gradientUnits="userSpaceOnUse" gradientTransform="translate(16.2433 9.87113) rotate(127.093) scale(8.07286 5.21492)">
<stop stop-color="#FFBEE5"/>
<stop offset="1" stop-color="#FFBEE5" stop-opacity="0"/>
</radialGradient>
<radialGradient id="paint14_radial_7000_4934" cx="0" cy="0" r="1" gradientUnits="userSpaceOnUse" gradientTransform="translate(15.9328 28.7746) rotate(-88.8106) scale(18.0664 31.3786)">
<stop stop-color="#F12E52"/>
<stop offset="0.596003" stop-color="#FF3B79"/>
<stop offset="1" stop-color="#FF4EC6"/>
</radialGradient>
<radialGradient id="paint15_radial_7000_4934" cx="0" cy="0" r="1" gradientUnits="userSpaceOnUse" gradientTransform="translate(14.4953 16.1496) rotate(82.2482) scale(12.0476 11.9069)">
<stop offset="0.634872" stop-color="#FFA9BD" stop-opacity="0"/>
<stop offset="0.833898" stop-color="#FFA9BD"/>
</radialGradient>
<radialGradient id="paint16_radial_7000_4934" cx="0" cy="0" r="1" gradientUnits="userSpaceOnUse" gradientTransform="translate(13.7826 16.7522) rotate(43.5536) scale(9.66905 23.4112)">
<stop offset="0.766579" stop-color="#FFA9BD" stop-opacity="0"/>
<stop offset="0.933184" stop-color="#FFA9BD"/>
</radialGradient>
<radialGradient id="paint17_radial_7000_4934" cx="0" cy="0" r="1" gradientUnits="userSpaceOnUse" gradientTransform="translate(16.0879 19.0976) rotate(-20.0006) scale(10.9002 16.0295)">
<stop offset="0.649211" stop-color="#FFA9BD" stop-opacity="0"/>
<stop offset="0.909941" stop-color="#FFA9BD"/>
</radialGradient>
<radialGradient id="paint18_radial_7000_4934" cx="0" cy="0" r="1" gradientUnits="userSpaceOnUse" gradientTransform="translate(18.6203 19.8996) rotate(-147.863) scale(11.5143 9.81471)">
<stop offset="0.786458" stop-color="#D5246B" stop-opacity="0"/>
<stop offset="1" stop-color="#D5246B"/>
</radialGradient>
<radialGradient id="paint19_radial_7000_4934" cx="0" cy="0" r="1" gradientUnits="userSpaceOnUse" gradientTransform="translate(17.8 14.0871) rotate(51.1322) scale(1.34457 3.83639)">
<stop offset="0.62" stop-color="#D5246B" stop-opacity="0"/>
<stop offset="1" stop-color="#D5246B"/>
</radialGradient>
<linearGradient id="paint20_linear_7000_4934" x1="0.960042" y1="-0.164316" x2="0.0954289" y2="-0.0694958" gradientUnits="userSpaceOnUse">
<stop stop-color="#FF7DCB"/>
<stop offset="1" stop-color="#FF7DCB" stop-opacity="0"/>
</linearGradient>
<linearGradient id="paint21_linear_7000_4934" x1="22.5089" y1="14.7703" x2="17.7238" y2="14.7003" gradientUnits="userSpaceOnUse">
<stop stop-color="#FFA2DA"/>
<stop offset="1" stop-color="#FFA1DA" stop-opacity="0"/>
</linearGradient>
<linearGradient id="paint22_linear_7000_4934" x1="15.744" y1="17.566" x2="13.0342" y2="13.6464" gradientUnits="userSpaceOnUse">
<stop stop-color="#FF7DCB" stop-opacity="0.6"/>
<stop offset="1" stop-color="#FF7DCB" stop-opacity="0"/>
</linearGradient>
<linearGradient id="paint23_linear_7000_4934" x1="17.8393" y1="20.7844" x2="21.9332" y2="19.7612" gradientUnits="userSpaceOnUse">
<stop stop-color="#DD2345" stop-opacity="0"/>
<stop offset="0.544604" stop-color="#E72044"/>
<stop offset="1" stop-color="#D12847"/>
</linearGradient>
</defs>
</svg>
