<svg width="32" height="32" viewBox="0 0 32 32" fill="none" xmlns="http://www.w3.org/2000/svg">
<g clip-path="url(#clip0_28327_3793)">
<path d="M13.3603 9.69164C13.4111 9.3853 13.4375 9.07073 13.4375 8.75C13.4375 5.59162 10.8771 3.03125 7.71875 3.03125C4.56037 3.03125 2 5.59162 2 8.75C2 11.5751 4.04852 13.9217 6.74118 14.3855C6.98078 14.4268 7.10459 14.7155 6.95649 14.9083C5.18696 17.212 4.03125 19.7395 4.03125 21.5469C4.03125 26.0312 8.09375 28.9688 11.0938 28.9688C13.3507 28.9688 14.3641 28.5719 15.0721 28.2946C15.4523 28.1457 15.7444 28.0312 16.0938 28.0312C16.4768 28.0312 16.7773 28.1688 17.1482 28.3386C17.7453 28.6119 18.5248 28.9688 20.125 28.9688C22.9531 28.9688 27.9531 26.8438 27.9531 21.5469C27.9531 19.7619 26.8736 17.2075 25.1605 14.8787C25.0202 14.688 25.139 14.4098 25.3715 14.365C28.0084 13.856 30 11.5356 30 8.75C30 5.59162 27.4396 3.03125 24.2812 3.03125C21.1229 3.03125 18.5625 5.59162 18.5625 8.75C18.5625 9.03331 18.5831 9.31181 18.6229 9.58408C17.795 9.28964 16.9468 9.125 16.0938 9.125C15.1891 9.125 14.2687 9.3299 13.3603 9.69164Z" fill="url(#paint0_linear_28327_3793)"/>
<path d="M13.3603 9.69164C13.4111 9.3853 13.4375 9.07073 13.4375 8.75C13.4375 5.59162 10.8771 3.03125 7.71875 3.03125C4.56037 3.03125 2 5.59162 2 8.75C2 11.5751 4.04852 13.9217 6.74118 14.3855C6.98078 14.4268 7.10459 14.7155 6.95649 14.9083C5.18696 17.212 4.03125 19.7395 4.03125 21.5469C4.03125 26.0312 8.09375 28.9688 11.0938 28.9688C13.3507 28.9688 14.3641 28.5719 15.0721 28.2946C15.4523 28.1457 15.7444 28.0312 16.0938 28.0312C16.4768 28.0312 16.7773 28.1688 17.1482 28.3386C17.7453 28.6119 18.5248 28.9688 20.125 28.9688C22.9531 28.9688 27.9531 26.8438 27.9531 21.5469C27.9531 19.7619 26.8736 17.2075 25.1605 14.8787C25.0202 14.688 25.139 14.4098 25.3715 14.365C28.0084 13.856 30 11.5356 30 8.75C30 5.59162 27.4396 3.03125 24.2812 3.03125C21.1229 3.03125 18.5625 5.59162 18.5625 8.75C18.5625 9.03331 18.5831 9.31181 18.6229 9.58408C17.795 9.28964 16.9468 9.125 16.0938 9.125C15.1891 9.125 14.2687 9.3299 13.3603 9.69164Z" fill="url(#paint1_radial_28327_3793)"/>
<path d="M13.3603 9.69164C13.4111 9.3853 13.4375 9.07073 13.4375 8.75C13.4375 5.59162 10.8771 3.03125 7.71875 3.03125C4.56037 3.03125 2 5.59162 2 8.75C2 11.5751 4.04852 13.9217 6.74118 14.3855C6.98078 14.4268 7.10459 14.7155 6.95649 14.9083C5.18696 17.212 4.03125 19.7395 4.03125 21.5469C4.03125 26.0312 8.09375 28.9688 11.0938 28.9688C13.3507 28.9688 14.3641 28.5719 15.0721 28.2946C15.4523 28.1457 15.7444 28.0312 16.0938 28.0312C16.4768 28.0312 16.7773 28.1688 17.1482 28.3386C17.7453 28.6119 18.5248 28.9688 20.125 28.9688C22.9531 28.9688 27.9531 26.8438 27.9531 21.5469C27.9531 19.7619 26.8736 17.2075 25.1605 14.8787C25.0202 14.688 25.139 14.4098 25.3715 14.365C28.0084 13.856 30 11.5356 30 8.75C30 5.59162 27.4396 3.03125 24.2812 3.03125C21.1229 3.03125 18.5625 5.59162 18.5625 8.75C18.5625 9.03331 18.5831 9.31181 18.6229 9.58408C17.795 9.28964 16.9468 9.125 16.0938 9.125C15.1891 9.125 14.2687 9.3299 13.3603 9.69164Z" fill="url(#paint2_radial_28327_3793)"/>
<path d="M13.3603 9.69164C13.4111 9.3853 13.4375 9.07073 13.4375 8.75C13.4375 5.59162 10.8771 3.03125 7.71875 3.03125C4.56037 3.03125 2 5.59162 2 8.75C2 11.5751 4.04852 13.9217 6.74118 14.3855C6.98078 14.4268 7.10459 14.7155 6.95649 14.9083C5.18696 17.212 4.03125 19.7395 4.03125 21.5469C4.03125 26.0312 8.09375 28.9688 11.0938 28.9688C13.3507 28.9688 14.3641 28.5719 15.0721 28.2946C15.4523 28.1457 15.7444 28.0312 16.0938 28.0312C16.4768 28.0312 16.7773 28.1688 17.1482 28.3386C17.7453 28.6119 18.5248 28.9688 20.125 28.9688C22.9531 28.9688 27.9531 26.8438 27.9531 21.5469C27.9531 19.7619 26.8736 17.2075 25.1605 14.8787C25.0202 14.688 25.139 14.4098 25.3715 14.365C28.0084 13.856 30 11.5356 30 8.75C30 5.59162 27.4396 3.03125 24.2812 3.03125C21.1229 3.03125 18.5625 5.59162 18.5625 8.75C18.5625 9.03331 18.5831 9.31181 18.6229 9.58408C17.795 9.28964 16.9468 9.125 16.0938 9.125C15.1891 9.125 14.2687 9.3299 13.3603 9.69164Z" fill="url(#paint3_radial_28327_3793)"/>
<path d="M13.3603 9.69164C13.4111 9.3853 13.4375 9.07073 13.4375 8.75C13.4375 5.59162 10.8771 3.03125 7.71875 3.03125C4.56037 3.03125 2 5.59162 2 8.75C2 11.5751 4.04852 13.9217 6.74118 14.3855C6.98078 14.4268 7.10459 14.7155 6.95649 14.9083C5.18696 17.212 4.03125 19.7395 4.03125 21.5469C4.03125 26.0312 8.09375 28.9688 11.0938 28.9688C13.3507 28.9688 14.3641 28.5719 15.0721 28.2946C15.4523 28.1457 15.7444 28.0312 16.0938 28.0312C16.4768 28.0312 16.7773 28.1688 17.1482 28.3386C17.7453 28.6119 18.5248 28.9688 20.125 28.9688C22.9531 28.9688 27.9531 26.8438 27.9531 21.5469C27.9531 19.7619 26.8736 17.2075 25.1605 14.8787C25.0202 14.688 25.139 14.4098 25.3715 14.365C28.0084 13.856 30 11.5356 30 8.75C30 5.59162 27.4396 3.03125 24.2812 3.03125C21.1229 3.03125 18.5625 5.59162 18.5625 8.75C18.5625 9.03331 18.5831 9.31181 18.6229 9.58408C17.795 9.28964 16.9468 9.125 16.0938 9.125C15.1891 9.125 14.2687 9.3299 13.3603 9.69164Z" fill="url(#paint4_radial_28327_3793)"/>
<path d="M13.3603 9.69164C13.4111 9.3853 13.4375 9.07073 13.4375 8.75C13.4375 5.59162 10.8771 3.03125 7.71875 3.03125C4.56037 3.03125 2 5.59162 2 8.75C2 11.5751 4.04852 13.9217 6.74118 14.3855C6.98078 14.4268 7.10459 14.7155 6.95649 14.9083C5.18696 17.212 4.03125 19.7395 4.03125 21.5469C4.03125 26.0312 8.09375 28.9688 11.0938 28.9688C13.3507 28.9688 14.3641 28.5719 15.0721 28.2946C15.4523 28.1457 15.7444 28.0312 16.0938 28.0312C16.4768 28.0312 16.7773 28.1688 17.1482 28.3386C17.7453 28.6119 18.5248 28.9688 20.125 28.9688C22.9531 28.9688 27.9531 26.8438 27.9531 21.5469C27.9531 19.7619 26.8736 17.2075 25.1605 14.8787C25.0202 14.688 25.139 14.4098 25.3715 14.365C28.0084 13.856 30 11.5356 30 8.75C30 5.59162 27.4396 3.03125 24.2812 3.03125C21.1229 3.03125 18.5625 5.59162 18.5625 8.75C18.5625 9.03331 18.5831 9.31181 18.6229 9.58408C17.795 9.28964 16.9468 9.125 16.0938 9.125C15.1891 9.125 14.2687 9.3299 13.3603 9.69164Z" fill="url(#paint5_radial_28327_3793)"/>
<path d="M13.3603 9.69164C13.4111 9.3853 13.4375 9.07073 13.4375 8.75C13.4375 5.59162 10.8771 3.03125 7.71875 3.03125C4.56037 3.03125 2 5.59162 2 8.75C2 11.5751 4.04852 13.9217 6.74118 14.3855C6.98078 14.4268 7.10459 14.7155 6.95649 14.9083C5.18696 17.212 4.03125 19.7395 4.03125 21.5469C4.03125 26.0312 8.09375 28.9688 11.0938 28.9688C13.3507 28.9688 14.3641 28.5719 15.0721 28.2946C15.4523 28.1457 15.7444 28.0312 16.0938 28.0312C16.4768 28.0312 16.7773 28.1688 17.1482 28.3386C17.7453 28.6119 18.5248 28.9688 20.125 28.9688C22.9531 28.9688 27.9531 26.8438 27.9531 21.5469C27.9531 19.7619 26.8736 17.2075 25.1605 14.8787C25.0202 14.688 25.139 14.4098 25.3715 14.365C28.0084 13.856 30 11.5356 30 8.75C30 5.59162 27.4396 3.03125 24.2812 3.03125C21.1229 3.03125 18.5625 5.59162 18.5625 8.75C18.5625 9.03331 18.5831 9.31181 18.6229 9.58408C17.795 9.28964 16.9468 9.125 16.0938 9.125C15.1891 9.125 14.2687 9.3299 13.3603 9.69164Z" fill="url(#paint6_radial_28327_3793)"/>
<path d="M13.3603 9.69164C13.4111 9.3853 13.4375 9.07073 13.4375 8.75C13.4375 5.59162 10.8771 3.03125 7.71875 3.03125C4.56037 3.03125 2 5.59162 2 8.75C2 11.5751 4.04852 13.9217 6.74118 14.3855C6.98078 14.4268 7.10459 14.7155 6.95649 14.9083C5.18696 17.212 4.03125 19.7395 4.03125 21.5469C4.03125 26.0312 8.09375 28.9688 11.0938 28.9688C13.3507 28.9688 14.3641 28.5719 15.0721 28.2946C15.4523 28.1457 15.7444 28.0312 16.0938 28.0312C16.4768 28.0312 16.7773 28.1688 17.1482 28.3386C17.7453 28.6119 18.5248 28.9688 20.125 28.9688C22.9531 28.9688 27.9531 26.8438 27.9531 21.5469C27.9531 19.7619 26.8736 17.2075 25.1605 14.8787C25.0202 14.688 25.139 14.4098 25.3715 14.365C28.0084 13.856 30 11.5356 30 8.75C30 5.59162 27.4396 3.03125 24.2812 3.03125C21.1229 3.03125 18.5625 5.59162 18.5625 8.75C18.5625 9.03331 18.5831 9.31181 18.6229 9.58408C17.795 9.28964 16.9468 9.125 16.0938 9.125C15.1891 9.125 14.2687 9.3299 13.3603 9.69164Z" fill="url(#paint7_radial_28327_3793)"/>
<path d="M13.3603 9.69164C13.4111 9.3853 13.4375 9.07073 13.4375 8.75C13.4375 5.59162 10.8771 3.03125 7.71875 3.03125C4.56037 3.03125 2 5.59162 2 8.75C2 11.5751 4.04852 13.9217 6.74118 14.3855C6.98078 14.4268 7.10459 14.7155 6.95649 14.9083C5.18696 17.212 4.03125 19.7395 4.03125 21.5469C4.03125 26.0312 8.09375 28.9688 11.0938 28.9688C13.3507 28.9688 14.3641 28.5719 15.0721 28.2946C15.4523 28.1457 15.7444 28.0312 16.0938 28.0312C16.4768 28.0312 16.7773 28.1688 17.1482 28.3386C17.7453 28.6119 18.5248 28.9688 20.125 28.9688C22.9531 28.9688 27.9531 26.8438 27.9531 21.5469C27.9531 19.7619 26.8736 17.2075 25.1605 14.8787C25.0202 14.688 25.139 14.4098 25.3715 14.365C28.0084 13.856 30 11.5356 30 8.75C30 5.59162 27.4396 3.03125 24.2812 3.03125C21.1229 3.03125 18.5625 5.59162 18.5625 8.75C18.5625 9.03331 18.5831 9.31181 18.6229 9.58408C17.795 9.28964 16.9468 9.125 16.0938 9.125C15.1891 9.125 14.2687 9.3299 13.3603 9.69164Z" fill="url(#paint8_radial_28327_3793)"/>
<path d="M13.3603 9.69164C13.4111 9.3853 13.4375 9.07073 13.4375 8.75C13.4375 5.59162 10.8771 3.03125 7.71875 3.03125C4.56037 3.03125 2 5.59162 2 8.75C2 11.5751 4.04852 13.9217 6.74118 14.3855C6.98078 14.4268 7.10459 14.7155 6.95649 14.9083C5.18696 17.212 4.03125 19.7395 4.03125 21.5469C4.03125 26.0312 8.09375 28.9688 11.0938 28.9688C13.3507 28.9688 14.3641 28.5719 15.0721 28.2946C15.4523 28.1457 15.7444 28.0312 16.0938 28.0312C16.4768 28.0312 16.7773 28.1688 17.1482 28.3386C17.7453 28.6119 18.5248 28.9688 20.125 28.9688C22.9531 28.9688 27.9531 26.8438 27.9531 21.5469C27.9531 19.7619 26.8736 17.2075 25.1605 14.8787C25.0202 14.688 25.139 14.4098 25.3715 14.365C28.0084 13.856 30 11.5356 30 8.75C30 5.59162 27.4396 3.03125 24.2812 3.03125C21.1229 3.03125 18.5625 5.59162 18.5625 8.75C18.5625 9.03331 18.5831 9.31181 18.6229 9.58408C17.795 9.28964 16.9468 9.125 16.0938 9.125C15.1891 9.125 14.2687 9.3299 13.3603 9.69164Z" fill="url(#paint9_radial_28327_3793)"/>
<path d="M13.3603 9.69164C13.4111 9.3853 13.4375 9.07073 13.4375 8.75C13.4375 5.59162 10.8771 3.03125 7.71875 3.03125C4.56037 3.03125 2 5.59162 2 8.75C2 11.5751 4.04852 13.9217 6.74118 14.3855C6.98078 14.4268 7.10459 14.7155 6.95649 14.9083C5.18696 17.212 4.03125 19.7395 4.03125 21.5469C4.03125 26.0312 8.09375 28.9688 11.0938 28.9688C13.3507 28.9688 14.3641 28.5719 15.0721 28.2946C15.4523 28.1457 15.7444 28.0312 16.0938 28.0312C16.4768 28.0312 16.7773 28.1688 17.1482 28.3386C17.7453 28.6119 18.5248 28.9688 20.125 28.9688C22.9531 28.9688 27.9531 26.8438 27.9531 21.5469C27.9531 19.7619 26.8736 17.2075 25.1605 14.8787C25.0202 14.688 25.139 14.4098 25.3715 14.365C28.0084 13.856 30 11.5356 30 8.75C30 5.59162 27.4396 3.03125 24.2812 3.03125C21.1229 3.03125 18.5625 5.59162 18.5625 8.75C18.5625 9.03331 18.5831 9.31181 18.6229 9.58408C17.795 9.28964 16.9468 9.125 16.0938 9.125C15.1891 9.125 14.2687 9.3299 13.3603 9.69164Z" fill="url(#paint10_radial_28327_3793)"/>
<path d="M13.3603 9.69164C13.4111 9.3853 13.4375 9.07073 13.4375 8.75C13.4375 5.59162 10.8771 3.03125 7.71875 3.03125C4.56037 3.03125 2 5.59162 2 8.75C2 11.5751 4.04852 13.9217 6.74118 14.3855C6.98078 14.4268 7.10459 14.7155 6.95649 14.9083C5.18696 17.212 4.03125 19.7395 4.03125 21.5469C4.03125 26.0312 8.09375 28.9688 11.0938 28.9688C13.3507 28.9688 14.3641 28.5719 15.0721 28.2946C15.4523 28.1457 15.7444 28.0312 16.0938 28.0312C16.4768 28.0312 16.7773 28.1688 17.1482 28.3386C17.7453 28.6119 18.5248 28.9688 20.125 28.9688C22.9531 28.9688 27.9531 26.8438 27.9531 21.5469C27.9531 19.7619 26.8736 17.2075 25.1605 14.8787C25.0202 14.688 25.139 14.4098 25.3715 14.365C28.0084 13.856 30 11.5356 30 8.75C30 5.59162 27.4396 3.03125 24.2812 3.03125C21.1229 3.03125 18.5625 5.59162 18.5625 8.75C18.5625 9.03331 18.5831 9.31181 18.6229 9.58408C17.795 9.28964 16.9468 9.125 16.0938 9.125C15.1891 9.125 14.2687 9.3299 13.3603 9.69164Z" fill="url(#paint11_radial_28327_3793)"/>
<g filter="url(#filter0_f_28327_3793)">
<path d="M16 23.9454C16.0587 23.9454 16.1152 23.9555 16.1678 23.9743C16.2376 23.9991 16.3001 24.039 16.3514 24.0898C16.4386 24.176 16.4939 24.2937 16.4995 24.4232C16.5044 24.4968 16.5662 24.7818 16.7296 25.0288C16.882 25.2591 17.0719 25.3912 17.3507 25.3689C17.6971 25.3412 17.8373 25.2179 17.9001 25.1314C17.9753 25.0278 17.9977 24.8951 17.9871 24.7947C17.9582 24.52 18.1574 24.274 18.432 24.2451C18.7067 24.2162 18.9527 24.4154 18.9816 24.69C19.0127 24.9854 18.957 25.3777 18.7093 25.7189C18.4492 26.0772 18.0216 26.3184 17.4305 26.3657C16.7596 26.4194 16.2925 26.0939 16 25.7247C15.7075 26.0939 15.2404 26.4194 14.5695 26.3657C13.9784 26.3184 13.5508 26.0772 13.2907 25.7189C13.043 25.3777 12.9873 24.9854 13.0184 24.69C13.0473 24.4154 13.2934 24.2162 13.568 24.2451C13.8426 24.274 14.0418 24.52 14.0129 24.7947C14.0023 24.8951 14.0247 25.0278 14.0999 25.1314C14.1627 25.2179 14.3029 25.3412 14.6493 25.3689C14.9282 25.3912 15.118 25.2591 15.2704 25.0288C15.4338 24.7818 15.4956 24.4968 15.5005 24.4232C15.5026 24.3742 15.5118 24.3268 15.5272 24.2823C15.5526 24.2086 15.5946 24.1431 15.6486 24.0898C15.7393 24.0002 15.8639 23.9453 16 23.9454Z" fill="#CF6161"/>
</g>
<path d="M17.5859 21.6719C17.5859 22.1594 16.6562 23.375 16.0078 23.375C15.3141 23.375 14.4141 22.2656 14.4141 21.6719C14.4141 21.0781 15.1172 21.0234 16.0078 21.0234C16.8984 21.0234 17.5859 21.0625 17.5859 21.6719Z" fill="url(#paint12_linear_28327_3793)"/>
<path d="M17.5859 21.6719C17.5859 22.1594 16.6562 23.375 16.0078 23.375C15.3141 23.375 14.4141 22.2656 14.4141 21.6719C14.4141 21.0781 15.1172 21.0234 16.0078 21.0234C16.8984 21.0234 17.5859 21.0625 17.5859 21.6719Z" fill="url(#paint13_radial_28327_3793)"/>
<path d="M17.5859 21.6719C17.5859 22.1594 16.6562 23.375 16.0078 23.375C15.3141 23.375 14.4141 22.2656 14.4141 21.6719C14.4141 21.0781 15.1172 21.0234 16.0078 21.0234C16.8984 21.0234 17.5859 21.0625 17.5859 21.6719Z" fill="url(#paint14_radial_28327_3793)"/>
<rect x="11.2422" y="17.0156" width="1.48438" height="3" rx="0.742188" fill="url(#paint15_linear_28327_3793)"/>
<rect x="11.2422" y="17.0156" width="1.48438" height="3" rx="0.742188" fill="url(#paint16_linear_28327_3793)"/>
<rect x="11.2422" y="17.0156" width="1.48438" height="3" rx="0.742188" fill="url(#paint17_radial_28327_3793)"/>
<rect x="19.2422" y="17.0156" width="1.48438" height="3" rx="0.742188" fill="url(#paint18_linear_28327_3793)"/>
<rect x="19.2422" y="17.0156" width="1.48438" height="3" rx="0.742188" fill="url(#paint19_linear_28327_3793)"/>
<rect x="19.2422" y="17.0156" width="1.48438" height="3" rx="0.742188" fill="url(#paint20_radial_28327_3793)"/>
<g filter="url(#filter1_i_28327_3793)">
<circle cx="6.85938" cy="8.67969" r="4.28906" fill="url(#paint21_radial_28327_3793)"/>
<circle cx="6.85938" cy="8.67969" r="4.28906" fill="url(#paint22_radial_28327_3793)"/>
</g>
<g filter="url(#filter2_i_28327_3793)">
<circle cx="25.1406" cy="8.67969" r="4.28906" fill="url(#paint23_radial_28327_3793)"/>
<circle cx="25.1406" cy="8.67969" r="4.28906" fill="url(#paint24_radial_28327_3793)"/>
<circle cx="25.1406" cy="8.67969" r="4.28906" fill="url(#paint25_radial_28327_3793)"/>
</g>
<g filter="url(#filter3_f_28327_3793)">
<ellipse cx="23.0778" cy="17.0272" rx="2.51951" ry="6.65644" transform="rotate(-34.3167 23.0778 17.0272)" fill="url(#paint26_radial_28327_3793)"/>
</g>
<g filter="url(#filter4_f_28327_3793)">
<path d="M24.4844 14.5625C24.026 14.125 22.3406 12.725 21.1406 11.875" stroke="url(#paint27_linear_28327_3793)" stroke-width="0.2"/>
</g>
<g filter="url(#filter5_f_28327_3793)">
<path d="M8.78125 13.7188C10.125 12.8437 12.1719 10.9375 12.7969 10.1562" stroke="url(#paint28_linear_28327_3793)" stroke-width="0.2"/>
</g>
<path d="M13.5156 24.5156C13.474 24.9115 13.6719 25.5656 14.6094 25.6406C15.6456 25.7235 15.9844 24.5312 16 24.2188" stroke="url(#paint29_radial_28327_3793)" stroke-linecap="round"/>
<path d="M13.5156 24.5156C13.474 24.9115 13.6719 25.5656 14.6094 25.6406C15.6456 25.7235 15.9844 24.5312 16 24.2188" stroke="url(#paint30_radial_28327_3793)" stroke-linecap="round"/>
<path d="M18.4844 24.5156C18.526 24.9115 18.3281 25.5656 17.3906 25.6406C16.3544 25.7235 16.0156 24.5312 16 24.2188" stroke="url(#paint31_radial_28327_3793)" stroke-linecap="round"/>
<path d="M18.4844 24.5156C18.526 24.9115 18.3281 25.5656 17.3906 25.6406C16.3544 25.7235 16.0156 24.5312 16 24.2188" stroke="url(#paint32_radial_28327_3793)" stroke-linecap="round"/>
<path fill-rule="evenodd" clip-rule="evenodd" d="M16 23.7188C16.0587 23.7187 16.1152 23.7289 16.1678 23.7476C16.2376 23.7724 16.3001 23.8123 16.3514 23.8631C16.4386 23.9493 16.4939 24.067 16.4995 24.1965C16.5044 24.2701 16.5662 24.5551 16.7296 24.8021C16.882 25.0324 17.0719 25.1645 17.3507 25.1422C17.6971 25.1145 17.8373 24.9912 17.9001 24.9047C17.9753 24.8011 17.9977 24.6684 17.9871 24.568C17.9582 24.2934 18.1574 24.0473 18.432 24.0184C18.7067 23.9895 18.9527 24.1887 18.9816 24.4633C19.0127 24.7587 18.957 25.151 18.7093 25.4922C18.4492 25.8505 18.0216 26.0918 17.4305 26.139C16.7596 26.1927 16.2925 25.8672 16 25.498C15.7075 25.8672 15.2404 26.1927 14.5695 26.139C13.9784 26.0918 13.5508 25.8505 13.2907 25.4922C13.043 25.151 12.9873 24.7587 13.0184 24.4633C13.0473 24.1887 13.2934 23.9895 13.568 24.0184C13.8426 24.0473 14.0418 24.2934 14.0129 24.568C14.0023 24.6684 14.0247 24.8011 14.0999 24.9047C14.1627 24.9912 14.3029 25.1145 14.6493 25.1422C14.9282 25.1645 15.118 25.0324 15.2704 24.8021C15.4338 24.5551 15.4956 24.2701 15.5005 24.1965C15.5026 24.1475 15.5118 24.1002 15.5272 24.0556C15.5526 23.9819 15.5946 23.9164 15.6486 23.8631C15.7393 23.7735 15.8639 23.7186 16 23.7188Z" fill="url(#paint33_radial_28327_3793)"/>
</g>
<defs>
<filter id="filter0_f_28327_3793" x="12.5106" y="23.4454" width="6.97888" height="3.42615" filterUnits="userSpaceOnUse" color-interpolation-filters="sRGB">
<feFlood flood-opacity="0" result="BackgroundImageFix"/>
<feBlend mode="normal" in="SourceGraphic" in2="BackgroundImageFix" result="shape"/>
<feGaussianBlur stdDeviation="0.25" result="effect1_foregroundBlur_28327_3793"/>
</filter>
<filter id="filter1_i_28327_3793" x="2.57031" y="4.39062" width="8.77813" height="8.87813" filterUnits="userSpaceOnUse" color-interpolation-filters="sRGB">
<feFlood flood-opacity="0" result="BackgroundImageFix"/>
<feBlend mode="normal" in="SourceGraphic" in2="BackgroundImageFix" result="shape"/>
<feColorMatrix in="SourceAlpha" type="matrix" values="0 0 0 0 0 0 0 0 0 0 0 0 0 0 0 0 0 0 127 0" result="hardAlpha"/>
<feOffset dx="0.2" dy="0.3"/>
<feGaussianBlur stdDeviation="0.25"/>
<feComposite in2="hardAlpha" operator="arithmetic" k2="-1" k3="1"/>
<feColorMatrix type="matrix" values="0 0 0 0 0.913725 0 0 0 0 0.411765 0 0 0 0 0.501961 0 0 0 0.5 0"/>
<feBlend mode="normal" in2="shape" result="effect1_innerShadow_28327_3793"/>
</filter>
<filter id="filter2_i_28327_3793" x="20.7016" y="4.39062" width="8.72813" height="8.72813" filterUnits="userSpaceOnUse" color-interpolation-filters="sRGB">
<feFlood flood-opacity="0" result="BackgroundImageFix"/>
<feBlend mode="normal" in="SourceGraphic" in2="BackgroundImageFix" result="shape"/>
<feColorMatrix in="SourceAlpha" type="matrix" values="0 0 0 0 0 0 0 0 0 0 0 0 0 0 0 0 0 0 127 0" result="hardAlpha"/>
<feOffset dx="-0.15" dy="0.15"/>
<feGaussianBlur stdDeviation="0.25"/>
<feComposite in2="hardAlpha" operator="arithmetic" k2="-1" k3="1"/>
<feColorMatrix type="matrix" values="0 0 0 0 0.9125 0 0 0 0 0.410625 0 0 0 0 0.502237 0 0 0 0.5 0"/>
<feBlend mode="normal" in2="shape" result="effect1_innerShadow_28327_3793"/>
</filter>
<filter id="filter3_f_28327_3793" x="17.2859" y="9.84753" width="11.5836" height="14.3594" filterUnits="userSpaceOnUse" color-interpolation-filters="sRGB">
<feFlood flood-opacity="0" result="BackgroundImageFix"/>
<feBlend mode="normal" in="SourceGraphic" in2="BackgroundImageFix" result="shape"/>
<feGaussianBlur stdDeviation="0.75" result="effect1_foregroundBlur_28327_3793"/>
</filter>
<filter id="filter4_f_28327_3793" x="20.6828" y="11.3935" width="4.27058" height="3.64143" filterUnits="userSpaceOnUse" color-interpolation-filters="sRGB">
<feFlood flood-opacity="0" result="BackgroundImageFix"/>
<feBlend mode="normal" in="SourceGraphic" in2="BackgroundImageFix" result="shape"/>
<feGaussianBlur stdDeviation="0.2" result="effect1_foregroundBlur_28327_3793"/>
</filter>
<filter id="filter5_f_28327_3793" x="8.32668" y="9.69375" width="4.94825" height="4.50874" filterUnits="userSpaceOnUse" color-interpolation-filters="sRGB">
<feFlood flood-opacity="0" result="BackgroundImageFix"/>
<feBlend mode="normal" in="SourceGraphic" in2="BackgroundImageFix" result="shape"/>
<feGaussianBlur stdDeviation="0.2" result="effect1_foregroundBlur_28327_3793"/>
</filter>
<linearGradient id="paint0_linear_28327_3793" x1="16" y1="3.03125" x2="16" y2="28.9688" gradientUnits="userSpaceOnUse">
<stop stop-color="#FEBD86"/>
<stop offset="1" stop-color="#FBA27F"/>
</linearGradient>
<radialGradient id="paint1_radial_28327_3793" cx="0" cy="0" r="1" gradientUnits="userSpaceOnUse" gradientTransform="translate(3.8125 18.2813) rotate(31.1088) scale(4.23389 11.9916)">
<stop stop-color="#B9886A"/>
<stop offset="1" stop-color="#B9886A" stop-opacity="0"/>
</radialGradient>
<radialGradient id="paint2_radial_28327_3793" cx="0" cy="0" r="1" gradientUnits="userSpaceOnUse" gradientTransform="translate(20 4.03125) rotate(43.2987) scale(4.46558 6.9451)">
<stop stop-color="#D09F75"/>
<stop offset="1" stop-color="#CB976A" stop-opacity="0"/>
</radialGradient>
<radialGradient id="paint3_radial_28327_3793" cx="0" cy="0" r="1" gradientUnits="userSpaceOnUse" gradientTransform="translate(2 8.40625) rotate(4.80349) scale(7.46371 12.3629)">
<stop stop-color="#D09F75"/>
<stop offset="1" stop-color="#CB976A" stop-opacity="0"/>
</radialGradient>
<radialGradient id="paint4_radial_28327_3793" cx="0" cy="0" r="1" gradientUnits="userSpaceOnUse" gradientTransform="translate(29.625 6.21875) rotate(139.525) scale(6.1622 5.29375)">
<stop stop-color="#FFDAAE"/>
<stop offset="1" stop-color="#FFDAAE" stop-opacity="0"/>
</radialGradient>
<radialGradient id="paint5_radial_28327_3793" cx="0" cy="0" r="1" gradientUnits="userSpaceOnUse" gradientTransform="translate(12.75 4.65625) rotate(150.945) scale(4.50434 6.47726)">
<stop offset="0.1469" stop-color="#FFDAAE"/>
<stop offset="1" stop-color="#FFDAAE" stop-opacity="0"/>
</radialGradient>
<radialGradient id="paint6_radial_28327_3793" cx="0" cy="0" r="1" gradientUnits="userSpaceOnUse" gradientTransform="translate(28.125 14.7187) rotate(-134.661) scale(7.46895 4.24884)">
<stop stop-color="#F8A583"/>
<stop offset="1" stop-color="#F8A583" stop-opacity="0"/>
</radialGradient>
<radialGradient id="paint7_radial_28327_3793" cx="0" cy="0" r="1" gradientUnits="userSpaceOnUse" gradientTransform="translate(3.3125 14.4063) rotate(-10.2512) scale(5.9703 3.97299)">
<stop stop-color="#D48670"/>
<stop offset="1" stop-color="#D48670" stop-opacity="0"/>
</radialGradient>
<radialGradient id="paint8_radial_28327_3793" cx="0" cy="0" r="1" gradientUnits="userSpaceOnUse" gradientTransform="translate(2.75 25.0938) rotate(-43.6801) scale(9.59268 25.9243)">
<stop stop-color="#D48670"/>
<stop offset="1" stop-color="#D48670" stop-opacity="0"/>
</radialGradient>
<radialGradient id="paint9_radial_28327_3793" cx="0" cy="0" r="1" gradientUnits="userSpaceOnUse" gradientTransform="translate(16 29.4062) rotate(-90) scale(7.875 14.5)">
<stop stop-color="#C8656A"/>
<stop offset="1" stop-color="#C8656A" stop-opacity="0"/>
</radialGradient>
<radialGradient id="paint10_radial_28327_3793" cx="0" cy="0" r="1" gradientUnits="userSpaceOnUse" gradientTransform="translate(13.3125 30.5313) rotate(-87.7542) scale(3.18995 8.51062)">
<stop stop-color="#C8656A"/>
<stop offset="1" stop-color="#C8656A" stop-opacity="0"/>
</radialGradient>
<radialGradient id="paint11_radial_28327_3793" cx="0" cy="0" r="1" gradientUnits="userSpaceOnUse" gradientTransform="translate(21.625 30.5313) rotate(-93.3665) scale(3.19301 8.51878)">
<stop stop-color="#C8656A"/>
<stop offset="1" stop-color="#C8656A" stop-opacity="0"/>
</radialGradient>
<linearGradient id="paint12_linear_28327_3793" x1="15.0312" y1="21.2813" x2="16.5625" y2="23.0312" gradientUnits="userSpaceOnUse">
<stop stop-color="#F03273"/>
<stop offset="1" stop-color="#FF32AF"/>
</linearGradient>
<radialGradient id="paint13_radial_28327_3793" cx="0" cy="0" r="1" gradientUnits="userSpaceOnUse" gradientTransform="translate(16.7656 21.8594) rotate(-171.87) scale(2.54116 2.45548)">
<stop offset="0.451843" stop-color="#D53238" stop-opacity="0"/>
<stop offset="1" stop-color="#D53238"/>
</radialGradient>
<radialGradient id="paint14_radial_28327_3793" cx="0" cy="0" r="1" gradientUnits="userSpaceOnUse" gradientTransform="translate(17.3359 21.4766) rotate(151.589) scale(1.51887 0.892159)">
<stop stop-color="#FF8AD5"/>
<stop offset="0.663187" stop-color="#FF6CCB" stop-opacity="0"/>
</radialGradient>
<linearGradient id="paint15_linear_28327_3793" x1="12.7266" y1="18.5156" x2="11.8673" y2="18.5156" gradientUnits="userSpaceOnUse">
<stop offset="0.225" stop-color="#594C4F"/>
<stop offset="1" stop-color="#392833"/>
</linearGradient>
<linearGradient id="paint16_linear_28327_3793" x1="12.9585" y1="20.0593" x2="12.9585" y2="18.65" gradientUnits="userSpaceOnUse">
<stop stop-color="#552D52"/>
<stop offset="1" stop-color="#552D52" stop-opacity="0"/>
</linearGradient>
<radialGradient id="paint17_radial_28327_3793" cx="0" cy="0" r="1" gradientUnits="userSpaceOnUse" gradientTransform="translate(12.2732 18.6952) rotate(-109.297) scale(1.73269 1.67065)">
<stop offset="0.813951" stop-color="#594C4F" stop-opacity="0"/>
<stop offset="1" stop-color="#594C4F"/>
</radialGradient>
<linearGradient id="paint18_linear_28327_3793" x1="20.7266" y1="18.5156" x2="19.8673" y2="18.5156" gradientUnits="userSpaceOnUse">
<stop offset="0.225" stop-color="#594C4F"/>
<stop offset="1" stop-color="#392833"/>
</linearGradient>
<linearGradient id="paint19_linear_28327_3793" x1="20.9585" y1="20.0593" x2="20.9585" y2="18.65" gradientUnits="userSpaceOnUse">
<stop stop-color="#552D52"/>
<stop offset="1" stop-color="#552D52" stop-opacity="0"/>
</linearGradient>
<radialGradient id="paint20_radial_28327_3793" cx="0" cy="0" r="1" gradientUnits="userSpaceOnUse" gradientTransform="translate(20.2732 18.6952) rotate(-109.297) scale(1.73269 1.67065)">
<stop offset="0.813951" stop-color="#594C4F" stop-opacity="0"/>
<stop offset="1" stop-color="#594C4F"/>
</radialGradient>
<radialGradient id="paint21_radial_28327_3793" cx="0" cy="0" r="1" gradientUnits="userSpaceOnUse" gradientTransform="translate(11.1484 9.90625) rotate(-161.626) scale(6.93975 10.2645)">
<stop stop-color="#FD9988"/>
<stop offset="1" stop-color="#FF8199"/>
</radialGradient>
<radialGradient id="paint22_radial_28327_3793" cx="0" cy="0" r="1" gradientUnits="userSpaceOnUse" gradientTransform="translate(4.81247 13.8438) rotate(-58.05) scale(6.85024 7.04011)">
<stop stop-color="#FFCFB5"/>
<stop offset="0.867018" stop-color="#FFCFB5" stop-opacity="0"/>
</radialGradient>
<radialGradient id="paint23_radial_28327_3793" cx="0" cy="0" r="1" gradientUnits="userSpaceOnUse" gradientTransform="translate(22.125 11.4688) rotate(-44.2043) scale(6.36457 9.41379)">
<stop stop-color="#FFAD98"/>
<stop offset="1" stop-color="#FF8199"/>
</radialGradient>
<radialGradient id="paint24_radial_28327_3793" cx="0" cy="0" r="1" gradientUnits="userSpaceOnUse" gradientTransform="translate(21.3125 13.6562) rotate(-43.76) scale(10.2112 9.9649)">
<stop stop-color="#FFCFB5"/>
<stop offset="0.867018" stop-color="#FFCFB5" stop-opacity="0"/>
</radialGradient>
<radialGradient id="paint25_radial_28327_3793" cx="0" cy="0" r="1" gradientUnits="userSpaceOnUse" gradientTransform="translate(22.625 11.5938) rotate(-41.6769) scale(6.86164 11.4936)">
<stop stop-color="#FFCFB5"/>
<stop offset="0.239722" stop-color="#FFCFB5" stop-opacity="0"/>
</radialGradient>
<radialGradient id="paint26_radial_28327_3793" cx="0" cy="0" r="1" gradientUnits="userSpaceOnUse" gradientTransform="translate(25.6978 18.8156) rotate(-173.201) scale(5.47641 15.9242)">
<stop offset="0.110122" stop-color="#FFDA9F"/>
<stop offset="1" stop-color="#FFDA9F" stop-opacity="0"/>
</radialGradient>
<linearGradient id="paint27_linear_28327_3793" x1="22.5469" y1="11.7031" x2="22.5469" y2="14.3906" gradientUnits="userSpaceOnUse">
<stop stop-color="#FFCE9D" stop-opacity="0"/>
<stop offset="0.208333" stop-color="#FFD6AC"/>
<stop offset="0.755208" stop-color="#FFD9B4"/>
<stop offset="1" stop-color="#FFCE9D" stop-opacity="0"/>
</linearGradient>
<linearGradient id="paint28_linear_28327_3793" x1="13.2201" y1="11.4274" x2="10.5449" y2="11.1704" gradientUnits="userSpaceOnUse">
<stop stop-color="#FFCE9D" stop-opacity="0"/>
<stop offset="0.208333" stop-color="#FFD6AC"/>
<stop offset="0.755208" stop-color="#FFD9B4"/>
<stop offset="1" stop-color="#FFCE9D" stop-opacity="0"/>
</linearGradient>
<radialGradient id="paint29_radial_28327_3793" cx="0" cy="0" r="1" gradientUnits="userSpaceOnUse" gradientTransform="translate(14.7553 24.5625) rotate(104.087) scale(1.46596 1.73616)">
<stop offset="0.550264" stop-color="#4A2D2A"/>
<stop offset="0.725313" stop-color="#625358"/>
<stop offset="1" stop-color="#4C2E4C"/>
</radialGradient>
<radialGradient id="paint30_radial_28327_3793" cx="0" cy="0" r="1" gradientUnits="userSpaceOnUse" gradientTransform="translate(13.4297 24.3359) rotate(60.5364) scale(1.38184 1.59746)">
<stop stop-color="#492F30"/>
<stop offset="1" stop-color="#492F30" stop-opacity="0"/>
</radialGradient>
<radialGradient id="paint31_radial_28327_3793" cx="0" cy="0" r="1" gradientUnits="userSpaceOnUse" gradientTransform="translate(17.3047 24.1797) rotate(78.9646) scale(1.91828 1.60689)">
<stop offset="0.550264" stop-color="#4A2D2A"/>
<stop offset="0.725313" stop-color="#625358"/>
<stop offset="1" stop-color="#4C2E4C"/>
</radialGradient>
<radialGradient id="paint32_radial_28327_3793" cx="0" cy="0" r="1" gradientUnits="userSpaceOnUse" gradientTransform="translate(18.5703 24.3359) rotate(119.464) scale(1.38184 1.59746)">
<stop stop-color="#492F30"/>
<stop offset="1" stop-color="#492F30" stop-opacity="0"/>
</radialGradient>
<radialGradient id="paint33_radial_28327_3793" cx="0" cy="0" r="1" gradientUnits="userSpaceOnUse" gradientTransform="translate(16.0781 24.2656) rotate(92.8625) scale(1.56445 1.59277)">
<stop stop-color="#492F30"/>
<stop offset="1" stop-color="#492F30" stop-opacity="0"/>
</radialGradient>
<clipPath id="clip0_28327_3793">
<rect width="32" height="32" fill="white"/>
</clipPath>
</defs>
</svg>
