<svg width="32" height="32" viewBox="0 0 32 32" fill="none" xmlns="http://www.w3.org/2000/svg">
<g clip-path="url(#clip0_20020_6080)">
<path d="M24.059 8.19617C23.1134 8.23268 22.5545 9.00698 22.559 9.94618C22.2024 9.50751 21.6641 9.13886 21.059 9.19618C20.3168 9.2665 19.4679 9.98399 19.559 10.9462L20.059 15.4462C19.559 13.9462 18.559 13.9462 18.059 13.9462C17.059 13.9462 15.9733 15.3993 16.9733 16.8993C16.9733 16.8993 19.2199 20.0896 20.059 23.4462C20.5449 25.3896 22.559 26.9462 24.559 26.9462C27.4905 26.9462 29.559 24.4462 30.059 21.9462L31.059 14.4462C31.1575 13.6236 30.6915 12.7164 29.5325 12.5776C29.1042 12.5263 28.8654 12.6892 28.559 12.9462V11.4462C28.6002 10.6188 27.8606 10.0466 27.0332 10.0054C26.5261 9.98018 26.0652 10.2098 25.775 10.582V9.94618C25.7377 8.9804 25.0248 8.15888 24.059 8.19617Z" fill="url(#paint0_radial_20020_6080)"/>
<path d="M18.059 13.9462C18.559 13.9462 19.559 13.9462 20.059 15.4462C20.1895 15.8376 20.3012 16.1337 20.3872 16.5087C20.934 19.6024 20.462 20.9248 19.6199 22.0155C18.6194 19.2369 16.9733 16.8993 16.9733 16.8993C15.9733 15.3993 17.059 13.9462 18.059 13.9462Z" fill="url(#paint1_radial_20020_6080)"/>
<path d="M18.059 13.9462C18.559 13.9462 19.559 13.9462 20.059 15.4462C20.1895 15.8376 20.3012 16.1337 20.3872 16.5087C20.934 19.6024 20.462 20.9248 19.6199 22.0155C18.6194 19.2369 16.9733 16.8993 16.9733 16.8993C15.9733 15.3993 17.059 13.9462 18.059 13.9462Z" fill="url(#paint2_radial_20020_6080)"/>
<path d="M18.059 13.9462C18.559 13.9462 19.559 13.9462 20.059 15.4462C20.1895 15.8376 20.3012 16.1337 20.3872 16.5087C20.934 19.6024 20.462 20.9248 19.6199 22.0155C18.6194 19.2369 16.9733 16.8993 16.9733 16.8993C15.9733 15.3993 17.059 13.9462 18.059 13.9462Z" fill="url(#paint3_linear_20020_6080)"/>
<path d="M18.059 13.9462C18.559 13.9462 19.559 13.9462 20.059 15.4462C20.1895 15.8376 20.3012 16.1337 20.3872 16.5087C20.934 19.6024 20.462 20.9248 19.6199 22.0155C18.6194 19.2369 16.9733 16.8993 16.9733 16.8993C15.9733 15.3993 17.059 13.9462 18.059 13.9462Z" fill="url(#paint4_radial_20020_6080)"/>
<path d="M18.059 13.9462C18.559 13.9462 19.559 13.9462 20.059 15.4462C20.1895 15.8376 20.3012 16.1337 20.3872 16.5087C20.934 19.6024 20.462 20.9248 19.6199 22.0155C18.6194 19.2369 16.9733 16.8993 16.9733 16.8993C15.9733 15.3993 17.059 13.9462 18.059 13.9462Z" fill="url(#paint5_radial_20020_6080)"/>
<path d="M22.559 9.94608C22.2024 9.50741 21.6641 9.13876 21.059 9.19608C20.3168 9.2664 19.4679 9.98389 19.559 10.9461L20.0405 15.157C20.2123 16.8289 22.0825 16.5867 22.9184 15.157C22.6293 13.782 22.6059 12.3367 22.559 9.94608Z" fill="url(#paint6_radial_20020_6080)"/>
<path d="M22.559 9.94608C22.2024 9.50741 21.6641 9.13876 21.059 9.19608C20.3168 9.2664 19.4679 9.98389 19.559 10.9461L20.0405 15.157C20.2123 16.8289 22.0825 16.5867 22.9184 15.157C22.6293 13.782 22.6059 12.3367 22.559 9.94608Z" fill="url(#paint7_linear_20020_6080)"/>
<path d="M22.559 9.94608C22.2024 9.50741 21.6641 9.13876 21.059 9.19608C20.3168 9.2664 19.4679 9.98389 19.559 10.9461L20.0405 15.157C20.2123 16.8289 22.0825 16.5867 22.9184 15.157C22.6293 13.782 22.6059 12.3367 22.559 9.94608Z" fill="url(#paint8_linear_20020_6080)"/>
<path d="M22.559 9.94608C22.2024 9.50741 21.6641 9.13876 21.059 9.19608C20.3168 9.2664 19.4679 9.98389 19.559 10.9461L20.0405 15.157C20.2123 16.8289 22.0825 16.5867 22.9184 15.157C22.6293 13.782 22.6059 12.3367 22.559 9.94608Z" fill="url(#paint9_linear_20020_6080)"/>
<path d="M22.559 9.94608C22.2024 9.50741 21.6641 9.13876 21.059 9.19608C20.3168 9.2664 19.4679 9.98389 19.559 10.9461L20.0405 15.157C20.2123 16.8289 22.0825 16.5867 22.9184 15.157C22.6293 13.782 22.6059 12.3367 22.559 9.94608Z" fill="url(#paint10_radial_20020_6080)"/>
<ellipse cx="0.839988" cy="1.17091" rx="0.839988" ry="1.17091" transform="matrix(-0.926391 0.376563 0.376563 0.926391 21.766 9.19019)" fill="url(#paint11_radial_20020_6080)" fill-opacity="0.6"/>
<path d="M24.059 8.19617C23.1133 8.23268 22.5545 9.00698 22.559 9.94618C22.5703 12.259 22.6684 14.0868 22.9184 15.1649C23.559 16.3055 24.8247 16.118 25.4731 15.5477C25.3325 14.8055 25.2234 13.3499 25.3676 12.0516C25.4575 11.243 25.5981 10.868 25.775 10.582V9.94618C25.7377 8.9804 25.0248 8.15888 24.059 8.19617Z" fill="url(#paint12_radial_20020_6080)"/>
<path d="M24.059 8.19617C23.1133 8.23268 22.5545 9.00698 22.559 9.94618C22.5703 12.259 22.6684 14.0868 22.9184 15.1649C23.559 16.3055 24.8247 16.118 25.4731 15.5477C25.3325 14.8055 25.2234 13.3499 25.3676 12.0516C25.4575 11.243 25.5981 10.868 25.775 10.582V9.94618C25.7377 8.9804 25.0248 8.15888 24.059 8.19617Z" fill="url(#paint13_linear_20020_6080)"/>
<path d="M24.059 8.19617C23.1133 8.23268 22.5545 9.00698 22.559 9.94618C22.5703 12.259 22.6684 14.0868 22.9184 15.1649C23.559 16.3055 24.8247 16.118 25.4731 15.5477C25.3325 14.8055 25.2234 13.3499 25.3676 12.0516C25.4575 11.243 25.5981 10.868 25.775 10.582V9.94618C25.7377 8.9804 25.0248 8.15888 24.059 8.19617Z" fill="url(#paint14_radial_20020_6080)"/>
<ellipse cx="0.963866" cy="1.17091" rx="0.963866" ry="1.17091" transform="matrix(-0.868386 0.495888 0.495888 0.868386 24.8978 7.96997)" fill="url(#paint15_radial_20020_6080)"/>
<path d="M28.559 12.9462V11.4462C28.6002 10.6188 27.8606 10.0466 27.0332 10.0054C26.5261 9.98018 26.0652 10.2099 25.775 10.582C25.5271 10.8997 25.3808 11.6932 25.3325 12.5165C25.0278 17.704 26.885 17.6515 27.5747 16.9618C27.6293 16.4305 27.8143 14.6728 28.0122 14.1259C28.1528 13.5009 28.3168 13.1962 28.559 12.9462Z" fill="url(#paint16_radial_20020_6080)"/>
<path d="M28.559 12.9462V11.4462C28.6002 10.6188 27.8606 10.0466 27.0332 10.0054C26.5261 9.98018 26.0652 10.2099 25.775 10.582C25.5271 10.8997 25.3808 11.6932 25.3325 12.5165C25.0278 17.704 26.885 17.6515 27.5747 16.9618C27.6293 16.4305 27.8143 14.6728 28.0122 14.1259C28.1528 13.5009 28.3168 13.1962 28.559 12.9462Z" fill="url(#paint17_linear_20020_6080)"/>
<path d="M28.559 12.9462V11.4462C28.6002 10.6188 27.8606 10.0466 27.0332 10.0054C26.5261 9.98018 26.0652 10.2099 25.775 10.582C25.5271 10.8997 25.3808 11.6932 25.3325 12.5165C25.0278 17.704 26.885 17.6515 27.5747 16.9618C27.6293 16.4305 27.8143 14.6728 28.0122 14.1259C28.1528 13.5009 28.3168 13.1962 28.559 12.9462Z" fill="url(#paint18_radial_20020_6080)"/>
<ellipse cx="0.839988" cy="1.17091" rx="0.839988" ry="1.17091" transform="matrix(-0.943175 0.332297 0.332297 0.943175 28.0481 9.94617)" fill="url(#paint19_radial_20020_6080)"/>
<path d="M31.0591 14.4461C31.1576 13.6236 30.6916 12.7163 29.5325 12.5775C29.1042 12.5263 28.8654 12.6892 28.5591 12.9461C27.9232 13.4794 27.6684 15.8524 27.5747 17.1805C27.9524 18.6668 28.7778 19.8836 30.264 20.4089L31.0591 14.4461Z" fill="url(#paint20_radial_20020_6080)"/>
<path d="M31.0591 14.4461C31.1576 13.6236 30.6916 12.7163 29.5325 12.5775C29.1042 12.5263 28.8654 12.6892 28.5591 12.9461C27.9232 13.4794 27.6684 15.8524 27.5747 17.1805C27.9524 18.6668 28.7778 19.8836 30.264 20.4089L31.0591 14.4461Z" fill="url(#paint21_linear_20020_6080)"/>
<path d="M31.0591 14.4461C31.1576 13.6236 30.6916 12.7163 29.5325 12.5775C29.1042 12.5263 28.8654 12.6892 28.5591 12.9461C27.9232 13.4794 27.6684 15.8524 27.5747 17.1805C27.9524 18.6668 28.7778 19.8836 30.264 20.4089L31.0591 14.4461Z" fill="url(#paint22_radial_20020_6080)"/>
<g filter="url(#filter0_f_20020_6080)">
<path d="M24.7044 24.637C27.0202 22.6094 27.7656 18.9708 28.5771 16.7393C29.1869 15.0622 30.4027 16.076 30.2866 16.9469C30.1443 18.0141 29.8578 20.3649 29.6138 21.8774C29.3089 23.7679 27.6279 25.4871 26.4647 25.93C24.8707 26.5369 22.5311 26.5399 24.7044 24.637Z" fill="url(#paint23_radial_20020_6080)"/>
</g>
<ellipse cx="0.839988" cy="1.17091" rx="0.839988" ry="1.17091" transform="matrix(-0.943175 0.332297 0.332297 0.943175 30.5093 12.5681)" fill="url(#paint24_radial_20020_6080)"/>
<path d="M7.94096 8.19617C8.88665 8.23268 9.44554 9.00698 9.44096 9.94618C9.79764 9.50751 10.3359 9.13886 10.941 9.19618C11.6832 9.2665 12.5321 9.98399 12.441 10.9462L11.941 15.4462C12.441 13.9462 13.441 13.9462 13.941 13.9462C14.941 13.9462 16.0267 15.3993 15.0267 16.8993C15.0267 16.8993 12.7801 20.0896 11.941 23.4462C11.4551 25.3896 9.44096 26.9462 7.44096 26.9462C4.50953 26.9462 2.44096 24.4462 1.94096 21.9462L0.94096 14.4462C0.84248 13.6236 1.30847 12.7164 2.46751 12.5776C2.89584 12.5263 3.1346 12.6892 3.44096 12.9462V11.4462C3.39976 10.6188 4.13938 10.0466 4.96679 10.0054C5.47393 9.98018 5.93477 10.2098 6.22502 10.582V9.94618C6.26231 8.9804 6.97519 8.15888 7.94096 8.19617Z" fill="url(#paint25_radial_20020_6080)"/>
<path d="M13.941 13.9462C13.441 13.9462 12.441 13.9462 11.941 15.4462C11.8105 15.8376 11.6988 16.1337 11.6128 16.5087C11.066 19.6024 11.538 20.9248 12.3801 22.0155C13.3806 19.2369 15.0267 16.8993 15.0267 16.8993C16.0267 15.3993 14.941 13.9462 13.941 13.9462Z" fill="url(#paint26_radial_20020_6080)"/>
<path d="M13.941 13.9462C13.441 13.9462 12.441 13.9462 11.941 15.4462C11.8105 15.8376 11.6988 16.1337 11.6128 16.5087C11.066 19.6024 11.538 20.9248 12.3801 22.0155C13.3806 19.2369 15.0267 16.8993 15.0267 16.8993C16.0267 15.3993 14.941 13.9462 13.941 13.9462Z" fill="url(#paint27_radial_20020_6080)"/>
<path d="M13.941 13.9462C13.441 13.9462 12.441 13.9462 11.941 15.4462C11.8105 15.8376 11.6988 16.1337 11.6128 16.5087C11.066 19.6024 11.538 20.9248 12.3801 22.0155C13.3806 19.2369 15.0267 16.8993 15.0267 16.8993C16.0267 15.3993 14.941 13.9462 13.941 13.9462Z" fill="url(#paint28_linear_20020_6080)"/>
<path d="M13.941 13.9462C13.441 13.9462 12.441 13.9462 11.941 15.4462C11.8105 15.8376 11.6988 16.1337 11.6128 16.5087C11.066 19.6024 11.538 20.9248 12.3801 22.0155C13.3806 19.2369 15.0267 16.8993 15.0267 16.8993C16.0267 15.3993 14.941 13.9462 13.941 13.9462Z" fill="url(#paint29_radial_20020_6080)"/>
<path d="M13.941 13.9462C13.441 13.9462 12.441 13.9462 11.941 15.4462C11.8105 15.8376 11.6988 16.1337 11.6128 16.5087C11.066 19.6024 11.538 20.9248 12.3801 22.0155C13.3806 19.2369 15.0267 16.8993 15.0267 16.8993C16.0267 15.3993 14.941 13.9462 13.941 13.9462Z" fill="url(#paint30_radial_20020_6080)"/>
<path d="M9.44095 9.94608C9.79763 9.50741 10.3359 9.13876 10.941 9.19608C11.6832 9.2664 12.5321 9.98389 12.441 10.9461L11.9595 15.157C11.7877 16.8289 9.91753 16.5867 9.08159 15.157C9.37065 13.782 9.39409 12.3367 9.44095 9.94608Z" fill="url(#paint31_radial_20020_6080)"/>
<path d="M9.44095 9.94608C9.79763 9.50741 10.3359 9.13876 10.941 9.19608C11.6832 9.2664 12.5321 9.98389 12.441 10.9461L11.9595 15.157C11.7877 16.8289 9.91753 16.5867 9.08159 15.157C9.37065 13.782 9.39409 12.3367 9.44095 9.94608Z" fill="url(#paint32_linear_20020_6080)"/>
<path d="M9.44095 9.94608C9.79763 9.50741 10.3359 9.13876 10.941 9.19608C11.6832 9.2664 12.5321 9.98389 12.441 10.9461L11.9595 15.157C11.7877 16.8289 9.91753 16.5867 9.08159 15.157C9.37065 13.782 9.39409 12.3367 9.44095 9.94608Z" fill="url(#paint33_linear_20020_6080)"/>
<path d="M9.44095 9.94608C9.79763 9.50741 10.3359 9.13876 10.941 9.19608C11.6832 9.2664 12.5321 9.98389 12.441 10.9461L11.9595 15.157C11.7877 16.8289 9.91753 16.5867 9.08159 15.157C9.37065 13.782 9.39409 12.3367 9.44095 9.94608Z" fill="url(#paint34_linear_20020_6080)"/>
<path d="M9.44095 9.94608C9.79763 9.50741 10.3359 9.13876 10.941 9.19608C11.6832 9.2664 12.5321 9.98389 12.441 10.9461L11.9595 15.157C11.7877 16.8289 9.91753 16.5867 9.08159 15.157C9.37065 13.782 9.39409 12.3367 9.44095 9.94608Z" fill="url(#paint35_radial_20020_6080)"/>
<ellipse cx="10.5713" cy="10.5912" rx="0.839989" ry="1.17091" transform="rotate(22.1209 10.5713 10.5912)" fill="url(#paint36_radial_20020_6080)" fill-opacity="0.6"/>
<path d="M7.94097 8.19617C8.88665 8.23268 9.44554 9.00698 9.44097 9.94618C9.42971 12.259 9.33159 14.0868 9.08159 15.1649C8.44096 16.3055 7.17534 16.118 6.5269 15.5477C6.66753 14.8055 6.77662 13.3499 6.63237 12.0516C6.54253 11.243 6.4019 10.868 6.22503 10.582V9.94618C6.26232 8.9804 6.97519 8.15888 7.94097 8.19617Z" fill="url(#paint37_radial_20020_6080)"/>
<path d="M7.94097 8.19617C8.88665 8.23268 9.44554 9.00698 9.44097 9.94618C9.42971 12.259 9.33159 14.0868 9.08159 15.1649C8.44096 16.3055 7.17534 16.118 6.5269 15.5477C6.66753 14.8055 6.77662 13.3499 6.63237 12.0516C6.54253 11.243 6.4019 10.868 6.22503 10.582V9.94618C6.26232 8.9804 6.97519 8.15888 7.94097 8.19617Z" fill="url(#paint38_linear_20020_6080)"/>
<path d="M7.94097 8.19617C8.88665 8.23268 9.44554 9.00698 9.44097 9.94618C9.42971 12.259 9.33159 14.0868 9.08159 15.1649C8.44096 16.3055 7.17534 16.118 6.5269 15.5477C6.66753 14.8055 6.77662 13.3499 6.63237 12.0516C6.54253 11.243 6.4019 10.868 6.22503 10.582V9.94618C6.26232 8.9804 6.97519 8.15888 7.94097 8.19617Z" fill="url(#paint39_radial_20020_6080)"/>
<ellipse cx="7.35862" cy="9.46474" rx="0.963866" ry="1.17091" transform="rotate(29.7284 7.35862 9.46474)" fill="url(#paint40_radial_20020_6080)"/>
<path d="M3.44096 12.9462V11.4462C3.39977 10.6188 4.13939 10.0466 4.96679 10.0054C5.47394 9.98018 5.93477 10.2099 6.22503 10.582C6.47288 10.8997 6.61917 11.6932 6.66753 12.5165C6.97221 17.704 5.11502 17.6515 4.42535 16.9618C4.37066 16.4305 4.1857 14.6728 3.98783 14.1259C3.84721 13.5009 3.68315 13.1962 3.44096 12.9462Z" fill="url(#paint41_radial_20020_6080)"/>
<path d="M3.44096 12.9462V11.4462C3.39977 10.6188 4.13939 10.0466 4.96679 10.0054C5.47394 9.98018 5.93477 10.2099 6.22503 10.582C6.47288 10.8997 6.61917 11.6932 6.66753 12.5165C6.97221 17.704 5.11502 17.6515 4.42535 16.9618C4.37066 16.4305 4.1857 14.6728 3.98783 14.1259C3.84721 13.5009 3.68315 13.1962 3.44096 12.9462Z" fill="url(#paint42_linear_20020_6080)"/>
<path d="M3.44096 12.9462V11.4462C3.39977 10.6188 4.13939 10.0466 4.96679 10.0054C5.47394 9.98018 5.93477 10.2099 6.22503 10.582C6.47288 10.8997 6.61917 11.6932 6.66753 12.5165C6.97221 17.704 5.11502 17.6515 4.42535 16.9618C4.37066 16.4305 4.1857 14.6728 3.98783 14.1259C3.84721 13.5009 3.68315 13.1962 3.44096 12.9462Z" fill="url(#paint43_radial_20020_6080)"/>
<ellipse cx="4.35502" cy="11.3297" rx="0.839989" ry="1.17091" transform="rotate(19.4082 4.35502 11.3297)" fill="url(#paint44_radial_20020_6080)"/>
<path d="M0.940921 14.4461C0.84244 13.6236 1.30843 12.7163 2.46747 12.5775C2.8958 12.5263 3.13456 12.6892 3.44092 12.9461C4.07682 13.4794 4.33156 15.8524 4.42531 17.1805C4.04757 18.6668 3.22218 19.8836 1.73595 20.4089L0.940921 14.4461Z" fill="url(#paint45_radial_20020_6080)"/>
<path d="M0.940921 14.4461C0.84244 13.6236 1.30843 12.7163 2.46747 12.5775C2.8958 12.5263 3.13456 12.6892 3.44092 12.9461C4.07682 13.4794 4.33156 15.8524 4.42531 17.1805C4.04757 18.6668 3.22218 19.8836 1.73595 20.4089L0.940921 14.4461Z" fill="url(#paint46_linear_20020_6080)"/>
<path d="M0.940921 14.4461C0.84244 13.6236 1.30843 12.7163 2.46747 12.5775C2.8958 12.5263 3.13456 12.6892 3.44092 12.9461C4.07682 13.4794 4.33156 15.8524 4.42531 17.1805C4.04757 18.6668 3.22218 19.8836 1.73595 20.4089L0.940921 14.4461Z" fill="url(#paint47_radial_20020_6080)"/>
<g filter="url(#filter1_f_20020_6080)">
<path d="M7.29555 24.637C4.97979 22.6094 4.23435 18.9708 3.42292 16.7393C2.81309 15.0622 1.59727 16.076 1.71337 16.9469C1.85567 18.0141 2.14224 20.3649 2.38618 21.8774C2.69111 23.7679 4.37213 25.4871 5.53529 25.93C7.12926 26.5369 9.4689 26.5399 7.29555 24.637Z" fill="url(#paint48_radial_20020_6080)"/>
</g>
<ellipse cx="1.89384" cy="13.9516" rx="0.839989" ry="1.17091" transform="rotate(19.4082 1.89384 13.9516)" fill="url(#paint49_radial_20020_6080)"/>
<path d="M15.5318 5.69773L14.7815 3.69692C14.659 3.37005 14.9006 3.02136 15.2497 3.02136H16.7503C17.0994 3.02136 17.3411 3.37005 17.2185 3.69692L16.4682 5.69773C16.306 6.13032 15.6941 6.13032 15.5318 5.69773Z" fill="#1F8BFB"/>
<path d="M15.5318 5.69773L14.7815 3.69692C14.659 3.37005 14.9006 3.02136 15.2497 3.02136H16.7503C17.0994 3.02136 17.3411 3.37005 17.2185 3.69692L16.4682 5.69773C16.306 6.13032 15.6941 6.13032 15.5318 5.69773Z" fill="url(#paint50_linear_20020_6080)"/>
<path d="M15.5318 5.69773L14.7815 3.69692C14.659 3.37005 14.9006 3.02136 15.2497 3.02136H16.7503C17.0994 3.02136 17.3411 3.37005 17.2185 3.69692L16.4682 5.69773C16.306 6.13032 15.6941 6.13032 15.5318 5.69773Z" fill="url(#paint51_radial_20020_6080)"/>
<path d="M15.5318 5.69773L14.7815 3.69692C14.659 3.37005 14.9006 3.02136 15.2497 3.02136H16.7503C17.0994 3.02136 17.3411 3.37005 17.2185 3.69692L16.4682 5.69773C16.306 6.13032 15.6941 6.13032 15.5318 5.69773Z" fill="url(#paint52_linear_20020_6080)"/>
<path d="M19.2571 6.22069L19.9136 4.20012C20.0215 3.8681 20.4277 3.74603 20.7007 3.96362L21.8675 4.89352C22.1405 5.11111 22.1121 5.53439 21.8125 5.71361L19.9893 6.80428C19.5928 7.04146 19.1143 6.66008 19.2571 6.22069Z" fill="#1F8BFB"/>
<path d="M19.2571 6.22069L19.9136 4.20012C20.0215 3.8681 20.4277 3.74603 20.7007 3.96362L21.8675 4.89352C22.1405 5.11111 22.1121 5.53439 21.8125 5.71361L19.9893 6.80428C19.5928 7.04146 19.1143 6.66008 19.2571 6.22069Z" fill="url(#paint53_linear_20020_6080)"/>
<path d="M19.2571 6.22069L19.9136 4.20012C20.0215 3.8681 20.4277 3.74603 20.7007 3.96362L21.8675 4.89352C22.1405 5.11111 22.1121 5.53439 21.8125 5.71361L19.9893 6.80428C19.5928 7.04146 19.1143 6.66008 19.2571 6.22069Z" fill="url(#paint54_radial_20020_6080)"/>
<path d="M12.9238 6.11222L11.9772 4.15908C11.8249 3.84493 11.4058 3.77957 11.1651 4.03244L10.1142 5.13649C9.87355 5.38937 9.95953 5.80479 10.2808 5.94136L12.2783 6.79045C12.7035 6.97118 13.1253 6.52796 12.9238 6.11222Z" fill="#1F8BFB"/>
<path d="M12.9238 6.11222L11.9772 4.15908C11.8249 3.84493 11.4058 3.77957 11.1651 4.03244L10.1142 5.13649C9.87355 5.38937 9.95953 5.80479 10.2808 5.94136L12.2783 6.79045C12.7035 6.97118 13.1253 6.52796 12.9238 6.11222Z" fill="url(#paint55_linear_20020_6080)"/>
<path d="M12.9238 6.11222L11.9772 4.15908C11.8249 3.84493 11.4058 3.77957 11.1651 4.03244L10.1142 5.13649C9.87355 5.38937 9.95953 5.80479 10.2808 5.94136L12.2783 6.79045C12.7035 6.97118 13.1253 6.52796 12.9238 6.11222Z" fill="url(#paint56_radial_20020_6080)"/>
<path d="M12.9238 6.11222L11.9772 4.15908C11.8249 3.84493 11.4058 3.77957 11.1651 4.03244L10.1142 5.13649C9.87355 5.38937 9.95953 5.80479 10.2808 5.94136L12.2783 6.79045C12.7035 6.97118 13.1253 6.52796 12.9238 6.11222Z" fill="url(#paint57_linear_20020_6080)"/>
</g>
<defs>
<filter id="filter0_f_20020_6080" x="23.324" y="15.3368" width="7.47038" height="11.4531" filterUnits="userSpaceOnUse" color-interpolation-filters="sRGB">
<feFlood flood-opacity="0" result="BackgroundImageFix"/>
<feBlend mode="normal" in="SourceGraphic" in2="BackgroundImageFix" result="shape"/>
<feGaussianBlur stdDeviation="0.25" result="effect1_foregroundBlur_20020_6080"/>
</filter>
<filter id="filter1_f_20020_6080" x="1.20561" y="15.3368" width="7.47038" height="11.4531" filterUnits="userSpaceOnUse" color-interpolation-filters="sRGB">
<feFlood flood-opacity="0" result="BackgroundImageFix"/>
<feBlend mode="normal" in="SourceGraphic" in2="BackgroundImageFix" result="shape"/>
<feGaussianBlur stdDeviation="0.25" result="effect1_foregroundBlur_20020_6080"/>
</filter>
<radialGradient id="paint0_radial_20020_6080" cx="0" cy="0" r="1" gradientUnits="userSpaceOnUse" gradientTransform="translate(24.5094 11.0712) rotate(84.5768) scale(19.8388 11.7863)">
<stop stop-color="#FBB848"/>
<stop offset="0.325134" stop-color="#F8BA29"/>
<stop offset="0.663167" stop-color="#FFBF49"/>
<stop offset="0.796815" stop-color="#FFA15B"/>
<stop offset="0.855766" stop-color="#F98B73"/>
</radialGradient>
<radialGradient id="paint1_radial_20020_6080" cx="0" cy="0" r="1" gradientUnits="userSpaceOnUse" gradientTransform="translate(18.599 16.8212) rotate(62.6969) scale(20.0106 3.59349)">
<stop stop-color="#F9C043"/>
<stop offset="0.259984" stop-color="#FFBD3C"/>
<stop offset="0.674402" stop-color="#F6A731"/>
<stop offset="0.740906" stop-color="#E2924D"/>
</radialGradient>
<radialGradient id="paint2_radial_20020_6080" cx="0" cy="0" r="1" gradientUnits="userSpaceOnUse" gradientTransform="translate(17.478 19.7587) rotate(-28.6861) scale(1.88798 3.65245)">
<stop stop-color="#F98B73"/>
<stop offset="1" stop-color="#F98B73" stop-opacity="0"/>
</radialGradient>
<linearGradient id="paint3_linear_20020_6080" x1="20.6218" y1="15.8212" x2="19.2975" y2="16.3391" gradientUnits="userSpaceOnUse">
<stop stop-color="#D28A03"/>
<stop offset="1" stop-color="#D28A03" stop-opacity="0"/>
</linearGradient>
<radialGradient id="paint4_radial_20020_6080" cx="0" cy="0" r="1" gradientUnits="userSpaceOnUse" gradientTransform="translate(22.1957 20.7629) rotate(-128.442) scale(9.90029 3.45725)">
<stop offset="0.75084" stop-color="#D28A03" stop-opacity="0"/>
<stop offset="1" stop-color="#D28A03"/>
</radialGradient>
<radialGradient id="paint5_radial_20020_6080" cx="0" cy="0" r="1" gradientUnits="userSpaceOnUse" gradientTransform="translate(18.978 16.8524) rotate(154.231) scale(1.00633 3.60287)">
<stop stop-color="#FFCD6C"/>
<stop offset="1" stop-color="#FFC149" stop-opacity="0"/>
</radialGradient>
<radialGradient id="paint6_radial_20020_6080" cx="0" cy="0" r="1" gradientUnits="userSpaceOnUse" gradientTransform="translate(21.2354 13.3211) rotate(84.6766) scale(18.1407 4.21261)">
<stop stop-color="#FFC352"/>
<stop offset="0.272351" stop-color="#FDBD42"/>
<stop offset="0.421894" stop-color="#F2A923"/>
</radialGradient>
<linearGradient id="paint7_linear_20020_6080" x1="20.978" y1="16.4846" x2="19.7229" y2="12.4658" gradientUnits="userSpaceOnUse">
<stop stop-color="#F9BB2A"/>
<stop offset="1" stop-color="#FDC03E" stop-opacity="0"/>
</linearGradient>
<linearGradient id="paint8_linear_20020_6080" x1="23.8842" y1="11.7273" x2="21.603" y2="12.1961" gradientUnits="userSpaceOnUse">
<stop stop-color="#D28A03"/>
<stop offset="1" stop-color="#D28A03" stop-opacity="0"/>
</linearGradient>
<linearGradient id="paint9_linear_20020_6080" x1="18.3217" y1="13.1648" x2="20.228" y2="13.0086" gradientUnits="userSpaceOnUse">
<stop stop-color="#D28A03"/>
<stop offset="1" stop-color="#D28A03" stop-opacity="0"/>
</linearGradient>
<radialGradient id="paint10_radial_20020_6080" cx="0" cy="0" r="1" gradientUnits="userSpaceOnUse" gradientTransform="translate(24.228 15.3523) rotate(-130.43) scale(8.09534 5.45148)">
<stop offset="0.75084" stop-color="#D28A03" stop-opacity="0"/>
<stop offset="1" stop-color="#D28A03"/>
</radialGradient>
<radialGradient id="paint11_radial_20020_6080" cx="0" cy="0" r="1" gradientUnits="userSpaceOnUse" gradientTransform="translate(0.783989 1.24623) rotate(62.683) scale(1.07896 0.89832)">
<stop stop-color="#FECF68"/>
<stop offset="1" stop-color="#F7C658" stop-opacity="0"/>
</radialGradient>
<radialGradient id="paint12_radial_20020_6080" cx="0" cy="0" r="1" gradientUnits="userSpaceOnUse" gradientTransform="translate(25.2172 10.5621) rotate(95.517) scale(23.3145 5.64825)">
<stop stop-color="#FFD93D"/>
<stop offset="0.302596" stop-color="#FCB84B"/>
<stop offset="0.437168" stop-color="#F2A923"/>
</radialGradient>
<linearGradient id="paint13_linear_20020_6080" x1="23.7905" y1="16" x2="22.7461" y2="11.6934" gradientUnits="userSpaceOnUse">
<stop stop-color="#F9BA30"/>
<stop offset="1" stop-color="#FDC03E" stop-opacity="0"/>
</linearGradient>
<radialGradient id="paint14_radial_20020_6080" cx="0" cy="0" r="1" gradientUnits="userSpaceOnUse" gradientTransform="translate(27.0261 14.7885) rotate(-127.261) scale(8.28451 5.44567)">
<stop offset="0.75084" stop-color="#D28A03" stop-opacity="0"/>
<stop offset="1" stop-color="#D28A03"/>
</radialGradient>
<radialGradient id="paint15_radial_20020_6080" cx="0" cy="0" r="1" gradientUnits="userSpaceOnUse" gradientTransform="translate(0.813456 1.2568) rotate(51.9446) scale(1.19597 1.07114)">
<stop stop-color="#FFE65B"/>
<stop offset="1" stop-color="#FFE65D" stop-opacity="0"/>
</radialGradient>
<radialGradient id="paint16_radial_20020_6080" cx="0" cy="0" r="1" gradientUnits="userSpaceOnUse" gradientTransform="translate(27.995 12.2136) rotate(95.99) scale(21.7849 5.72377)">
<stop stop-color="#FFD93D"/>
<stop offset="0.302596" stop-color="#FBB43E"/>
<stop offset="0.437168" stop-color="#F2A626"/>
</radialGradient>
<linearGradient id="paint17_linear_20020_6080" x1="25.299" y1="16.3837" x2="25.4705" y2="13.2736" gradientUnits="userSpaceOnUse">
<stop stop-color="#F9BB2A"/>
<stop offset="1" stop-color="#FDC03E" stop-opacity="0"/>
</linearGradient>
<radialGradient id="paint18_radial_20020_6080" cx="0" cy="0" r="1" gradientUnits="userSpaceOnUse" gradientTransform="translate(29.8296 16.1594) rotate(-129.57) scale(7.98582 5.34932)">
<stop offset="0.75084" stop-color="#D28A03" stop-opacity="0"/>
<stop offset="1" stop-color="#D28A03"/>
</radialGradient>
<radialGradient id="paint19_radial_20020_6080" cx="0" cy="0" r="1" gradientUnits="userSpaceOnUse" gradientTransform="translate(0.783989 1.24623) rotate(62.683) scale(1.07896 0.89832)">
<stop stop-color="#FFE65B"/>
<stop offset="1" stop-color="#FFE65D" stop-opacity="0"/>
</radialGradient>
<radialGradient id="paint20_radial_20020_6080" cx="0" cy="0" r="1" gradientUnits="userSpaceOnUse" gradientTransform="translate(30.4653 14.9461) rotate(95.969) scale(23.4396 6.13729)">
<stop stop-color="#FFD93D"/>
<stop offset="0.302596" stop-color="#FFBA40"/>
<stop offset="0.437168" stop-color="#F2A626"/>
</radialGradient>
<linearGradient id="paint21_linear_20020_6080" x1="27.6967" y1="18.5399" x2="27.7592" y2="16.0867" gradientUnits="userSpaceOnUse">
<stop stop-color="#FDC03E"/>
<stop offset="1" stop-color="#FDC03E" stop-opacity="0"/>
</linearGradient>
<radialGradient id="paint22_radial_20020_6080" cx="0" cy="0" r="1" gradientUnits="userSpaceOnUse" gradientTransform="translate(32.4324 19.1918) rotate(-129.471) scale(8.58043 5.74377)">
<stop offset="0.75084" stop-color="#D28A03" stop-opacity="0"/>
<stop offset="1" stop-color="#D28A03"/>
</radialGradient>
<radialGradient id="paint23_radial_20020_6080" cx="0" cy="0" r="1" gradientUnits="userSpaceOnUse" gradientTransform="translate(29.0871 22.2098) rotate(-161.865) scale(2.44916 9.02353)">
<stop stop-color="#FFCF32"/>
<stop offset="0.214455" stop-color="#FFCE59"/>
<stop offset="1" stop-color="#FFCD5B" stop-opacity="0"/>
</radialGradient>
<radialGradient id="paint24_radial_20020_6080" cx="0" cy="0" r="1" gradientUnits="userSpaceOnUse" gradientTransform="translate(0.783989 1.24623) rotate(62.683) scale(1.07896 0.89832)">
<stop stop-color="#FFE65B"/>
<stop offset="1" stop-color="#FFE65D" stop-opacity="0"/>
</radialGradient>
<radialGradient id="paint25_radial_20020_6080" cx="0" cy="0" r="1" gradientUnits="userSpaceOnUse" gradientTransform="translate(7.49065 11.0712) rotate(95.4232) scale(19.8388 11.7863)">
<stop stop-color="#FBB848"/>
<stop offset="0.325134" stop-color="#F8BA29"/>
<stop offset="0.663167" stop-color="#FFBF49"/>
<stop offset="0.796815" stop-color="#FFA15B"/>
<stop offset="0.855766" stop-color="#F98B73"/>
</radialGradient>
<radialGradient id="paint26_radial_20020_6080" cx="0" cy="0" r="1" gradientUnits="userSpaceOnUse" gradientTransform="translate(13.401 16.8212) rotate(117.303) scale(20.0106 3.59349)">
<stop stop-color="#F9C043"/>
<stop offset="0.259984" stop-color="#FFBD3C"/>
<stop offset="0.674402" stop-color="#F6A731"/>
<stop offset="0.740906" stop-color="#E2924D"/>
</radialGradient>
<radialGradient id="paint27_radial_20020_6080" cx="0" cy="0" r="1" gradientUnits="userSpaceOnUse" gradientTransform="translate(14.522 19.7587) rotate(-151.314) scale(1.88798 3.65245)">
<stop stop-color="#F98B73"/>
<stop offset="1" stop-color="#F98B73" stop-opacity="0"/>
</radialGradient>
<linearGradient id="paint28_linear_20020_6080" x1="11.3782" y1="15.8212" x2="12.7025" y2="16.3391" gradientUnits="userSpaceOnUse">
<stop stop-color="#D28A03"/>
<stop offset="1" stop-color="#D28A03" stop-opacity="0"/>
</linearGradient>
<radialGradient id="paint29_radial_20020_6080" cx="0" cy="0" r="1" gradientUnits="userSpaceOnUse" gradientTransform="translate(9.80431 20.7629) rotate(-51.5579) scale(9.90029 3.45725)">
<stop offset="0.75084" stop-color="#D28A03" stop-opacity="0"/>
<stop offset="1" stop-color="#D28A03"/>
</radialGradient>
<radialGradient id="paint30_radial_20020_6080" cx="0" cy="0" r="1" gradientUnits="userSpaceOnUse" gradientTransform="translate(13.022 16.8524) rotate(25.7693) scale(1.00633 3.60287)">
<stop stop-color="#FFCD6C"/>
<stop offset="1" stop-color="#FFC149" stop-opacity="0"/>
</radialGradient>
<radialGradient id="paint31_radial_20020_6080" cx="0" cy="0" r="1" gradientUnits="userSpaceOnUse" gradientTransform="translate(10.7646 13.3211) rotate(95.3234) scale(18.1407 4.21261)">
<stop stop-color="#FFC352"/>
<stop offset="0.272351" stop-color="#FDBD42"/>
<stop offset="0.421894" stop-color="#F2A923"/>
</radialGradient>
<linearGradient id="paint32_linear_20020_6080" x1="11.022" y1="16.4846" x2="12.2771" y2="12.4658" gradientUnits="userSpaceOnUse">
<stop stop-color="#F9BB2A"/>
<stop offset="1" stop-color="#FDC03E" stop-opacity="0"/>
</linearGradient>
<linearGradient id="paint33_linear_20020_6080" x1="8.1158" y1="11.7273" x2="10.397" y2="12.1961" gradientUnits="userSpaceOnUse">
<stop stop-color="#D28A03"/>
<stop offset="1" stop-color="#D28A03" stop-opacity="0"/>
</linearGradient>
<linearGradient id="paint34_linear_20020_6080" x1="13.6783" y1="13.1648" x2="11.772" y2="13.0086" gradientUnits="userSpaceOnUse">
<stop stop-color="#D28A03"/>
<stop offset="1" stop-color="#D28A03" stop-opacity="0"/>
</linearGradient>
<radialGradient id="paint35_radial_20020_6080" cx="0" cy="0" r="1" gradientUnits="userSpaceOnUse" gradientTransform="translate(7.77205 15.3523) rotate(-49.5698) scale(8.09534 5.45148)">
<stop offset="0.75084" stop-color="#D28A03" stop-opacity="0"/>
<stop offset="1" stop-color="#D28A03"/>
</radialGradient>
<radialGradient id="paint36_radial_20020_6080" cx="0" cy="0" r="1" gradientUnits="userSpaceOnUse" gradientTransform="translate(10.5153 10.6665) rotate(62.683) scale(1.07897 0.89832)">
<stop stop-color="#FECF68"/>
<stop offset="1" stop-color="#F7C658" stop-opacity="0"/>
</radialGradient>
<radialGradient id="paint37_radial_20020_6080" cx="0" cy="0" r="1" gradientUnits="userSpaceOnUse" gradientTransform="translate(6.78282 10.5621) rotate(84.483) scale(23.3145 5.64825)">
<stop stop-color="#FFD93D"/>
<stop offset="0.302596" stop-color="#FCB84B"/>
<stop offset="0.437168" stop-color="#F2A923"/>
</radialGradient>
<linearGradient id="paint38_linear_20020_6080" x1="8.20955" y1="16" x2="9.25392" y2="11.6934" gradientUnits="userSpaceOnUse">
<stop stop-color="#F9BA30"/>
<stop offset="1" stop-color="#FDC03E" stop-opacity="0"/>
</linearGradient>
<radialGradient id="paint39_radial_20020_6080" cx="0" cy="0" r="1" gradientUnits="userSpaceOnUse" gradientTransform="translate(4.9739 14.7885) rotate(-52.7392) scale(8.28451 5.44567)">
<stop offset="0.75084" stop-color="#D28A03" stop-opacity="0"/>
<stop offset="1" stop-color="#D28A03"/>
</radialGradient>
<radialGradient id="paint40_radial_20020_6080" cx="0" cy="0" r="1" gradientUnits="userSpaceOnUse" gradientTransform="translate(7.20821 9.55064) rotate(51.9446) scale(1.19597 1.07114)">
<stop stop-color="#FFE65B"/>
<stop offset="1" stop-color="#FFE65D" stop-opacity="0"/>
</radialGradient>
<radialGradient id="paint41_radial_20020_6080" cx="0" cy="0" r="1" gradientUnits="userSpaceOnUse" gradientTransform="translate(4.00504 12.2136) rotate(84.01) scale(21.7849 5.72377)">
<stop stop-color="#FFD93D"/>
<stop offset="0.302596" stop-color="#FBB43E"/>
<stop offset="0.437168" stop-color="#F2A626"/>
</radialGradient>
<linearGradient id="paint42_linear_20020_6080" x1="6.701" y1="16.3837" x2="6.52948" y2="13.2736" gradientUnits="userSpaceOnUse">
<stop stop-color="#F9BB2A"/>
<stop offset="1" stop-color="#FDC03E" stop-opacity="0"/>
</linearGradient>
<radialGradient id="paint43_radial_20020_6080" cx="0" cy="0" r="1" gradientUnits="userSpaceOnUse" gradientTransform="translate(2.17041 16.1594) rotate(-50.4301) scale(7.98582 5.34932)">
<stop offset="0.75084" stop-color="#D28A03" stop-opacity="0"/>
<stop offset="1" stop-color="#D28A03"/>
</radialGradient>
<radialGradient id="paint44_radial_20020_6080" cx="0" cy="0" r="1" gradientUnits="userSpaceOnUse" gradientTransform="translate(4.29903 11.405) rotate(62.683) scale(1.07897 0.89832)">
<stop stop-color="#FFE65B"/>
<stop offset="1" stop-color="#FFE65D" stop-opacity="0"/>
</radialGradient>
<radialGradient id="paint45_radial_20020_6080" cx="0" cy="0" r="1" gradientUnits="userSpaceOnUse" gradientTransform="translate(1.53468 14.9461) rotate(84.031) scale(23.4396 6.13729)">
<stop stop-color="#FFD93D"/>
<stop offset="0.302596" stop-color="#FFBA40"/>
<stop offset="0.437168" stop-color="#F2A626"/>
</radialGradient>
<linearGradient id="paint46_linear_20020_6080" x1="4.3033" y1="18.5399" x2="4.2408" y2="16.0867" gradientUnits="userSpaceOnUse">
<stop stop-color="#FDC03E"/>
<stop offset="1" stop-color="#FDC03E" stop-opacity="0"/>
</linearGradient>
<radialGradient id="paint47_radial_20020_6080" cx="0" cy="0" r="1" gradientUnits="userSpaceOnUse" gradientTransform="translate(-0.432411 19.1918) rotate(-50.5294) scale(8.58043 5.74377)">
<stop offset="0.75084" stop-color="#D28A03" stop-opacity="0"/>
<stop offset="1" stop-color="#D28A03"/>
</radialGradient>
<radialGradient id="paint48_radial_20020_6080" cx="0" cy="0" r="1" gradientUnits="userSpaceOnUse" gradientTransform="translate(2.91289 22.2098) rotate(-18.1352) scale(2.44916 9.02353)">
<stop stop-color="#FFCF32"/>
<stop offset="0.214455" stop-color="#FFCE59"/>
<stop offset="1" stop-color="#FFCD5B" stop-opacity="0"/>
</radialGradient>
<radialGradient id="paint49_radial_20020_6080" cx="0" cy="0" r="1" gradientUnits="userSpaceOnUse" gradientTransform="translate(1.83784 14.0269) rotate(62.683) scale(1.07897 0.89832)">
<stop stop-color="#FFE65B"/>
<stop offset="1" stop-color="#FFE65D" stop-opacity="0"/>
</radialGradient>
<linearGradient id="paint50_linear_20020_6080" x1="14.7493" y1="4.38367" x2="15.4526" y2="4.10345" gradientUnits="userSpaceOnUse">
<stop stop-color="#1B77D7"/>
<stop offset="1" stop-color="#1B77D7" stop-opacity="0"/>
</linearGradient>
<radialGradient id="paint51_radial_20020_6080" cx="0" cy="0" r="1" gradientUnits="userSpaceOnUse" gradientTransform="translate(17.8596 3.50867) rotate(151.607) scale(1.31436 1.4542)">
<stop stop-color="#1B77D7"/>
<stop offset="1" stop-color="#1B77D7" stop-opacity="0"/>
</radialGradient>
<linearGradient id="paint52_linear_20020_6080" x1="16.9221" y1="5.33679" x2="16.2503" y2="5.02429" gradientUnits="userSpaceOnUse">
<stop stop-color="#41A5FF"/>
<stop offset="1" stop-color="#41A5FF" stop-opacity="0"/>
</linearGradient>
<linearGradient id="paint53_linear_20020_6080" x1="19.5784" y1="4.83675" x2="20.0471" y2="4.993" gradientUnits="userSpaceOnUse">
<stop stop-color="#1B77D7"/>
<stop offset="1" stop-color="#1B77D7" stop-opacity="0"/>
</linearGradient>
<radialGradient id="paint54_radial_20020_6080" cx="0" cy="0" r="1" gradientUnits="userSpaceOnUse" gradientTransform="translate(22.719 5.36572) rotate(-180) scale(1.51563 1.49593)">
<stop stop-color="#1B77D7"/>
<stop offset="1" stop-color="#1B77D7" stop-opacity="0"/>
</radialGradient>
<linearGradient id="paint55_linear_20020_6080" x1="10.1096" y1="6.1024" x2="10.5549" y2="5.26705" gradientUnits="userSpaceOnUse">
<stop stop-color="#1B77D7"/>
<stop offset="1" stop-color="#1B77D7" stop-opacity="0"/>
</linearGradient>
<radialGradient id="paint56_radial_20020_6080" cx="0" cy="0" r="1" gradientUnits="userSpaceOnUse" gradientTransform="translate(13.7057 4.35692) rotate(156.063) scale(1.51685 1.48776)">
<stop stop-color="#1B77D7"/>
<stop offset="1" stop-color="#1B77D7" stop-opacity="0"/>
</radialGradient>
<linearGradient id="paint57_linear_20020_6080" x1="12.9757" y1="5.25865" x2="12.2934" y2="5.59272" gradientUnits="userSpaceOnUse">
<stop stop-color="#41A5FF"/>
<stop offset="1" stop-color="#41A5FF" stop-opacity="0"/>
</linearGradient>
<clipPath id="clip0_20020_6080">
<rect width="32" height="32" fill="white"/>
</clipPath>
</defs>
</svg>
