<svg width="32" height="32" viewBox="0 0 32 32" fill="none" xmlns="http://www.w3.org/2000/svg">
<g clip-path="url(#clip0_28327_3546)">
<path d="M3.90625 11.72C3.90625 11.6 3.79625 11.5 3.66625 11.51C2.67625 11.63 1.78125 12.47 1.78125 13.5V15.3281H3.90625C3.90625 15.3281 3.90625 12.41 3.90625 11.72Z" fill="url(#paint0_linear_28327_3546)"/>
<path d="M3.90625 11.72C3.90625 11.6 3.79625 11.5 3.66625 11.51C2.67625 11.63 1.78125 12.47 1.78125 13.5V15.3281H3.90625C3.90625 15.3281 3.90625 12.41 3.90625 11.72Z" fill="url(#paint1_linear_28327_3546)"/>
<path d="M3.90625 11.72C3.90625 11.6 3.79625 11.5 3.66625 11.51C2.67625 11.63 1.78125 12.47 1.78125 13.5V15.3281H3.90625C3.90625 15.3281 3.90625 12.41 3.90625 11.72Z" fill="url(#paint2_radial_28327_3546)"/>
<path d="M7.01125 8.5C7.43125 8.5 7.78125 8.84 7.78125 9.26V10.5L6.95125 10.83L6.34125 9.61C6.07125 9.1 6.44125 8.5 7.01125 8.5Z" fill="url(#paint3_linear_28327_3546)"/>
<path d="M7.01125 8.5C7.43125 8.5 7.78125 8.84 7.78125 9.26V10.5L6.95125 10.83L6.34125 9.61C6.07125 9.1 6.44125 8.5 7.01125 8.5Z" fill="url(#paint4_radial_28327_3546)"/>
<path d="M20.7476 18.5625H24.4688L23.6511 26.2764C23.6377 26.4035 23.5304 26.5 23.4025 26.5H20.1841C20.0357 26.5 19.9199 26.3713 19.9355 26.2236L20.7476 18.5625Z" fill="#6F647A"/>
<path d="M20.7476 18.5625H24.4688L23.6511 26.2764C23.6377 26.4035 23.5304 26.5 23.4025 26.5H20.1841C20.0357 26.5 19.9199 26.3713 19.9355 26.2236L20.7476 18.5625Z" fill="url(#paint5_radial_28327_3546)"/>
<path d="M20.7476 18.5625H24.4688L23.6511 26.2764C23.6377 26.4035 23.5304 26.5 23.4025 26.5H20.1841C20.0357 26.5 19.9199 26.3713 19.9355 26.2236L20.7476 18.5625Z" fill="url(#paint6_linear_28327_3546)"/>
<path d="M20.7476 18.5625H24.4688L23.6511 26.2764C23.6377 26.4035 23.5304 26.5 23.4025 26.5H20.1841C20.0357 26.5 19.9199 26.3713 19.9355 26.2236L20.7476 18.5625Z" fill="url(#paint7_linear_28327_3546)"/>
<path d="M20.7476 18.5625H24.4688L23.6511 26.2764C23.6377 26.4035 23.5304 26.5 23.4025 26.5H20.1841C20.0357 26.5 19.9199 26.3713 19.9355 26.2236L20.7476 18.5625Z" fill="url(#paint8_linear_28327_3546)"/>
<path d="M15.7837 18.5625H12.0625L12.8801 26.2764C12.8936 26.4035 13.0008 26.5 13.1287 26.5H16.3471C16.4956 26.5 16.6114 26.3713 16.5957 26.2236L15.7837 18.5625Z" fill="#71667C"/>
<path d="M15.7837 18.5625H12.0625L12.8801 26.2764C12.8936 26.4035 13.0008 26.5 13.1287 26.5H16.3471C16.4956 26.5 16.6114 26.3713 16.5957 26.2236L15.7837 18.5625Z" fill="url(#paint9_linear_28327_3546)"/>
<path d="M15.7837 18.5625H12.0625L12.8801 26.2764C12.8936 26.4035 13.0008 26.5 13.1287 26.5H16.3471C16.4956 26.5 16.6114 26.3713 16.5957 26.2236L15.7837 18.5625Z" fill="url(#paint10_linear_28327_3546)"/>
<path d="M15.7837 18.5625H12.0625L12.8801 26.2764C12.8936 26.4035 13.0008 26.5 13.1287 26.5H16.3471C16.4956 26.5 16.6114 26.3713 16.5957 26.2236L15.7837 18.5625Z" fill="url(#paint11_linear_28327_3546)"/>
<path d="M24.6012 8.5H19.7913C19.0012 8.5 18.2512 8.14 17.7812 7.51C16.8713 6.29 15.4213 5.5 13.7812 5.5H13.6313C11.1513 5.57 9.20125 7.65 9.20125 10.13C9.20125 10.3343 9.0356 10.5 8.83125 10.5H7.05125C5.79125 10.5 4.78125 11.52 4.78125 12.77V14.19C4.78125 14.36 4.64125 14.5 4.46125 14.5H2.28125C2.00511 14.5 1.78125 14.7239 1.78125 15V17C1.78125 18.38 2.89125 19.5 4.28125 19.5H8.40991C8.68403 19.5 8.90625 19.7222 8.90625 19.9963C8.90625 20.2025 8.77882 20.3872 8.58609 20.4604L7.91951 20.7134C6.75461 21.1557 5.98438 22.2721 5.98438 23.5181V24.8906C5.98438 25.1668 6.20823 25.3906 6.48438 25.3906H9.48438C9.76052 25.3906 9.98438 25.1668 9.98438 24.8906V24.7256C9.98438 24.414 10.1769 24.135 10.4682 24.0244L10.9711 23.8334C11.914 23.4754 12.5984 22.6758 12.825 21.7232C12.8648 21.5555 13.0486 21.4548 13.2059 21.5254C14.6014 22.152 16.1502 22.5 17.7813 22.5C19.9139 22.5 22.3847 21.5512 24.1376 20.4715C24.3412 20.3461 24.6055 20.3727 24.7734 20.5429L25.4515 21.23C25.6215 21.4 25.7215 21.64 25.7215 21.89V26.19C25.7215 26.36 25.8615 26.5 26.0315 26.5H29.3363C29.5063 26.5 29.6462 26.36 29.6462 26.19L29.6562 13.67C29.6562 10.82 27.4613 8.5 24.6012 8.5Z" fill="#807C84"/>
<path d="M24.6012 8.5H19.7913C19.0012 8.5 18.2512 8.14 17.7812 7.51C16.8713 6.29 15.4213 5.5 13.7812 5.5H13.6313C11.1513 5.57 9.20125 7.65 9.20125 10.13C9.20125 10.3343 9.0356 10.5 8.83125 10.5H7.05125C5.79125 10.5 4.78125 11.52 4.78125 12.77V14.19C4.78125 14.36 4.64125 14.5 4.46125 14.5H2.28125C2.00511 14.5 1.78125 14.7239 1.78125 15V17C1.78125 18.38 2.89125 19.5 4.28125 19.5H8.40991C8.68403 19.5 8.90625 19.7222 8.90625 19.9963C8.90625 20.2025 8.77882 20.3872 8.58609 20.4604L7.91951 20.7134C6.75461 21.1557 5.98438 22.2721 5.98438 23.5181V24.8906C5.98438 25.1668 6.20823 25.3906 6.48438 25.3906H9.48438C9.76052 25.3906 9.98438 25.1668 9.98438 24.8906V24.7256C9.98438 24.414 10.1769 24.135 10.4682 24.0244L10.9711 23.8334C11.914 23.4754 12.5984 22.6758 12.825 21.7232C12.8648 21.5555 13.0486 21.4548 13.2059 21.5254C14.6014 22.152 16.1502 22.5 17.7813 22.5C19.9139 22.5 22.3847 21.5512 24.1376 20.4715C24.3412 20.3461 24.6055 20.3727 24.7734 20.5429L25.4515 21.23C25.6215 21.4 25.7215 21.64 25.7215 21.89V26.19C25.7215 26.36 25.8615 26.5 26.0315 26.5H29.3363C29.5063 26.5 29.6462 26.36 29.6462 26.19L29.6562 13.67C29.6562 10.82 27.4613 8.5 24.6012 8.5Z" fill="url(#paint12_linear_28327_3546)"/>
<path d="M24.6012 8.5H19.7913C19.0012 8.5 18.2512 8.14 17.7812 7.51C16.8713 6.29 15.4213 5.5 13.7812 5.5H13.6313C11.1513 5.57 9.20125 7.65 9.20125 10.13C9.20125 10.3343 9.0356 10.5 8.83125 10.5H7.05125C5.79125 10.5 4.78125 11.52 4.78125 12.77V14.19C4.78125 14.36 4.64125 14.5 4.46125 14.5H2.28125C2.00511 14.5 1.78125 14.7239 1.78125 15V17C1.78125 18.38 2.89125 19.5 4.28125 19.5H8.40991C8.68403 19.5 8.90625 19.7222 8.90625 19.9963C8.90625 20.2025 8.77882 20.3872 8.58609 20.4604L7.91951 20.7134C6.75461 21.1557 5.98438 22.2721 5.98438 23.5181V24.8906C5.98438 25.1668 6.20823 25.3906 6.48438 25.3906H9.48438C9.76052 25.3906 9.98438 25.1668 9.98438 24.8906V24.7256C9.98438 24.414 10.1769 24.135 10.4682 24.0244L10.9711 23.8334C11.914 23.4754 12.5984 22.6758 12.825 21.7232C12.8648 21.5555 13.0486 21.4548 13.2059 21.5254C14.6014 22.152 16.1502 22.5 17.7813 22.5C19.9139 22.5 22.3847 21.5512 24.1376 20.4715C24.3412 20.3461 24.6055 20.3727 24.7734 20.5429L25.4515 21.23C25.6215 21.4 25.7215 21.64 25.7215 21.89V26.19C25.7215 26.36 25.8615 26.5 26.0315 26.5H29.3363C29.5063 26.5 29.6462 26.36 29.6462 26.19L29.6562 13.67C29.6562 10.82 27.4613 8.5 24.6012 8.5Z" fill="url(#paint13_radial_28327_3546)"/>
<path d="M24.6012 8.5H19.7913C19.0012 8.5 18.2512 8.14 17.7812 7.51C16.8713 6.29 15.4213 5.5 13.7812 5.5H13.6313C11.1513 5.57 9.20125 7.65 9.20125 10.13C9.20125 10.3343 9.0356 10.5 8.83125 10.5H7.05125C5.79125 10.5 4.78125 11.52 4.78125 12.77V14.19C4.78125 14.36 4.64125 14.5 4.46125 14.5H2.28125C2.00511 14.5 1.78125 14.7239 1.78125 15V17C1.78125 18.38 2.89125 19.5 4.28125 19.5H8.40991C8.68403 19.5 8.90625 19.7222 8.90625 19.9963C8.90625 20.2025 8.77882 20.3872 8.58609 20.4604L7.91951 20.7134C6.75461 21.1557 5.98438 22.2721 5.98438 23.5181V24.8906C5.98438 25.1668 6.20823 25.3906 6.48438 25.3906H9.48438C9.76052 25.3906 9.98438 25.1668 9.98438 24.8906V24.7256C9.98438 24.414 10.1769 24.135 10.4682 24.0244L10.9711 23.8334C11.914 23.4754 12.5984 22.6758 12.825 21.7232C12.8648 21.5555 13.0486 21.4548 13.2059 21.5254C14.6014 22.152 16.1502 22.5 17.7813 22.5C19.9139 22.5 22.3847 21.5512 24.1376 20.4715C24.3412 20.3461 24.6055 20.3727 24.7734 20.5429L25.4515 21.23C25.6215 21.4 25.7215 21.64 25.7215 21.89V26.19C25.7215 26.36 25.8615 26.5 26.0315 26.5H29.3363C29.5063 26.5 29.6462 26.36 29.6462 26.19L29.6562 13.67C29.6562 10.82 27.4613 8.5 24.6012 8.5Z" fill="url(#paint14_radial_28327_3546)"/>
<path d="M24.6012 8.5H19.7913C19.0012 8.5 18.2512 8.14 17.7812 7.51C16.8713 6.29 15.4213 5.5 13.7812 5.5H13.6313C11.1513 5.57 9.20125 7.65 9.20125 10.13C9.20125 10.3343 9.0356 10.5 8.83125 10.5H7.05125C5.79125 10.5 4.78125 11.52 4.78125 12.77V14.19C4.78125 14.36 4.64125 14.5 4.46125 14.5H2.28125C2.00511 14.5 1.78125 14.7239 1.78125 15V17C1.78125 18.38 2.89125 19.5 4.28125 19.5H8.40991C8.68403 19.5 8.90625 19.7222 8.90625 19.9963C8.90625 20.2025 8.77882 20.3872 8.58609 20.4604L7.91951 20.7134C6.75461 21.1557 5.98438 22.2721 5.98438 23.5181V24.8906C5.98438 25.1668 6.20823 25.3906 6.48438 25.3906H9.48438C9.76052 25.3906 9.98438 25.1668 9.98438 24.8906V24.7256C9.98438 24.414 10.1769 24.135 10.4682 24.0244L10.9711 23.8334C11.914 23.4754 12.5984 22.6758 12.825 21.7232C12.8648 21.5555 13.0486 21.4548 13.2059 21.5254C14.6014 22.152 16.1502 22.5 17.7813 22.5C19.9139 22.5 22.3847 21.5512 24.1376 20.4715C24.3412 20.3461 24.6055 20.3727 24.7734 20.5429L25.4515 21.23C25.6215 21.4 25.7215 21.64 25.7215 21.89V26.19C25.7215 26.36 25.8615 26.5 26.0315 26.5H29.3363C29.5063 26.5 29.6462 26.36 29.6462 26.19L29.6562 13.67C29.6562 10.82 27.4613 8.5 24.6012 8.5Z" fill="url(#paint15_radial_28327_3546)"/>
<path d="M24.6012 8.5H19.7913C19.0012 8.5 18.2512 8.14 17.7812 7.51C16.8713 6.29 15.4213 5.5 13.7812 5.5H13.6313C11.1513 5.57 9.20125 7.65 9.20125 10.13C9.20125 10.3343 9.0356 10.5 8.83125 10.5H7.05125C5.79125 10.5 4.78125 11.52 4.78125 12.77V14.19C4.78125 14.36 4.64125 14.5 4.46125 14.5H2.28125C2.00511 14.5 1.78125 14.7239 1.78125 15V17C1.78125 18.38 2.89125 19.5 4.28125 19.5H8.40991C8.68403 19.5 8.90625 19.7222 8.90625 19.9963C8.90625 20.2025 8.77882 20.3872 8.58609 20.4604L7.91951 20.7134C6.75461 21.1557 5.98438 22.2721 5.98438 23.5181V24.8906C5.98438 25.1668 6.20823 25.3906 6.48438 25.3906H9.48438C9.76052 25.3906 9.98438 25.1668 9.98438 24.8906V24.7256C9.98438 24.414 10.1769 24.135 10.4682 24.0244L10.9711 23.8334C11.914 23.4754 12.5984 22.6758 12.825 21.7232C12.8648 21.5555 13.0486 21.4548 13.2059 21.5254C14.6014 22.152 16.1502 22.5 17.7813 22.5C19.9139 22.5 22.3847 21.5512 24.1376 20.4715C24.3412 20.3461 24.6055 20.3727 24.7734 20.5429L25.4515 21.23C25.6215 21.4 25.7215 21.64 25.7215 21.89V26.19C25.7215 26.36 25.8615 26.5 26.0315 26.5H29.3363C29.5063 26.5 29.6462 26.36 29.6462 26.19L29.6562 13.67C29.6562 10.82 27.4613 8.5 24.6012 8.5Z" fill="url(#paint16_radial_28327_3546)"/>
<path d="M24.6012 8.5H19.7913C19.0012 8.5 18.2512 8.14 17.7812 7.51C16.8713 6.29 15.4213 5.5 13.7812 5.5H13.6313C11.1513 5.57 9.20125 7.65 9.20125 10.13C9.20125 10.3343 9.0356 10.5 8.83125 10.5H7.05125C5.79125 10.5 4.78125 11.52 4.78125 12.77V14.19C4.78125 14.36 4.64125 14.5 4.46125 14.5H2.28125C2.00511 14.5 1.78125 14.7239 1.78125 15V17C1.78125 18.38 2.89125 19.5 4.28125 19.5H8.40991C8.68403 19.5 8.90625 19.7222 8.90625 19.9963C8.90625 20.2025 8.77882 20.3872 8.58609 20.4604L7.91951 20.7134C6.75461 21.1557 5.98438 22.2721 5.98438 23.5181V24.8906C5.98438 25.1668 6.20823 25.3906 6.48438 25.3906H9.48438C9.76052 25.3906 9.98438 25.1668 9.98438 24.8906V24.7256C9.98438 24.414 10.1769 24.135 10.4682 24.0244L10.9711 23.8334C11.914 23.4754 12.5984 22.6758 12.825 21.7232C12.8648 21.5555 13.0486 21.4548 13.2059 21.5254C14.6014 22.152 16.1502 22.5 17.7813 22.5C19.9139 22.5 22.3847 21.5512 24.1376 20.4715C24.3412 20.3461 24.6055 20.3727 24.7734 20.5429L25.4515 21.23C25.6215 21.4 25.7215 21.64 25.7215 21.89V26.19C25.7215 26.36 25.8615 26.5 26.0315 26.5H29.3363C29.5063 26.5 29.6462 26.36 29.6462 26.19L29.6562 13.67C29.6562 10.82 27.4613 8.5 24.6012 8.5Z" fill="url(#paint17_radial_28327_3546)"/>
<path d="M3.50372 17.55C3.22372 17.55 3.00372 17.33 3.00372 17.05V16.5C3.00372 16.22 3.22372 16 3.50372 16C3.78372 16 4.00372 16.22 4.00372 16.5V17.05C4.00372 17.32 3.78372 17.55 3.50372 17.55Z" fill="url(#paint18_radial_28327_3546)"/>
<path d="M7.28125 14.4187C7.55739 14.4187 7.78125 14.1948 7.78125 13.9187C7.78125 13.6426 7.55739 13.4187 7.28125 13.4187C7.00511 13.4187 6.78125 13.6426 6.78125 13.9187C6.78125 14.1948 7.00511 14.4187 7.28125 14.4187Z" fill="url(#paint19_radial_28327_3546)"/>
<path d="M7.28125 14.4187C7.55739 14.4187 7.78125 14.1948 7.78125 13.9187C7.78125 13.6426 7.55739 13.4187 7.28125 13.4187C7.00511 13.4187 6.78125 13.6426 6.78125 13.9187C6.78125 14.1948 7.00511 14.4187 7.28125 14.4187Z" fill="url(#paint20_radial_28327_3546)"/>
<path fill-rule="evenodd" clip-rule="evenodd" d="M12.9062 17.0312V21.0288C12.9062 22.2748 12.136 23.3911 10.9711 23.8334L10.4682 24.0244C10.1769 24.135 9.98438 24.414 9.98438 24.7256V24.8906C9.98438 25.1668 9.76052 25.3906 9.48438 25.3906H6.48438C6.20823 25.3906 5.98438 25.1668 5.98438 24.8906V23.5181C5.98438 22.2721 6.75461 21.1557 7.91951 20.7134L8.58373 20.4613C8.77788 20.3875 8.90625 20.2015 8.90625 19.9938V17.0312H12.9062Z" fill="url(#paint21_radial_28327_3546)"/>
<path fill-rule="evenodd" clip-rule="evenodd" d="M12.9062 17.0312V21.0288C12.9062 22.2748 12.136 23.3911 10.9711 23.8334L10.4682 24.0244C10.1769 24.135 9.98438 24.414 9.98438 24.7256V24.8906C9.98438 25.1668 9.76052 25.3906 9.48438 25.3906H6.48438C6.20823 25.3906 5.98438 25.1668 5.98438 24.8906V23.5181C5.98438 22.2721 6.75461 21.1557 7.91951 20.7134L8.58373 20.4613C8.77788 20.3875 8.90625 20.2015 8.90625 19.9938V17.0312H12.9062Z" fill="url(#paint22_radial_28327_3546)"/>
<path fill-rule="evenodd" clip-rule="evenodd" d="M12.9062 17.0312V21.0288C12.9062 22.2748 12.136 23.3911 10.9711 23.8334L10.4682 24.0244C10.1769 24.135 9.98438 24.414 9.98438 24.7256V24.8906C9.98438 25.1668 9.76052 25.3906 9.48438 25.3906H6.48438C6.20823 25.3906 5.98438 25.1668 5.98438 24.8906V23.5181C5.98438 22.2721 6.75461 21.1557 7.91951 20.7134L8.58373 20.4613C8.77788 20.3875 8.90625 20.2015 8.90625 19.9938V17.0312H12.9062Z" fill="url(#paint23_linear_28327_3546)"/>
<path fill-rule="evenodd" clip-rule="evenodd" d="M12.9062 17.0312V21.0288C12.9062 22.2748 12.136 23.3911 10.9711 23.8334L10.4682 24.0244C10.1769 24.135 9.98438 24.414 9.98438 24.7256V24.8906C9.98438 25.1668 9.76052 25.3906 9.48438 25.3906H6.48438C6.20823 25.3906 5.98438 25.1668 5.98438 24.8906V23.5181C5.98438 22.2721 6.75461 21.1557 7.91951 20.7134L8.58373 20.4613C8.77788 20.3875 8.90625 20.2015 8.90625 19.9938V17.0312H12.9062Z" fill="url(#paint24_radial_28327_3546)"/>
<g filter="url(#filter0_f_28327_3546)">
<path d="M14.3438 22.2344L14.7992 26.0625H16L15.6688 23.3125L14.3438 22.2344Z" fill="url(#paint25_linear_28327_3546)"/>
</g>
<g filter="url(#filter1_f_28327_3546)">
<path d="M23.5156 21.1875L22.8414 26.0625H22.2938L22.8414 21.7031L23.5156 21.1875Z" fill="url(#paint26_linear_28327_3546)"/>
</g>
<g filter="url(#filter2_f_28327_3546)">
<rect x="27.2812" y="16.7188" width="1.6875" height="9.03125" fill="url(#paint27_linear_28327_3546)"/>
</g>
<g filter="url(#filter3_f_28327_3546)">
<ellipse cx="15.5785" cy="10.2489" rx="2.69612" ry="3.97519" transform="rotate(-26.2248 15.5785 10.2489)" fill="url(#paint28_radial_28327_3546)"/>
</g>
<path d="M24.75 20.5206V15.2188L8.625 14.2812L13.1099 21.5027C13.1421 21.504 13.1745 21.5113 13.2059 21.5254C14.6014 22.152 16.1502 22.5 17.7813 22.5C19.9139 22.5 22.3847 21.5512 24.1376 20.4715C24.3319 20.3518 24.5817 20.3706 24.75 20.5206Z" fill="url(#paint29_radial_28327_3546)"/>
<path d="M24.75 20.5206V15.2188L8.625 14.2812L13.1099 21.5027C13.1421 21.504 13.1745 21.5113 13.2059 21.5254C14.6014 22.152 16.1502 22.5 17.7813 22.5C19.9139 22.5 22.3847 21.5512 24.1376 20.4715C24.3319 20.3518 24.5817 20.3706 24.75 20.5206Z" fill="url(#paint30_radial_28327_3546)"/>
<path d="M24.75 20.5206V15.2188L8.625 14.2812L13.1099 21.5027C13.1421 21.504 13.1745 21.5113 13.2059 21.5254C14.6014 22.152 16.1502 22.5 17.7813 22.5C19.9139 22.5 22.3847 21.5512 24.1376 20.4715C24.3319 20.3518 24.5817 20.3706 24.75 20.5206Z" fill="url(#paint31_radial_28327_3546)"/>
<path d="M24.75 20.5206V15.2188L8.625 14.2812L13.1099 21.5027C13.1421 21.504 13.1745 21.5113 13.2059 21.5254C14.6014 22.152 16.1502 22.5 17.7813 22.5C19.9139 22.5 22.3847 21.5512 24.1376 20.4715C24.3319 20.3518 24.5817 20.3706 24.75 20.5206Z" fill="url(#paint32_radial_28327_3546)"/>
<path d="M24.75 20.5206V15.2188L8.625 14.2812L13.1099 21.5027C13.1421 21.504 13.1745 21.5113 13.2059 21.5254C14.6014 22.152 16.1502 22.5 17.7813 22.5C19.9139 22.5 22.3847 21.5512 24.1376 20.4715C24.3319 20.3518 24.5817 20.3706 24.75 20.5206Z" fill="url(#paint33_linear_28327_3546)"/>
<path d="M24.75 20.5206V15.2188L8.625 14.2812L13.1099 21.5027C13.1421 21.504 13.1745 21.5113 13.2059 21.5254C14.6014 22.152 16.1502 22.5 17.7813 22.5C19.9139 22.5 22.3847 21.5512 24.1376 20.4715C24.3319 20.3518 24.5817 20.3706 24.75 20.5206Z" fill="url(#paint34_linear_28327_3546)"/>
<g filter="url(#filter4_f_28327_3546)">
<path d="M11.4688 20.2812V21.3125C11.4688 22.0546 10.8671 22.6562 10.125 22.6562V22.6562C9.38287 22.6562 8.78125 23.2579 8.78125 24V24.75" stroke="url(#paint35_linear_28327_3546)"/>
</g>
<g filter="url(#filter5_f_28327_3546)">
<path d="M29.25 13.8438C29.15 10.2938 26.4688 8.9375 24.625 8.9375L19 12.95L22.5938 18.7312L29.25 13.8438Z" fill="url(#paint36_radial_28327_3546)"/>
<path d="M29.25 13.8438C29.15 10.2938 26.4688 8.9375 24.625 8.9375L19 12.95L22.5938 18.7312L29.25 13.8438Z" fill="url(#paint37_linear_28327_3546)"/>
</g>
</g>
<defs>
<filter id="filter0_f_28327_3546" x="13.7437" y="21.6344" width="2.85625" height="5.02813" filterUnits="userSpaceOnUse" color-interpolation-filters="sRGB">
<feFlood flood-opacity="0" result="BackgroundImageFix"/>
<feBlend mode="normal" in="SourceGraphic" in2="BackgroundImageFix" result="shape"/>
<feGaussianBlur stdDeviation="0.3" result="effect1_foregroundBlur_28327_3546"/>
</filter>
<filter id="filter1_f_28327_3546" x="21.6938" y="20.5875" width="2.42186" height="6.075" filterUnits="userSpaceOnUse" color-interpolation-filters="sRGB">
<feFlood flood-opacity="0" result="BackgroundImageFix"/>
<feBlend mode="normal" in="SourceGraphic" in2="BackgroundImageFix" result="shape"/>
<feGaussianBlur stdDeviation="0.3" result="effect1_foregroundBlur_28327_3546"/>
</filter>
<filter id="filter2_f_28327_3546" x="26.2812" y="15.7188" width="3.6875" height="11.0312" filterUnits="userSpaceOnUse" color-interpolation-filters="sRGB">
<feFlood flood-opacity="0" result="BackgroundImageFix"/>
<feBlend mode="normal" in="SourceGraphic" in2="BackgroundImageFix" result="shape"/>
<feGaussianBlur stdDeviation="0.5" result="effect1_foregroundBlur_28327_3546"/>
</filter>
<filter id="filter3_f_28327_3546" x="11.5891" y="5.4881" width="7.97882" height="9.52155" filterUnits="userSpaceOnUse" color-interpolation-filters="sRGB">
<feFlood flood-opacity="0" result="BackgroundImageFix"/>
<feBlend mode="normal" in="SourceGraphic" in2="BackgroundImageFix" result="shape"/>
<feGaussianBlur stdDeviation="0.5" result="effect1_foregroundBlur_28327_3546"/>
</filter>
<filter id="filter4_f_28327_3546" x="7.08125" y="19.0812" width="6.0875" height="6.86875" filterUnits="userSpaceOnUse" color-interpolation-filters="sRGB">
<feFlood flood-opacity="0" result="BackgroundImageFix"/>
<feBlend mode="normal" in="SourceGraphic" in2="BackgroundImageFix" result="shape"/>
<feGaussianBlur stdDeviation="0.6" result="effect1_foregroundBlur_28327_3546"/>
</filter>
<filter id="filter5_f_28327_3546" x="18" y="7.9375" width="12.25" height="11.7937" filterUnits="userSpaceOnUse" color-interpolation-filters="sRGB">
<feFlood flood-opacity="0" result="BackgroundImageFix"/>
<feBlend mode="normal" in="SourceGraphic" in2="BackgroundImageFix" result="shape"/>
<feGaussianBlur stdDeviation="0.5" result="effect1_foregroundBlur_28327_3546"/>
</filter>
<linearGradient id="paint0_linear_28327_3546" x1="2.77695" y1="14.6406" x2="2.77695" y2="12.25" gradientUnits="userSpaceOnUse">
<stop stop-color="#88868A"/>
<stop offset="1" stop-color="#C6C2CB"/>
</linearGradient>
<linearGradient id="paint1_linear_28327_3546" x1="4.1875" y1="14.3281" x2="3.5625" y2="14.2813" gradientUnits="userSpaceOnUse">
<stop offset="0.13673" stop-color="#636165"/>
<stop offset="1" stop-color="#636165" stop-opacity="0"/>
</linearGradient>
<radialGradient id="paint2_radial_28327_3546" cx="0" cy="0" r="1" gradientUnits="userSpaceOnUse" gradientTransform="translate(4.14063 11.1562) rotate(128.186) scale(1.76922 0.465867)">
<stop stop-color="#D4D2D7"/>
<stop offset="1" stop-color="#D4D2D7" stop-opacity="0"/>
</radialGradient>
<linearGradient id="paint3_linear_28327_3546" x1="7.625" y1="10.83" x2="7.40625" y2="8.8125" gradientUnits="userSpaceOnUse">
<stop stop-color="#6A696C"/>
<stop offset="1" stop-color="#7A777C"/>
</linearGradient>
<radialGradient id="paint4_radial_28327_3546" cx="0" cy="0" r="1" gradientUnits="userSpaceOnUse" gradientTransform="translate(6.69531 10.7656) rotate(-77.919) scale(2.27699 1.26689)">
<stop offset="0.874541" stop-color="#828184" stop-opacity="0"/>
<stop offset="1" stop-color="#8E8E8E"/>
</radialGradient>
<radialGradient id="paint5_radial_28327_3546" cx="0" cy="0" r="1" gradientUnits="userSpaceOnUse" gradientTransform="translate(22.1875 20.5) rotate(133.939) scale(4.77379 2.85645)">
<stop stop-color="#4D3D5B"/>
<stop offset="1" stop-color="#4D3D5B" stop-opacity="0"/>
</radialGradient>
<linearGradient id="paint6_linear_28327_3546" x1="24.7187" y1="24.2813" x2="23.0313" y2="24.5156" gradientUnits="userSpaceOnUse">
<stop stop-color="#4D3D5B"/>
<stop offset="0.987877" stop-color="#4D3D5B" stop-opacity="0"/>
</linearGradient>
<linearGradient id="paint7_linear_28327_3546" x1="19.6562" y1="24.1563" x2="23.0313" y2="24.5156" gradientUnits="userSpaceOnUse">
<stop stop-color="#4D3D5B"/>
<stop offset="0.325285" stop-color="#4D3D5B" stop-opacity="0"/>
</linearGradient>
<linearGradient id="paint8_linear_28327_3546" x1="23.7354" y1="26.6563" x2="23.7354" y2="25.5841" gradientUnits="userSpaceOnUse">
<stop stop-color="#715986"/>
<stop offset="0.447917" stop-color="#715986" stop-opacity="0"/>
</linearGradient>
<linearGradient id="paint9_linear_28327_3546" x1="14.8125" y1="21.9062" x2="13.8125" y2="24.9375" gradientUnits="userSpaceOnUse">
<stop stop-color="#4D3D5B"/>
<stop offset="0.761697" stop-color="#4D3D5B" stop-opacity="0"/>
</linearGradient>
<linearGradient id="paint10_linear_28327_3546" x1="11.8125" y1="24.2813" x2="13.8125" y2="24.9375" gradientUnits="userSpaceOnUse">
<stop stop-color="#4D3D5B"/>
<stop offset="1" stop-color="#4D3D5B" stop-opacity="0"/>
</linearGradient>
<linearGradient id="paint11_linear_28327_3546" x1="12.7959" y1="26.6563" x2="12.7959" y2="25.5841" gradientUnits="userSpaceOnUse">
<stop stop-color="#715986"/>
<stop offset="0.447917" stop-color="#715986" stop-opacity="0"/>
</linearGradient>
<linearGradient id="paint12_linear_28327_3546" x1="25.1757" y1="26.7969" x2="25.1757" y2="24.0769" gradientUnits="userSpaceOnUse">
<stop stop-color="#715986"/>
<stop offset="0.241273" stop-color="#715986" stop-opacity="0"/>
</linearGradient>
<radialGradient id="paint13_radial_28327_3546" cx="0" cy="0" r="1" gradientUnits="userSpaceOnUse" gradientTransform="translate(4.84375 12) rotate(64.2307) scale(5.03164 3.34398)">
<stop stop-color="#6C6A6F"/>
<stop offset="0.901362" stop-color="#6C6A6F" stop-opacity="0"/>
</radialGradient>
<radialGradient id="paint14_radial_28327_3546" cx="0" cy="0" r="1" gradientUnits="userSpaceOnUse" gradientTransform="translate(0.78125 12.8125) rotate(41.4237) scale(5.66789 5.89718)">
<stop stop-color="#6C6A6F"/>
<stop offset="0.901362" stop-color="#6C6A6F" stop-opacity="0"/>
</radialGradient>
<radialGradient id="paint15_radial_28327_3546" cx="0" cy="0" r="1" gradientUnits="userSpaceOnUse" gradientTransform="translate(8.5 8.03125) rotate(54.1538) scale(9.44526 4.64291)">
<stop offset="0.304442" stop-color="#6C6A6F"/>
<stop offset="1" stop-color="#6C6A6F" stop-opacity="0"/>
</radialGradient>
<radialGradient id="paint16_radial_28327_3546" cx="0" cy="0" r="1" gradientUnits="userSpaceOnUse" gradientTransform="translate(6.28125 19.375) rotate(-21.5103) scale(5.71021 3.0062)">
<stop stop-color="#6C587F"/>
<stop offset="0.847269" stop-color="#6C587F" stop-opacity="0"/>
</radialGradient>
<radialGradient id="paint17_radial_28327_3546" cx="0" cy="0" r="1" gradientUnits="userSpaceOnUse" gradientTransform="translate(25.5 22.75) rotate(-75.4655) scale(6.97316 2.84836)">
<stop stop-color="#6C587F"/>
<stop offset="0.847269" stop-color="#6C587F" stop-opacity="0"/>
</radialGradient>
<radialGradient id="paint18_radial_28327_3546" cx="0" cy="0" r="1" gradientUnits="userSpaceOnUse" gradientTransform="translate(3.28125 16.9375) scale(0.722473 1.39063)">
<stop stop-color="#67656A"/>
<stop offset="0.713695" stop-color="#4E4C50"/>
</radialGradient>
<radialGradient id="paint19_radial_28327_3546" cx="0" cy="0" r="1" gradientUnits="userSpaceOnUse" gradientTransform="translate(7.42969 13.7578) rotate(125.838) scale(0.693863 0.618606)">
<stop offset="0.00558659" stop-color="#433437"/>
<stop offset="1" stop-color="#3B2838"/>
</radialGradient>
<radialGradient id="paint20_radial_28327_3546" cx="0" cy="0" r="1" gradientUnits="userSpaceOnUse" gradientTransform="translate(7.44531 13.8125) rotate(126.384) scale(0.368763 0.310851)">
<stop stop-color="#5C5051"/>
<stop offset="1" stop-color="#5C5051" stop-opacity="0"/>
</radialGradient>
<radialGradient id="paint21_radial_28327_3546" cx="0" cy="0" r="1" gradientUnits="userSpaceOnUse" gradientTransform="translate(7.75 20.1875) rotate(21.0121) scale(2.52744 1.43368)">
<stop stop-color="#615E63"/>
<stop offset="0.901362" stop-color="#615E63" stop-opacity="0"/>
</radialGradient>
<radialGradient id="paint22_radial_28327_3546" cx="0" cy="0" r="1" gradientUnits="userSpaceOnUse" gradientTransform="translate(11.7031 24.5313) rotate(-150.054) scale(3.31795 2.04453)">
<stop offset="0.0784629" stop-color="#805EA0"/>
<stop offset="1" stop-color="#6C587F" stop-opacity="0"/>
</radialGradient>
<linearGradient id="paint23_linear_28327_3546" x1="8.64063" y1="25.8906" x2="8.64063" y2="24.7969" gradientUnits="userSpaceOnUse">
<stop offset="0.285714" stop-color="#805EA0"/>
<stop offset="0.757143" stop-color="#6C587F" stop-opacity="0"/>
</linearGradient>
<radialGradient id="paint24_radial_28327_3546" cx="0" cy="0" r="1" gradientUnits="userSpaceOnUse" gradientTransform="translate(12.5 22.875) rotate(-149.689) scale(2.3529 1.94829)">
<stop stop-color="#8F8898"/>
<stop offset="1" stop-color="#8F8898" stop-opacity="0"/>
</radialGradient>
<linearGradient id="paint25_linear_28327_3546" x1="14.8268" y1="23.0312" x2="15.3106" y2="26.0458" gradientUnits="userSpaceOnUse">
<stop stop-color="#8A8392" stop-opacity="0"/>
<stop offset="1" stop-color="#8A8392"/>
</linearGradient>
<linearGradient id="paint26_linear_28327_3546" x1="22.8138" y1="23.0312" x2="22.33" y2="26.0458" gradientUnits="userSpaceOnUse">
<stop stop-color="#8A8392" stop-opacity="0"/>
<stop offset="1" stop-color="#8A8392"/>
</linearGradient>
<linearGradient id="paint27_linear_28327_3546" x1="28.6172" y1="26.393" x2="28.6172" y2="15.6875" gradientUnits="userSpaceOnUse">
<stop stop-color="#A19CA6"/>
<stop offset="1" stop-color="#A19CA6" stop-opacity="0"/>
</linearGradient>
<radialGradient id="paint28_radial_28327_3546" cx="0" cy="0" r="1" gradientUnits="userSpaceOnUse" gradientTransform="translate(16.3895 8.49346) rotate(84.8319) scale(6.33967 3.87595)">
<stop stop-color="#97939A"/>
<stop offset="0.814152" stop-color="#8D8C8E" stop-opacity="0"/>
</radialGradient>
<radialGradient id="paint29_radial_28327_3546" cx="0" cy="0" r="1" gradientUnits="userSpaceOnUse" gradientTransform="translate(17.4205 14.5) rotate(96.3424) scale(8.04926 11.8456)">
<stop offset="0.777344" stop-color="#6C587F" stop-opacity="0"/>
<stop offset="1" stop-color="#77509C"/>
</radialGradient>
<radialGradient id="paint30_radial_28327_3546" cx="0" cy="0" r="1" gradientUnits="userSpaceOnUse" gradientTransform="translate(15.9375 26.0938) rotate(-124.977) scale(10.0305 7.30086)">
<stop stop-color="#6C587F"/>
<stop offset="1" stop-color="#6C587F" stop-opacity="0"/>
</radialGradient>
<radialGradient id="paint31_radial_28327_3546" cx="0" cy="0" r="1" gradientUnits="userSpaceOnUse" gradientTransform="translate(13.8125 22.7813) rotate(-126.459) scale(6.10016 2.73927)">
<stop stop-color="#6C587F"/>
<stop offset="0.675505" stop-color="#6C587F" stop-opacity="0"/>
</radialGradient>
<radialGradient id="paint32_radial_28327_3546" cx="0" cy="0" r="1" gradientUnits="userSpaceOnUse" gradientTransform="translate(18.3437 26.5) rotate(-101.976) scale(10.542 11.2001)">
<stop stop-color="#6C587F"/>
<stop offset="1" stop-color="#6C587F" stop-opacity="0"/>
</radialGradient>
<linearGradient id="paint33_linear_28327_3546" x1="13.0313" y1="22.1562" x2="14.1563" y2="21.625" gradientUnits="userSpaceOnUse">
<stop stop-color="#807C84"/>
<stop offset="1" stop-color="#807C84" stop-opacity="0"/>
</linearGradient>
<linearGradient id="paint34_linear_28327_3546" x1="24.75" y1="20.6563" x2="24.0937" y2="20.5625" gradientUnits="userSpaceOnUse">
<stop stop-color="#807C84"/>
<stop offset="1" stop-color="#807C84" stop-opacity="0"/>
</linearGradient>
<linearGradient id="paint35_linear_28327_3546" x1="9.90625" y1="24.5313" x2="13.4375" y2="17.9375" gradientUnits="userSpaceOnUse">
<stop stop-color="#A6A1AC"/>
<stop offset="1" stop-color="#A6A1AC" stop-opacity="0"/>
</linearGradient>
<radialGradient id="paint36_radial_28327_3546" cx="0" cy="0" r="1" gradientUnits="userSpaceOnUse" gradientTransform="translate(28.3125 11.075) rotate(139.254) scale(10.7245 6.40549)">
<stop stop-color="#97939A"/>
<stop offset="0.790518" stop-color="#8D8C8E" stop-opacity="0"/>
</radialGradient>
<linearGradient id="paint37_linear_28327_3546" x1="30.5938" y1="10.6563" x2="26.8125" y2="12.8437" gradientUnits="userSpaceOnUse">
<stop stop-color="#989798"/>
<stop offset="1" stop-color="#989798" stop-opacity="0"/>
</linearGradient>
<clipPath id="clip0_28327_3546">
<rect width="32" height="32" fill="white"/>
</clipPath>
</defs>
</svg>
