<svg width="32" height="32" viewBox="0 0 32 32" fill="none" xmlns="http://www.w3.org/2000/svg">
<path d="M9.5 4C4.80558 4 1 7.80558 1 12.5V19.5C1 24.1944 4.80558 28 9.5 28C12.1085 28 14.4416 26.8247 15.9999 24.9774C17.5591 26.8259 19.8924 28 22.5 28C27.1944 28 31 24.1944 31 19.5V12.5C31 7.80558 27.1944 4 22.5 4C19.8924 4 17.5591 5.17415 15.9999 7.0226C14.4415 5.17516 12.1085 4 9.5 4ZM14.8453 8.80029C14.3037 9.91877 14 11.1739 14 12.5V19.5C14 20.8261 14.3037 22.0812 14.8452 23.1997C13.6706 24.8934 11.714 26 9.5 26C5.91015 26 3 23.0899 3 19.5V18.5C3 20.433 4.567 22 6.5 22C8.433 22 10 20.433 10 18.5V13.5C10 11.567 8.433 10 6.5 10C4.567 10 3 11.567 3 13.5V12.5C3 8.91015 5.91015 6 9.5 6C11.714 6 13.6708 7.10671 14.8453 8.80029ZM16 12.5C16 8.91015 18.9101 6 22.5 6C26.0899 6 29 8.91015 29 12.5V19.5C29 23.0899 26.0899 26 22.5 26C18.9101 26 16 23.0899 16 19.5V18.5C16 20.433 17.567 22 19.5 22C21.433 22 23 20.433 23 18.5V13.5C23 11.567 21.433 10 19.5 10C17.567 10 16 11.567 16 13.5V12.5ZM8.67602 13.861C8.30457 14.1702 7.68515 14.0384 7.2925 13.5667C6.89985 13.095 6.88267 12.462 7.25412 12.1528C7.62557 11.8436 8.24499 11.9753 8.63763 12.447C9.03028 12.9187 9.04746 13.5518 8.67602 13.861ZM21.6967 12.447C22.0894 12.9187 22.1065 13.5518 21.7351 13.861C21.3636 14.1702 20.7442 14.0384 20.3516 13.5667C19.9589 13.095 19.9417 12.462 20.3132 12.1528C20.6846 11.8436 21.3041 11.9753 21.6967 12.447Z" fill="#212121"/>
</svg>
