<svg width="32" height="32" viewBox="0 0 32 32" fill="none" xmlns="http://www.w3.org/2000/svg">
<path d="M12.3096 8.05005C12.3096 8.60233 11.8619 9.05005 11.3096 9.05005C10.7573 9.05005 10.3096 8.60233 10.3096 8.05005C10.3096 7.49776 10.7573 7.05005 11.3096 7.05005C11.8619 7.05005 12.3096 7.49776 12.3096 8.05005Z" fill="#212121"/>
<path d="M20.7397 9.05005C21.2919 9.05005 21.7397 8.60233 21.7397 8.05005C21.7397 7.49776 21.2919 7.05005 20.7397 7.05005C20.1874 7.05005 19.7397 7.49776 19.7397 8.05005C19.7397 8.60233 20.1874 9.05005 20.7397 9.05005Z" fill="#212121"/>
<path d="M13.754 9.49992H18.246C18.246 8.26317 17.2309 7.25977 15.9942 7.25977C14.7574 7.25977 13.754 8.26317 13.754 9.49992Z" fill="#212121"/>
<path d="M1.64249 12.9072L4.12033 15.385L2.55247 16.9528C2.36494 17.1404 2.25958 17.3947 2.25958 17.66C2.25958 25.2622 8.4173 31.42 16.0196 31.42C23.5704 31.42 29.701 25.3299 29.7788 17.7966C29.8243 17.4893 29.7248 17.171 29.4967 16.9428L27.9339 15.38L30.4068 12.9072C31.8244 11.4895 30.8238 9.05005 28.8097 9.05005H25.0053C24.5098 4.52136 20.6831 1 16.0296 1C11.3684 1 7.53943 4.51982 7.05197 9.05005H3.2396C1.2254 9.05005 0.224859 11.4895 1.64249 12.9072ZM6.99957 11.05V12.9657L6.76958 12.7357L5.53454 13.9708L3.05671 11.4929C3.00753 11.4438 2.98995 11.3993 2.98337 11.3611C2.97584 11.3174 2.98046 11.2642 3.00259 11.2106C3.02471 11.1571 3.05881 11.1165 3.09451 11.0912C3.12558 11.0693 3.16929 11.05 3.2396 11.05H6.99957ZM4.26649 18.0673L6.18399 16.1498L6.81009 15.6123L6.99957 15.8017V15.8447L10.1162 19.0369L10.1802 18.9748L10.2196 19.0142L12.8257 16.408L16.0248 13.3042L21.193 18.3876L21.8196 19.0142L21.8248 19.009L21.8697 19.0532L23.1244 17.726L25.2392 15.6123L25.9353 16.2099L27.7731 18.0476C27.5641 24.3614 22.3802 29.42 16.0196 29.42C9.65819 29.42 4.48093 24.3762 4.26649 18.0673ZM28.9925 11.4929L26.5197 13.9658L25.2796 12.7257L25.0596 12.9458L25.0596 11.05H28.8097C28.88 11.05 28.9237 11.0693 28.9547 11.0912C28.9904 11.1165 29.0245 11.1571 29.0467 11.2106C29.0688 11.2642 29.0734 11.3174 29.0659 11.3611C29.0593 11.3993 29.0417 11.4438 28.9925 11.4929ZM23.0497 14.8939L21.9792 16.0262L21.8196 16.1857L16.0196 10.3857L11.4222 14.9831L10.2014 16.1676L8.9996 14.9658V10.009C9.01088 6.13098 12.1489 3 16.0296 3C19.785 3 22.8537 5.94838 23.0497 9.67001V14.8939Z" fill="#212121"/>
</svg>
