<svg width="32" height="32" viewBox="0 0 32 32" fill="none" xmlns="http://www.w3.org/2000/svg">
<path d="M9.52777 4C4.83335 4 1.02777 7.80558 1.02777 12.5V19.5C1.02777 24.1944 4.83335 28 9.52777 28C12.1363 28 14.4695 26.8246 16.0278 24.9773C17.5861 26.8246 19.9193 28 22.5278 28C27.2222 28 31.0278 24.1944 31.0278 19.5V12.5C31.0278 7.80558 27.2222 4 22.5278 4C19.9193 4 17.5861 5.17537 16.0278 7.02267C14.4695 5.17537 12.1363 4 9.52777 4Z" fill="#9B9B9B"/>
<path d="M9.52777 5C5.38564 5 2.02777 8.35786 2.02777 12.5V19.5C2.02777 23.6421 5.38564 27 9.52777 27C12.3062 27 14.7318 25.4891 16.0278 23.2442C17.3237 25.4891 19.7493 27 22.5278 27C26.6699 27 30.0278 23.6421 30.0278 19.5V12.5C30.0278 8.35786 26.6699 5 22.5278 5C19.7493 5 17.3237 6.51086 16.0278 8.75583C14.7318 6.51086 12.3062 5 9.52777 5Z" fill="white"/>
<path d="M15.0278 12.5C15.0278 11.1363 15.3917 9.85766 16.0278 8.75583C15.1755 7.27937 13.8345 6.12044 12.226 5.5H12.059C13.1528 6.15625 13.9965 8.75 13.9965 10V22.125C13.9965 23.4997 13.8403 25.2181 12.06 26.5618C13.7422 25.9585 15.1463 24.7711 16.0278 23.2442C15.3917 22.1423 15.0278 20.8637 15.0278 19.5V12.5Z" fill="#D3D3D3"/>
<path d="M30.0278 12.5C30.0278 9.30901 28.035 6.58346 25.226 5.5H25.059C26.7153 6.59375 27.9653 8.5625 27.9653 10.0312V22C27.9653 23.3747 26.8407 25.2181 25.06 26.5618C27.9561 25.5231 30.0278 22.7535 30.0278 19.5V12.5Z" fill="#D3D3D3"/>
<path d="M6.59027 10C4.65727 10 3.09027 11.567 3.09027 13.5V18.5C3.09027 20.433 4.65727 22 6.59027 22C8.52327 22 10.0903 20.433 10.0903 18.5V13.5C10.0903 11.567 8.52327 10 6.59027 10Z" fill="#321B41"/>
<path d="M19.5278 10C17.5948 10 16.0278 11.567 16.0278 13.5V18.5C16.0278 20.433 17.5948 22 19.5278 22C21.4608 22 23.0278 20.433 23.0278 18.5V13.5C23.0278 11.567 21.4608 10 19.5278 10Z" fill="#321B41"/>
<path d="M8.76628 13.861C9.13773 13.5518 9.12055 12.9188 8.7279 12.4471C8.33525 11.9754 7.71583 11.8437 7.34438 12.1528C6.97294 12.462 6.99012 13.0951 7.38277 13.5668C7.77541 14.0385 8.39483 14.1702 8.76628 13.861Z" fill="#F4F4F4"/>
<path d="M21.7629 13.861C22.1343 13.5518 22.1171 12.9188 21.7245 12.4471C21.3318 11.9754 20.7124 11.8437 20.341 12.1528C19.9695 12.462 19.9867 13.0951 20.3793 13.5668C20.772 14.0385 21.3914 14.1702 21.7629 13.861Z" fill="#F4F4F4"/>
</svg>
