<svg width="32" height="32" viewBox="0 0 32 32" fill="none" xmlns="http://www.w3.org/2000/svg">
<path d="M29.7091 11.9196C28.9151 11.5896 28.0081 11.7646 27.3971 12.3676C26.3311 13.4226 24.7681 14.0026 23.0001 14.0026H16.0001C14.2191 14.0026 12.4671 14.6836 10.9711 15.9396L12.4891 8.93263C13.0961 6.14463 11.5101 3.31063 8.80012 2.34163C7.30612 1.80563 5.63012 1.90963 4.19612 2.62963C2.77412 3.35663 1.70712 4.64763 1.26812 6.17663C1.10312 6.76563 1.01412 7.37463 1.00212 7.98463C0.997122 8.25563 1.10312 8.51763 1.29412 8.71063L3.29312 10.7106C3.48112 10.8986 3.73512 11.0036 4.00112 11.0036H5.00112C5.38712 11.0036 5.73812 10.7816 5.90412 10.4326L6.13312 9.95163L3.82312 20.5576C3.32412 22.8566 3.88712 25.2276 5.36812 27.0646C6.87312 28.9316 9.12312 30.0026 11.5391 30.0026H18.7491C24.5181 30.0026 29.4311 26.1206 30.6981 20.5636C30.7861 20.1816 30.6411 19.7926 30.3441 19.5566L30.8901 18.4776C30.9571 18.3436 30.9941 18.1966 30.9971 18.0466L30.9981 13.8496C31.0001 13.0046 30.4931 12.2466 29.7091 11.9196Z" fill="#9B9B9B"/>
<path d="M20.25 25.0036H15.5C15.22 25.0036 15 24.7906 15 24.5186C15 24.2476 15.22 24.0336 15.5 24.0336H20.25C24.559 24.0336 28.289 21.5616 29.999 18.0046C29.999 17.9636 30 17.9236 30 17.8826V13.8496C30 12.8706 28.8 12.3866 28.1 13.0786C26.76 14.4026 24.9 15.0026 23 15.0026H16C14 15.0026 12.22 15.9746 10.86 17.4176L10.01 18.3166C9.79997 18.5346 9.42997 18.3466 9.48997 18.0496L11.51 8.71855C12.01 6.42555 10.7 4.08255 8.45997 3.28155C7.21997 2.83655 5.82997 2.92555 4.64998 3.51855C3.46998 4.12355 2.58998 5.19155 2.22998 6.44655C2.08698 6.95555 2.01098 7.47955 2.00098 8.00355L3.99998 9.00355L5.94997 8.00355L6.08997 7.51455C6.16997 7.23755 6.36997 7.09956 6.47997 7.04056C6.58997 6.98155 6.81997 6.90255 7.09997 7.00056C7.45997 7.12855 7.67997 7.51455 7.59997 7.89055L6.02997 15.1556L4.79997 20.7706C3.87998 25.0106 7.14997 29.0046 11.54 29.0046H18.75C24.107 29.0046 28.593 25.3056 29.724 20.3426C27.583 23.1606 24.131 25.0036 20.25 25.0036Z" fill="white"/>
<path d="M4.00004 7.50354C4.00004 7.77954 3.77604 8.00354 3.50004 8.00354C3.22404 8.00354 3.00004 7.77954 3.00004 7.50354C3.00004 7.22754 3.22404 7.00354 3.50004 7.00354C3.77604 7.00354 4.00004 7.22754 4.00004 7.50354ZM3.50004 8.00354H2.00104C1.99504 8.33754 2.01504 8.67254 2.06304 9.00354L4.00004 10.0035L5.66404 9.00354L5.95004 8.00354H3.50004Z" fill="#212121"/>
<path d="M5.66399 9.00354H2.06299C2.13999 9.53155 2.28599 10.0516 2.49999 10.5486L3.44999 12.7526C3.55999 12.9996 3.80999 13.1676 4.07999 13.1676C4.39999 13.1676 4.67999 12.9506 4.74999 12.6436L5.48999 9.60855L5.66399 9.00354Z" fill="#FF822D"/>
</svg>
